<svg width="101" height="28" viewBox="0 0 101 28" fill="none" xmlns="http://www.w3.org/2000/svg">
<g clip-path="url(#clip0_2826_2)">
<path d="M0 0L7.73829 13.7606L13.5413 3.43912H17.4103L9.6727 17.1801L15.4751 27.5003L21.2791 17.2116L30.9633 0H27.0828L17.4147 17.2028L15.4735 20.6322L13.5401 17.188L21.2795 3.4241L23.2128 0H11.6051L7.7366 6.85923L5.80376 3.43166L7.73709 0H0Z" fill="black"/>
<path d="M89.2983 9.75805C89.2522 9.75553 89.2061 9.75391 89.1592 9.75391C89.1122 9.75391 89.0661 9.75553 89.02 9.75805C88.029 9.81498 87.2003 10.4733 86.8913 11.3738C86.8078 11.6176 86.7617 11.8788 86.7617 12.1514C86.7617 12.4251 86.8086 12.688 86.893 12.9331C87.1763 13.7546 87.894 14.3739 88.7716 14.5168C88.8979 14.5376 89.0275 14.5484 89.1592 14.5484H90.9273H91.1416C91.5304 14.6007 91.8303 14.9338 91.8303 15.3367C91.8303 15.7338 91.5396 16.0628 91.1595 16.1226H90.909H88.7613H87.6688L86.7804 17.7379H90.9348C90.968 17.7396 91.0013 17.7409 91.0345 17.7409C91.0677 17.7409 91.1005 17.7396 91.1337 17.7379C92.1431 17.6972 92.9912 17.0347 93.3073 16.1226C93.3929 15.8758 93.4398 15.6109 93.4398 15.3351C93.4398 15.0592 93.3929 14.7951 93.3077 14.5484C93.0219 13.7226 92.2997 13.1013 91.4162 12.9601C91.3327 12.9468 91.2484 12.9377 91.1623 12.9331C91.12 12.9306 91.0772 12.9293 91.0344 12.9293C90.9912 12.9293 90.9488 12.9306 90.9061 12.9331H89.3011H89.0166C88.6469 12.8658 88.3657 12.5422 88.3657 12.1526C88.3657 11.7651 88.644 11.4427 89.012 11.3738H89.3061H91.4265H92.5197L93.4082 9.75808L89.2983 9.75805Z" fill="black"/>
<path d="M44.2754 9.75781H46.115V15.999H50.6177V17.7347H44.2754V9.75781Z" fill="black"/>
<path d="M63.0531 9.76562L62.4587 10.8173L63.9576 13.8016L66.1058 9.76562H68.0468L63.9576 17.7305L59.9668 9.76562H63.0531Z" fill="black"/>
<path d="M81.933 13.5454C82.1503 13.5454 82.3372 13.4549 82.4942 13.2488C82.6512 13.0432 82.7297 12.7799 82.7297 12.458C82.7297 12.129 82.64 11.8674 82.4605 11.6725C82.2811 11.4786 82.0863 11.381 81.8774 11.381H79.59V13.5574V15.1619V17.7305H77.75V9.76562H82.0008C82.3746 9.76562 82.7202 9.84414 83.0383 10.0011C83.3561 10.1581 83.631 10.3642 83.8628 10.6183C84.0946 10.8725 84.2761 11.1603 84.407 11.4819C84.5378 11.8037 84.6034 12.129 84.6034 12.458C84.6034 12.7047 84.5731 12.9422 84.5137 13.1707C84.4539 13.3983 84.3679 13.6135 84.2553 13.8153C84.1432 14.0172 84.0069 14.1987 83.8462 14.3595C83.6851 14.5206 83.504 14.6568 83.3021 14.769L85.052 17.7305H82.9768L80.3888 13.5454H81.933Z" fill="black"/>
<path d="M58.3226 16.1152V17.7305H52.7246V9.76562H58.2217V11.3809H54.5643V12.929H57.7056V14.4214H54.5643V16.1152H58.3226Z" fill="black"/>
<path d="M75.5059 16.1152V17.7305H69.9082V9.76562H75.405V11.3809H71.7482V12.929H74.8891V14.4214H71.7482V16.1152H75.5059Z" fill="black"/>
<path d="M101 16.1152V17.7305H95.4023V9.76562H100.9V11.3809H97.2423V12.929H100.383V14.4214H97.2423V16.1152H101Z" fill="black"/>
<path d="M38.9358 16.1082C37.6324 16.1082 36.576 15.0515 36.576 13.7485C36.576 12.4451 37.6324 11.3889 38.9358 11.3889C39.6056 11.3889 40.2089 11.6688 40.6384 12.117L41.8466 10.9087C41.1077 10.1516 40.0774 9.67969 38.9358 9.67969C36.6888 9.67969 34.8672 11.5014 34.8672 13.7485C34.8672 15.9952 36.6888 17.8169 38.9358 17.8169C40.0697 17.8169 41.0942 17.3521 41.8321 16.6041L40.6238 15.3954C40.1954 15.8349 39.5979 16.1082 38.9358 16.1082Z" fill="black"/>
</g>
<defs>
<clipPath id="clip0_2826_2">
<rect width="101" height="28" fill="white"/>
</clipPath>
</defs>
</svg>
