<svg width="986" height="987" viewBox="0 0 986 987" fill="none" xmlns="http://www.w3.org/2000/svg">
<rect x="739" y="741" width="248" height="249" transform="rotate(-180 739 741)" fill="#449388"/>
<rect x="986" y="741" width="248" height="249" transform="rotate(-180 986 741)" fill="#449388"/>
<rect x="986" y="987" width="248" height="249" transform="rotate(-180 986 987)" fill="#449388"/>
<rect x="986" y="493" width="495" height="493" transform="rotate(-180 986 493)" fill="#3C7ADF"/>
<path d="M4.28372e-05 -7.34422e-05C1.91789e-05 270.619 219.828 490 491 490L491 -3.05176e-05L4.28372e-05 -7.34422e-05Z" fill="#DF5D2F"/>
<rect x="986" y="493" width="494" height="493" transform="rotate(-180 986 493)" fill="#635548"/>
<rect x="739" y="741" width="248" height="249" transform="rotate(-180 739 741)" fill="#3C7ADF"/>
<rect x="986" y="741" width="248" height="249" transform="rotate(-180 986 741)" fill="#3C7ADF"/>
<rect x="986" y="987" width="248" height="249" transform="rotate(-180 986 987)" fill="#3C7ADF"/>
<path d="M4.28372e-05 -7.34422e-05C1.91789e-05 270.619 219.828 490 491 490L491 -3.05176e-05L4.28372e-05 -7.34422e-05Z" fill="#DF5D2F"/>
<path d="M737 246.5C737 110.362 626.862 -4.87306e-06 491 -1.08843e-05L491 493C626.862 493 737 382.638 737 246.5Z" fill="#E1AD6A"/>
<path d="M981 246.5C981 110.362 871.757 -4.88118e-06 737 -1.09024e-05L737 493C871.757 493 981 382.638 981 246.5Z" fill="#449388"/>
</svg>
