<svg width="497" height="611" viewBox="0 0 497 611" fill="none" xmlns="http://www.w3.org/2000/svg">
<path d="M308.212 0.242188L308.219 0.734985C308.792 40.5275 309.078 70.3724 309.078 90.2705V91.0122C309.074 100.594 309.003 107.812 308.863 112.667C308.681 118.985 308.54 120.613 307.719 120.613L234.004 120.613L234.004 504.937L233.839 505.086L117.299 610.039L116.465 610.791V0.242188H308.212Z" fill="url(#paint0_linear_371_39)"/>
<path d="M436.078 0.242188L495.992 60.1562L496.138 60.3027V440.617L495.992 440.764L431.134 505.622H0.257812L1.03046 504.783L112.695 383.564L112.843 383.402L375.226 383.402V120.599H273.5V0.242188H436.078Z" fill="url(#paint1_linear_371_39)"/>
<path fill-rule="evenodd" clip-rule="evenodd" d="M116.465 0.242188H436.078L375.465 121H116.465V0.242188Z" fill="url(#paint2_linear_371_39)"/>
<defs>
<linearGradient id="paint0_linear_371_39" x1="8543.48" y1="65256.9" x2="32408.2" y2="21155.6" gradientUnits="userSpaceOnUse">
<stop stop-color="#1755A4"/>
<stop offset="1" stop-color="#8466E9"/>
</linearGradient>
<linearGradient id="paint1_linear_371_39" x1="-15564.2" y1="59398.4" x2="43971.2" y2="1130.01" gradientUnits="userSpaceOnUse">
<stop stop-color="#BC51CE"/>
<stop offset="1" stop-color="#8466E8"/>
</linearGradient>
<linearGradient id="paint2_linear_371_39" x1="116.465" y1="6900.05" x2="30181" y2="-1299.19" gradientUnits="userSpaceOnUse">
<stop stop-color="#6B63D9"/>
<stop offset="1" stop-color="#8C63E5"/>
</linearGradient>
</defs>
</svg>
