<svg width="1080" height="1080" viewBox="0 0 1080 1080" fill="none" xmlns="http://www.w3.org/2000/svg">
<g clip-path="url(#clip0_673_44663)">
<path d="M486 238C486 369.444 377.205 476 243 476C108.795 476 0 369.444 0 238C0 106.556 108.795 0 243 0C377.205 0 486 106.556 486 238Z" fill="black"/>
<path d="M588 579H1080V1080H588V579Z" fill="black"/>
<path d="M588 0C858.067 0 1077 194.465 1077 434.35V476L588 476V0Z" fill="black"/>
<path d="M486 1080C217.59 1080 -1.2624e-05 875.321 9.44883e-06 622.837L1.32812e-05 579L486 579L486 1080Z" fill="black"/>
</g>
<defs>
<clipPath id="clip0_673_44663">
<rect width="1080" height="1080" fill="white"/>
</clipPath>
</defs>
</svg>
