<svg width="606" height="236" viewBox="0 0 606 236" fill="none" xmlns="http://www.w3.org/2000/svg">
<path d="M175.004 74.4376C173.646 72.7338 171.855 71.3951 169.633 70.4215C167.472 69.387 165.373 68.8698 163.336 68.8698C162.286 68.8698 161.206 68.9611 160.095 69.1436C159.045 69.3262 158.089 69.6913 157.224 70.2389C156.36 70.7257 155.619 71.3951 155.002 72.247C154.446 73.038 154.168 74.0725 154.168 75.3503C154.168 76.4456 154.385 77.3584 154.817 78.0886C155.311 78.8188 155.99 79.4577 156.854 80.0054C157.78 80.553 158.86 81.0702 160.095 81.557C161.33 81.983 162.719 82.4394 164.262 82.9262C166.484 83.6564 168.799 84.4779 171.207 85.3906C173.615 86.2425 175.806 87.3987 177.782 88.8591C179.757 90.3195 181.393 92.145 182.69 94.3356C183.986 96.4653 184.634 99.1427 184.634 102.368C184.634 106.08 183.924 109.305 182.504 112.043C181.146 114.72 179.294 116.941 176.948 118.706C174.602 120.471 171.917 121.779 168.892 122.631C165.867 123.483 162.749 123.909 159.539 123.909C154.848 123.909 150.31 123.118 145.927 121.536C141.544 119.893 137.902 117.58 135 114.599L145.371 104.193C146.976 106.14 149.075 107.783 151.668 109.122C154.323 110.4 156.946 111.039 159.539 111.039C160.712 111.039 161.854 110.917 162.966 110.674C164.077 110.43 165.034 110.035 165.836 109.487C166.7 108.94 167.38 108.209 167.873 107.297C168.367 106.384 168.614 105.289 168.614 104.011C168.614 102.794 168.306 101.759 167.688 100.907C167.071 100.055 166.176 99.2949 165.003 98.6255C163.892 97.8953 162.472 97.2564 160.743 96.7087C159.076 96.1002 157.163 95.4613 155.002 94.7919C152.903 94.1226 150.835 93.3315 148.798 92.4188C146.822 91.506 145.032 90.3499 143.427 88.9503C141.883 87.4899 140.618 85.7557 139.63 83.7476C138.704 81.6787 138.241 79.1839 138.241 76.2631C138.241 72.6729 138.982 69.6 140.463 67.0443C141.945 64.4886 143.89 62.3893 146.297 60.7463C148.705 59.1034 151.421 57.9168 154.446 57.1866C157.471 56.3955 160.527 56 163.614 56C167.318 56 171.084 56.6693 174.911 58.008C178.8 59.3468 182.196 61.3244 185.097 63.9409L175.004 74.4376Z" fill="black"/>
<path d="M221.964 70.9691V122.266H206.129V70.9691H187.609V57.643H240.484V70.9691H221.964Z" fill="black"/>
<path d="M303.273 97.8953C303.273 101.79 302.594 105.349 301.236 108.574C299.939 111.739 298.056 114.477 295.587 116.789C293.118 119.041 290.124 120.805 286.605 122.083C283.148 123.361 279.289 124 275.03 124C270.708 124 266.819 123.361 263.362 122.083C259.905 120.805 256.972 119.041 254.565 116.789C252.157 114.477 250.305 111.739 249.009 108.574C247.712 105.349 247.064 101.79 247.064 97.8953V57.643H262.806V96.6174C262.806 98.3821 263.022 100.055 263.454 101.638C263.948 103.22 264.658 104.65 265.584 105.928C266.572 107.145 267.838 108.118 269.381 108.848C270.986 109.579 272.9 109.944 275.122 109.944C277.345 109.944 279.228 109.579 280.771 108.848C282.376 108.118 283.672 107.145 284.66 105.928C285.648 104.65 286.358 103.22 286.79 101.638C287.222 100.055 287.438 98.3821 287.438 96.6174V57.643H303.273V97.8953Z" fill="black"/>
<path d="M365.805 77.5409C365.805 81.3136 365.095 84.5083 363.675 87.1248C362.255 89.6805 360.341 91.7494 357.934 93.3315C355.526 94.9136 352.748 96.0698 349.6 96.8C346.451 97.5302 343.179 97.8953 339.784 97.8953H331.913V122.266H316.078V57.643H340.154C343.735 57.643 347.069 58.0081 350.155 58.7383C353.304 59.4076 356.02 60.5333 358.304 62.1154C360.65 63.6367 362.471 65.6752 363.768 68.2309C365.126 70.7257 365.805 73.8291 365.805 77.5409ZM349.97 77.6322C349.97 76.111 349.661 74.8635 349.044 73.8899C348.427 72.9163 347.593 72.1557 346.544 71.6081C345.494 71.0604 344.29 70.6953 342.932 70.5127C341.636 70.3302 340.278 70.2389 338.858 70.2389H331.913V85.4819H338.58C340.062 85.4819 341.482 85.3602 342.84 85.1168C344.198 84.8734 345.402 84.4474 346.451 83.8389C347.562 83.2304 348.427 82.4394 349.044 81.4658C349.661 80.4313 349.97 79.1535 349.97 77.6322Z" fill="black"/>
<path d="M375.31 122.266V57.643H391.238V122.266H375.31Z" fill="black"/>
<path d="M466 89.7718C466 95.4309 464.92 100.329 462.759 104.467C460.66 108.544 457.851 111.921 454.332 114.599C450.875 117.215 446.955 119.162 442.572 120.44C438.189 121.657 433.744 122.266 429.237 122.266H404.791V57.643H428.497C433.127 57.643 437.695 58.1906 442.201 59.2859C446.708 60.3204 450.721 62.085 454.24 64.5799C457.758 67.0139 460.598 70.2998 462.759 74.4376C464.92 78.5754 466 83.6868 466 89.7718ZM449.517 89.7718C449.517 86.1208 448.9 83.1087 447.665 80.7356C446.492 78.3016 444.887 76.3848 442.85 74.9852C440.874 73.5248 438.59 72.4904 435.997 71.8819C433.466 71.2734 430.842 70.9691 428.126 70.9691H420.255V108.757H427.756C430.595 108.757 433.312 108.453 435.905 107.844C438.559 107.175 440.874 106.11 442.85 104.65C444.887 103.189 446.492 101.242 447.665 98.8081C448.9 96.374 449.517 93.362 449.517 89.7718Z" fill="black"/>
<path d="M134.472 178.828V160.576H117.509V178.828H107V135.172H117.509V151.697H134.472V135.172H144.981V178.828H134.472Z" fill="black"/>
<path d="M183.433 178.828L180.053 170.257H163.214L160.018 178.828H148.587L166.84 135.172H177.042L195.11 178.828H183.433ZM171.756 146.826L166.225 161.81H177.164L171.756 146.826Z" fill="black"/>
<path d="M235.914 172.786C233.989 175.005 231.612 176.773 228.785 178.088C225.958 179.363 222.701 180 219.013 180C215.654 180 212.54 179.445 209.672 178.335C206.845 177.225 204.386 175.663 202.297 173.649C200.207 171.593 198.568 169.147 197.38 166.311C196.192 163.475 195.598 160.35 195.598 156.938C195.598 153.444 196.192 150.279 197.38 147.442C198.609 144.606 200.289 142.201 202.42 140.228C204.55 138.214 207.05 136.672 209.918 135.603C212.786 134.534 215.879 134 219.198 134C222.271 134 225.282 134.555 228.232 135.665C231.223 136.734 233.64 138.316 235.484 140.413L228.355 147.566C227.372 146.209 226.081 145.202 224.483 144.544C222.885 143.887 221.246 143.558 219.566 143.558C217.723 143.558 216.022 143.907 214.465 144.606C212.949 145.264 211.638 146.189 210.532 147.381C209.426 148.573 208.566 149.991 207.951 151.635C207.336 153.239 207.029 155.006 207.029 156.938C207.029 158.912 207.336 160.72 207.951 162.365C208.566 164.009 209.405 165.427 210.471 166.619C211.577 167.77 212.888 168.675 214.404 169.332C215.92 169.99 217.579 170.319 219.382 170.319C221.472 170.319 223.295 169.908 224.852 169.086C226.409 168.264 227.658 167.195 228.601 165.879L235.914 172.786Z" fill="black"/>
<path d="M267.03 178.828L250.866 158.727H250.743V178.828H240.418V135.172H250.743V152.93H250.928L266.476 135.172H279.628L260.884 155.273L280.735 178.828H267.03Z" fill="black"/>
<path d="M312.89 178.828L309.51 170.257H292.671L289.475 178.828H278.044L296.297 135.172H306.499L324.567 178.828H312.89ZM301.213 146.826L295.682 161.81H306.622L301.213 146.826Z" fill="black"/>
<path d="M343.124 144.174V178.828H332.615V144.174H320.323V135.172H355.416V144.174H343.124Z" fill="black"/>
<path d="M387.684 178.828V160.576H370.722V178.828H360.213V135.172H370.722V151.697H387.684V135.172H398.194V178.828H387.684Z" fill="black"/>
<path d="M452.502 156.815C452.502 160.268 451.908 163.433 450.72 166.311C449.532 169.147 447.872 171.593 445.742 173.649C443.652 175.663 441.153 177.225 438.244 178.335C435.335 179.445 432.18 180 428.779 180C425.379 180 422.224 179.445 419.315 178.335C416.447 177.225 413.948 175.663 411.817 173.649C409.727 171.593 408.089 169.147 406.9 166.311C405.712 163.433 405.118 160.268 405.118 156.815C405.118 153.321 405.712 150.176 406.9 147.381C408.089 144.544 409.727 142.139 411.817 140.166C413.948 138.193 416.447 136.672 419.315 135.603C422.224 134.534 425.379 134 428.779 134C432.18 134 435.335 134.534 438.244 135.603C441.153 136.672 443.652 138.193 445.742 140.166C447.872 142.139 449.532 144.544 450.72 147.381C451.908 150.176 452.502 153.321 452.502 156.815ZM441.255 156.815C441.255 154.924 440.948 153.156 440.333 151.512C439.719 149.868 438.858 148.47 437.752 147.319C436.687 146.127 435.376 145.202 433.819 144.544C432.303 143.845 430.623 143.496 428.779 143.496C426.936 143.496 425.256 143.845 423.74 144.544C422.224 145.202 420.913 146.127 419.807 147.319C418.7 148.47 417.84 149.868 417.225 151.512C416.652 153.156 416.365 154.924 416.365 156.815C416.365 158.788 416.672 160.618 417.287 162.303C417.901 163.947 418.741 165.366 419.807 166.558C420.913 167.75 422.224 168.695 423.74 169.394C425.256 170.052 426.936 170.381 428.779 170.381C430.623 170.381 432.303 170.052 433.819 169.394C435.335 168.695 436.646 167.75 437.752 166.558C438.858 165.366 439.719 163.947 440.333 162.303C440.948 160.618 441.255 158.788 441.255 156.815Z" fill="black"/>
<path d="M487.077 178.828L469.562 150.279H469.377L469.623 178.828H459.421V135.172H471.406L488.859 163.66H489.044L488.798 135.172H499V178.828H487.077Z" fill="black"/>
</svg>
