<svg xmlns="http://www.w3.org/2000/svg" width="211" height="204" fill="none"><path fill="url(#a)" d="M38.241 34.639c8.932-3.428 18.172-4.517 27.059-3.575 4.942-7.326 12.683-13.093 23.43-15.297 36.494-7.484 73.811 9.272 92.571 41.424 3.926 6.728 5.505 13.546 5.311 20.017a39.336 39.336 0 0 1 7.547 12.345l13.691 35.842c7.739 20.26-2.322 43.082-22.696 50.9l-35.727 13.709a39.289 39.289 0 0 1-14.179 2.627c-4.677 4.453-10.802 7.823-18.447 9.391-36.493 7.484-73.81-9.272-92.57-41.424-5.517-9.455-6.4-19.088-4.241-27.685-6.665-6.012-12.044-13.648-15.463-22.599-11.52-30.157 3.475-64.072 33.714-75.675Z"/><path fill="#fff" d="M38.241 20.636c8.932-3.427 18.172-4.517 27.059-3.575C70.242 9.735 77.983 3.968 88.73 1.764c36.494-7.483 73.811 9.272 92.571 41.425 3.926 6.728 5.505 13.546 5.311 20.017a39.335 39.335 0 0 1 7.547 12.345l13.691 35.842c7.739 20.259-2.322 43.081-22.696 50.899l-35.727 13.71a39.289 39.289 0 0 1-14.179 2.627c-4.677 4.452-10.802 7.823-18.447 9.391-36.493 7.483-73.81-9.272-92.57-41.425-5.517-9.455-6.4-19.088-4.241-27.684-6.665-6.012-12.044-13.649-15.463-22.6-11.52-30.157 3.475-64.071 33.714-75.675Z"/><path fill="#000" d="M85.85 67.6c5.641 14.765-1.718 31.314-16.436 36.961-14.718 5.648-31.222-1.743-36.862-16.509-5.64-14.765 1.719-31.314 16.437-36.962C63.707 45.444 80.21 52.834 85.85 67.6ZM112.835 109.154c-1.86-4.868.567-10.324 5.419-12.186l35.727-13.71c4.852-1.861 10.294.576 12.153 5.444l13.691 35.841c1.86 4.869-.567 10.324-5.419 12.186l-35.727 13.71c-4.852 1.862-10.293-.575-12.153-5.443l-13.691-35.842ZM150.671 72.629c4.853-1.862 7.344-7.376 4.718-11.876C143.091 39.677 118.603 28.71 94.757 33.6c-5.09 1.043-7.517 6.587-5.657 11.455l13.691 35.841c1.86 4.868 7.301 7.305 12.153 5.443l35.727-13.709ZM54.86 122.047c-4.852 1.862-7.343 7.375-4.718 11.875 12.298 21.077 36.787 32.045 60.632 27.155 5.091-1.044 7.517-6.587 5.657-11.455L102.74 113.78c-1.859-4.868-7.3-7.305-12.153-5.443l-35.727 13.71Z"/><defs><linearGradient id="a" x1="227.79" x2="-14.644" y1="103.979" y2="125.779" gradientUnits="userSpaceOnUse"><stop stop-color="#52D26E"/><stop offset=".305" stop-color="#FFCF56"/><stop offset=".635" stop-color="#FF3D3D"/><stop offset="1" stop-color="#3C7ADF"/></linearGradient></defs></svg>