<svg width="1523" height="20" viewBox="0 0 1523 20" fill="none" xmlns="http://www.w3.org/2000/svg">
<path d="M2 12.245L3 11.129L4 9.9899L5 8.85101L6 7.73557L7 6.66623L8 5.66483L9 4.75174L10 3.94559L11 3.26279L12 2.71722L13 2.32004L14 2.07935L15 2L16 2.08368L17 2.32861L18 2.72983L19 3.27917L20 3.96545L21 4.77469L22 5.69037L23 6.69385L24 7.76468L25 8.88104L26 10.0202L27 11.159L28 12.2741L29 13.343L30 14.3437L31 15.2559L32 16.061L33 16.7427L34 17.287L35 17.6828L36 17.9221L37 18L38 17.9149L39 17.6685L40 17.2659L41 16.7153L42 16.0279L43 15.2177L44 14.3011L45 13.2969L46 12.2256L47 11.1089L48 9.96967L49 8.83099L50 7.71616L51 6.64786L52 5.64783L53 4.73648L54 3.93237L55 3.25189L56 2.70886L57 2.31442L58 2.07654L59 2.00009L60 2.08661L61 2.33438L62 2.73831L63 3.29019L64 3.97876L65 4.79001L66 5.70743L67 6.71228L68 7.78412L69 8.90109L70 10.0405L71 11.179L72 12.2935L73 13.3613L74 14.3607L75 15.2711L76 16.0742L77 16.7535L78 17.2953L79 17.6884L80 17.9249L81 17.9999L82 17.9119L83 17.6627L84 17.2574L85 16.7043L86 16.0146L87 15.2023L88 14.2841L89 13.2785L90 12.2062L91 11.0889L92 9.94943L93 8.81097L94 7.69678L95 6.62949L96 5.63086L97 4.72125L98 3.91922L99 3.24103L100 2.70056L101 2.30881L102 2.07376L103 2.00018L104 2.0896L105 2.34018L106 2.74683L107 3.30121L108 3.9921L109 4.80539L110 5.72452L111 6.73071L112 7.80356L113 8.92114L114 10.0607L115 11.199L116 12.3129L117 13.3797L118 14.3776L119 15.2863L120 16.0874L121 16.7644L122 17.3036L123 17.694L124 17.9276L125 17.9997L126 17.9089L127 17.6569L128 17.2489L129 16.6932L130 16.0012L131 15.1869L132 14.2669L133 13.26L134 12.1867L135 11.0688L136 9.9292L137 8.79099L138 7.6774L139 6.61115L140 5.61392L141 4.70609L142 3.90607L143 3.23022L144 2.69232L145 2.30328L146 2.07104L147 2.00037L148 2.09265L149 2.34604L150 2.75537L151 3.31229L152 4.00549L153 4.8208L154 5.74161L155 6.74921L156 7.82303L157 8.94119L158 10.0809L159 11.219L160 12.3323L161 13.398L162 14.3945L163 15.3015L164 16.1005L165 16.7751L166 17.3118L167 17.6995L168 17.9303L169 17.9995L170 17.9058L171 17.651L172 17.2403L173 16.6821L174 15.9878L175 15.1715L176 14.2498L177 13.2415L178 12.1672L179 11.0488L180 9.90897L181 8.771L182 7.65805L183 6.59283L184 5.59702L185 4.69092L186 3.89301L187 3.21948L188 2.68411L189 2.29779L190 2.06839L191 2.00058L192 2.09573L193 2.35196L194 2.76398L195 3.32343L196 4.01889L197 4.83621L198 5.75876L199 6.7677L200 7.8425L201 8.96124L202 10.1012L203 11.239L204 12.3516L205 13.4163L206 14.4114L207 15.3166L208 16.1135L209 16.7859L210 17.32L211 17.705L212 17.9329L213 17.9993L214 17.9027L215 17.6451L216 17.2317L217 16.671L218 15.9744L219 15.156L220 14.2327L221 13.2231L222 12.1478L223 11.0287L224 9.88873L225 8.75101L226 7.6387L227 6.57452L228 5.58014L229 4.67581L230 3.87994L231 3.20877L232 2.67593L233 2.29233L234 2.06577L235 2.00085L236 2.09891L237 2.35791L238 2.77264L239 3.33459L240 4.03235L241 4.85168L242 5.77594L243 6.78622L244 7.86197L245 8.98129L246 10.1214L247 11.259L248 12.3709L249 13.4346L250 14.4283L251 15.3317L252 16.1266L253 16.7966L254 17.3281L255 17.7104L256 17.9355L257 17.999L258 17.8995L259 17.6391L260 17.223L261 16.6598L262 15.9609L263 15.1406L264 14.2155L265 13.2045L266 12.1283L267 11.0087L268 9.8685L269 8.73102L270 7.61938L271 6.55627L272 5.56329L273 4.66074L274 3.86694L275 3.19809L276 2.66782L277 2.28696L278 2.0632L279 2.00116L280 2.10208L281 2.36392L282 2.78134L283 3.34579L284 4.04584L285 4.86719L286 5.79312L287 6.80475L288 7.88147L289 9.00137L290 10.1416L291 11.279L292 12.3903L293 13.4529L294 14.4451L295 15.3468L296 16.1396L297 16.8072L298 17.3362L299 17.7157L300 17.938L301 17.9987L302 17.8963L303 17.6331L304 17.2143L305 16.6486L306 15.9474L307 15.125L308 14.1983L309 13.186L310 12.1088L311 10.9886L312 9.84827L313 8.71106L314 7.6001L315 6.53802L316 5.54648L317 4.64569L318 3.85397L319 3.18747L320 2.65976L321 2.28159L322 2.0607L323 2.00153L324 2.10535L325 2.36996L326 2.79007L327 3.35706L328 4.05939L329 4.88272L330 5.81033L331 6.8233L332 7.901L333 9.02145L334 10.1618L335 11.299L336 12.4096L337 13.4711L338 14.4619L339 15.3618L340 16.1525L341 16.8178L342 17.3443L343 17.721L344 17.9406L345 17.9983L346 17.893L347 17.627L348 17.2055L349 16.6373L350 15.9338L351 15.1095L352 14.181L353 13.1674L354 12.0892L355 10.9685L356 9.82803L357 8.69107L358 7.58078L359 6.51978L360 5.52969L361 4.63068L362 3.84103L363 3.17688L364 2.65173L365 2.27631L366 2.05823L367 2.00195L368 2.10864L369 2.3761L370 2.79886L371 3.36835L372 4.07294L373 4.89828L374 5.82761L375 6.84189L376 7.92053L377 9.04153L378 10.1821L379 11.3189L380 12.4289L381 13.4893L382 14.4787L383 15.3768L384 16.1654L385 16.8284L386 17.3523L387 17.7263L388 17.943L389 17.9978L390 17.8897L391 17.6208L392 17.1967L393 16.626L394 15.9203L395 15.0939L396 14.1638L397 13.1488L398 12.0697L399 10.9484L400 9.80783L401 8.67114L402 7.56152L403 6.50159L404 5.51291L405 4.61569L406 3.82812L407 3.16635L408 2.64377L409 2.27106L410 2.05582L411 2.00244L412 2.11197L413 2.38223L414 2.80771L415 3.3797L416 4.08655L417 4.91391L418 5.84488L419 6.8605L420 7.94006L421 9.06161L422 10.2023L423 11.3388L424 12.4481L425 13.5075L426 14.4955L427 15.3918L428 16.1783L429 16.8389L430 17.3602L431 17.7315L432 17.9454L433 17.9973L434 17.8863L435 17.6147L436 17.1879L437 16.6146L438 15.9066L439 15.0783L440 14.1465L441 13.1302L442 12.0501L443 10.9283L444 9.7876L445 8.65118L446 7.54227L447 6.4834L448 5.49619L449 4.60074L450 3.81528L451 3.15585L452 2.63583L453 2.26587L454 2.05347L455 2.00296L456 2.11539L457 2.38843L458 2.81659L459 3.39105L460 4.10019L461 4.92953L462 5.86218L463 6.87912L464 7.95963L465 9.08173L466 10.2225L467 11.3588L468 12.4674L469 13.5257L470 14.5122L471 15.4067L472 16.1911L473 16.8494L474 17.3681L475 17.7367L476 17.9477L477 17.9968L478 17.8829L479 17.6084L480 17.179L481 16.6032L482 15.893L483 15.0627L484 14.1292L485 13.1116L486 12.0306L487 10.9082L488 9.76736L489 8.63126L490 7.52301L491 6.46524L492 5.47949L493 4.58582L494 3.80246L495 3.14539L496 2.62796L497 2.26071L498 2.05115L499 2.00354L500 2.11884L501 2.39468L502 2.8255L503 3.4025L504 4.11389L505 4.94519L506 5.87949L507 6.89774L508 7.97919L509 9.10184L510 10.2427L511 11.3787L512 12.4866L513 13.5438L514 14.5289L515 15.4216L516 16.2039L517 16.8598L518 17.376L519 17.7419L520 17.95L521 17.9962L522 17.8794L523 17.6022L524 17.17L525 16.5918L526 15.8793L527 15.047L528 14.1118L529 13.0929L530 12.011L531 10.8881L532 9.74713L533 8.61133L534 7.50378L535 6.44711L536 5.4628L537 4.57095L538 3.7897L539 3.13498L540 2.62012L541 2.25562L542 2.04889L543 2.00415L544 2.12231L545 2.401L546 2.83447L547 3.41394L548 4.12759L549 4.96091L550 5.89685L551 6.91641L552 7.99878L553 9.12192L554 10.263L555 11.3987L556 12.5058L557 13.562L558 14.5455L559 15.4365L560 16.2167L561 16.8702L562 17.3838L563 17.7469L564 17.9522L565 17.9955L566 17.8759L567 17.5958L568 17.161L569 16.5803L570 15.8655L571 15.0312L572 14.0945L573 13.0742L574 11.9914L575 10.868L576 9.72693L577 8.5914L578 7.48456L579 6.42899L580 5.44617L581 4.55609L582 3.77698L583 3.1246L584 2.61234L585 2.25058L586 2.04669L587 2.00482L588 2.12589L589 2.40735L590 2.84351L591 3.42545L592 4.14136L593 4.97662L594 5.91425L595 6.93509L596 8.01837L597 9.14203L598 10.2832L599 11.4185L600 12.525L601 13.5801L602 14.5622L603 15.4513L604 16.2294L605 16.8806L606 17.3915L607 17.752L608 17.9544L609 17.9948L610 17.8723L611 17.5894L612 17.152L613 16.5688L614 15.8517L615 15.0155L616 14.0771L617 13.0556L618 11.9718L619 10.8479L620 9.7067L621 8.57147L622 7.46536L623 6.41089L624 5.42953L625 4.54129L626 3.76428L627 3.11429L628 2.60458L629 2.24557L630 2.04453L631 2.00555L632 2.12949L633 2.41376L634 2.85257L635 3.43701L636 4.15515L637 4.9924L638 5.93164L639 6.9538L640 8.03799L641 9.16217L642 10.3034L643 11.4385L644 12.5442L645 13.5981L646 14.5788L647 15.4661L648 16.2421L649 16.8909L650 17.3993L651 17.7569L652 17.9565L653 17.994L654 17.8687L655 17.583L656 17.1429L657 16.5572L658 15.8379L659 14.9997L660 14.0596L661 13.0369L662 11.9522L663 10.8278L664 9.68649L665 8.55157L666 7.4462L667 6.39282L668 5.41293L669 4.52652L670 3.75162L671 3.104L672 2.59689L673 2.24063L674 2.04242L675 2.00635L676 2.13312L677 2.4202L678 2.86166L679 3.44861L680 4.16898L681 5.00818L682 5.94907L683 6.9725L684 8.05762L685 9.18228L686 10.3236L687 11.4584L688 12.5634L689 13.6162L690 14.5953L691 15.4808L692 16.2547L693 16.9011L694 17.4069L695 17.7618L696 17.9586L697 17.9933L698 17.865L699 17.5766L700 17.1338L701 16.5456L702 15.8241L703 14.9839L704 14.0422L705 13.0181L706 11.9326L707 10.8076L708 9.66626L709 8.53168L710 7.42703L711 6.37479L712 5.39639L713 4.51178L714 3.73901L715 3.09378L716 2.58926L717 2.23572L718 2.04037L719 2.00717L720 2.13684L721 2.4267L722 2.87082L723 3.46024L724 4.18286L725 5.02402L726 5.96652L727 6.99124L728 8.07724L729 9.20242L730 10.3438L731 11.4782L732 12.5826L733 13.6342L734 14.6119L735 15.4956L736 16.2673L737 16.9113L738 17.4146L739 17.7667L740 17.9606L741 17.9924L742 17.8613L743 17.57L744 17.1246L745 16.5339L746 15.8102L747 14.9681L748 14.0247L749 12.9994L750 11.9129L751 10.7875L752 9.64606L753 8.51181L754 7.40787L755 6.35675L756 5.37985L757 4.49707L758 3.72644L759 3.08359L760 2.58167L761 2.23087L762 2.03836L763 2.00806L764 2.14059L765 2.43323L766 2.88004L767 3.47189L768 4.19678L769 5.03986L770 5.98401L771 7.00998L772 8.09689L773 9.22253L774 10.364L775 11.4981L776 12.6017L777 13.6523L778 14.6284L779 15.5103L780 16.2798L781 16.9215L782 17.4221L783 17.7715L784 17.9626L785 17.9915L786 17.8575L787 17.5635L788 17.1154L789 16.5222L790 15.7963L791 14.9522L792 14.0072L793 12.9806L794 11.8933L795 10.7674L796 9.62585L797 8.49194L798 7.38873L799 6.33875L800 5.36334L801 4.48242L802 3.7139L803 3.07346L804 2.5741L805 2.22607L806 2.03641L807 2.009L808 2.14438L809 2.43982L810 2.88928L811 3.48361L812 4.21072L813 5.05576L814 6.00153L815 7.02878L816 8.11655L817 9.24268L818 10.3842L819 11.518L820 12.6208L821 13.6703L822 14.6449L823 15.5249L824 16.2924L825 16.9316L826 17.4297L827 17.7763L828 17.9645L829 17.9905L830 17.8537L831 17.5569L832 17.1061L833 16.5105L834 15.7823L835 14.9363L836 13.9897L837 12.9619L838 11.8736L839 10.7473L840 9.60565L841 8.47208L842 7.36963L843 6.32077L844 5.34689L845 4.46777L846 3.70142L847 3.06335L848 2.56662L849 2.22131L850 2.03452L851 2.00998L852 2.14822L853 2.44647L854 2.89859L855 3.49536L856 4.2247L857 5.07169L858 6.01907L859 7.04755L860 8.1362L861 9.26282L862 10.4044L863 11.5379L864 12.6399L865 13.6882L866 14.6613L867 15.5395L868 16.3048L869 16.9417L870 17.4371L871 17.781L872 17.9664L873 17.9895L874 17.8498L875 17.5502L876 17.0968L877 16.4987L878 15.7683L879 14.9203L880 13.9722L881 12.943L882 11.8539L883 10.7271L884 9.58542L885 8.45221L886 7.35052L887 6.30283L888 5.33044L889 4.45319L890 3.68893L891 3.05328L892 2.55914L893 2.21661L894 2.03265L895 2.01102L896 2.15213L897 2.45316L898 2.90793L899 3.50717L900 4.23871L901 5.08762L902 6.03662L903 7.06638L904 8.15588L905 9.28299L906 10.4247L907 11.5577L908 12.659L909 13.7061L910 14.6778L911 15.5541L912 16.3173L913 16.9517L914 17.4445L915 17.7857L916 17.9683L917 17.9885L918 17.8459L919 17.5435L920 17.0874L921 16.4869L922 15.7543L923 14.9044L924 13.9546L925 12.9242L926 11.8343L927 10.7069L928 9.56522L929 8.43237L930 7.33145L931 6.28488L932 5.31403L933 4.43863L934 3.67654L935 3.04327L936 2.55176L937 2.21198L938 2.03085L939 2.01208L940 2.1561L941 2.45987L942 2.9173L943 3.51901L944 4.25278L945 5.10361L946 6.05423L947 7.08521L948 8.17557L949 9.30313L950 10.4449L951 11.5775L952 12.6781L953 13.7241L954 14.6942L955 15.5686L956 16.3297L957 16.9617L958 17.4519L959 17.7903L960 17.97L961 17.9873L962 17.8419L963 17.5367L964 17.078L965 16.475L966 15.7402L967 14.8884L968 13.937L969 12.9054L970 11.8146L971 10.6868L972 9.54504L973 8.41254L974 7.31238L975 6.26697L976 5.29764L977 4.4241L978 3.66415L979 3.03329L980 2.54437L981 2.20737L982 2.02911L983 2.01324L984 2.1601L985 2.46667L986 2.92673L987 3.53088L988 4.26685L989 5.11963L990 6.07184L991 7.10406L992 8.19528L993 9.32327L994 10.4651L995 11.5974L996 12.6971L997 13.742L998 14.7105L999 15.5832L1000 16.342L1001 16.9716L1002 17.4593L1003 17.7949L1004 17.9717L1005 17.9862L1006 17.8379L1007 17.5299L1008 17.0685L1009 16.4631L1010 15.7261L1011 14.8723L1012 13.9193L1013 12.8865L1014 11.7949L1015 10.6666L1016 9.52484L1017 8.3927L1018 7.29333L1019 6.24911L1020 5.28128L1021 4.40961L1022 3.65182L1023 3.02338L1024 2.53708L1025 2.20282L1026 2.0274L1027 2.01443L1028 2.16415L1029 2.47351L1030 2.93622L1031 3.54282L1032 4.28098L1033 5.13568L1034 6.08948L1035 7.12292L1036 8.215L1037 9.34344L1038 10.4853L1039 11.6172L1040 12.7162L1041 13.7598L1042 14.7269L1043 15.5976L1044 16.3543L1045 16.9816L1046 17.4666L1047 17.7994L1048 17.9734L1049 17.985L1050 17.8338L1051 17.5231L1052 17.0591L1053 16.4512L1054 15.7119L1055 14.8563L1056 13.9017L1057 12.8676L1058 11.7751L1059 10.6465L1060 9.50464L1061 8.37289L1062 7.27429L1063 6.23123L1064 5.26495L1065 4.39514L1066 3.63953L1067 3.01352L1068 2.52982L1069 2.1983L1070 2.02576L1071 2.01566L1072 2.16824L1073 2.48038L1074 2.94571L1075 3.55478L1076 4.29517L1077 5.15176L1078 6.10712L1079 7.14182L1080 8.23474L1081 9.36362L1082 10.5055L1083 11.637L1084 12.7352L1085 13.7777L1086 14.7432L1087 15.6121L1088 16.3666L1089 16.9914L1090 17.4738L1091 17.8039L1092 17.975L1093 17.9837L1094 17.8297L1095 17.5161L1096 17.0495L1097 16.4392L1098 15.6978L1099 14.8402L1100 13.884L1101 12.8487L1102 11.7554L1103 10.6263L1104 9.48444L1105 8.35309L1106 7.25528L1107 6.21341L1108 5.24869L1109 4.38074L1110 3.62729L1111 3.00366L1112 2.52258L1113 2.19385L1114 2.02417L1115 2.01697L1116 2.17239L1117 2.4873L1118 2.95529L1119 3.5668L1120 4.30936L1121 5.16785L1122 6.12482L1123 7.16071L1124 8.25446L1125 9.38379L1126 10.5256L1127 11.6568L1128 12.7542L1129 13.7955L1130 14.7595L1131 15.6265L1132 16.3788L1133 17.0012L1134 17.481L1135 17.8083L1136 17.9766L1137 17.9824L1138 17.8255L1139 17.5092L1140 17.0399L1141 16.4272L1142 15.6835L1143 14.8241L1144 13.8663L1145 12.8298L1146 11.7357L1147 10.6061L1148 9.46426L1149 8.33331L1150 7.2363L1151 6.19559L1152 5.23242L1153 4.36636L1154 3.61508L1155 2.9939L1156 2.51541L1157 2.18945L1158 2.02261L1159 2.01831L1160 2.17661L1161 2.49429L1162 2.9649L1163 3.57883L1164 4.32361L1165 5.18399L1166 6.14252L1167 7.17966L1168 8.27423L1169 9.40396L1170 10.5458L1171 11.6766L1172 12.7732L1173 13.8133L1174 14.7757L1175 15.6408L1176 16.391L1177 17.011L1178 17.4881L1179 17.8127L1180 17.9781L1181 17.981L1182 17.8213L1183 17.5022L1184 17.0303L1185 16.4151L1186 15.6693L1187 14.8079L1188 13.8486L1189 12.8109L1190 11.7159L1191 10.586L1192 9.44406L1193 8.31351L1194 7.21732L1195 6.17783L1196 5.21619L1197 4.35202L1198 3.60291L1199 2.98413L1200 2.5083L1201 2.18509L1202 2.02112L1203 2.01968L1204 2.18085L1205 2.50131L1206 2.97455L1207 3.59091L1208 4.33786L1209 5.20016L1210 6.16028L1211 7.19858L1212 8.29398L1213 9.42413L1214 10.566L1215 11.6964L1216 12.7922L1217 13.8311L1218 14.7919L1219 15.6552L1220 16.4032L1221 17.0207L1222 17.4952L1223 17.817L1224 17.9796L1225 17.9796L1226 17.817L1227 17.4951L1228 17.0206L1229 16.403L1230 15.655L1231 14.7917L1232 13.8309L1233 12.7919L1234 11.6961L1235 10.5658L1236 9.42389L1237 8.29373L1238 7.19836L1239 6.16006L1240 5.19998L1241 4.33771L1242 3.59079L1243 2.97443L1244 2.50122L1245 2.18079L1246 2.01968L1247 2.02115L1248 2.18515L1249 2.50839L1250 2.98425L1251 3.60306L1252 4.35217L1253 5.21637L1254 6.17804L1255 7.21753L1256 8.31375L1257 9.44431L1258 10.5862L1259 11.7161L1260 12.8111L1261 13.8488L1262 14.8081L1263 15.6694L1264 16.4153L1265 17.0304L1266 17.5023L1267 17.8213L1268 17.981L1269 17.9781L1270 17.8127L1271 17.4881L1272 17.0109L1273 16.3909L1274 15.6407L1275 14.7755L1276 13.8131L1277 12.773L1278 11.6764L1279 10.5456L1280 9.40372L1281 8.27399L1282 7.17941L1283 6.1423L1284 5.18381L1285 4.32343L1286 3.5787L1287 2.96478L1288 2.4942L1289 2.17654L1290 2.01828L1291 2.02264L1292 2.18951L1293 2.5155L1294 2.99399L1295 3.61523L1296 4.36652L1297 5.2326L1298 6.1958L1299 7.23651L1300 8.33353L1301 9.46451L1302 10.6064L1303 11.7359L1304 12.83L1305 13.8665L1306 14.8243L1307 15.6837L1308 16.4273L1309 17.04L1310 17.5093L1311 17.8256L1312 17.9824L1313 17.9766L1314 17.8083L1315 17.4809L1316 17.0011L1317 16.3787L1318 15.6263L1319 14.7593L1320 13.7953L1321 12.754L1322 11.6566L1323 10.5254L1324 9.38354L1325 8.25424L1326 7.16049L1327 6.1246L1328 5.16766L1329 4.30917L1330 3.56665L1331 2.95517L1332 2.48724L1333 2.17233L1334 2.01694L1335 2.02417L1336 2.19391L1337 2.52267L1338 3.00378L1339 3.62744L1340 4.38092L1341 5.24887L1342 6.21362L1343 7.25552L1344 8.35333L1345 9.48468L1346 10.6266L1347 11.7556L1348 12.849L1349 13.8842L1350 14.8404L1351 15.6979L1352 16.4394L1353 17.0496L1354 17.5162L1355 17.8297L1356 17.9837L1357 17.975L1358 17.8039L1359 17.4737L1360 16.9913L1361 16.3665L1362 15.6119L1363 14.743L1364 13.7775L1365 12.735L1366 11.6368L1367 10.5052L1368 9.36337L1369 8.2345L1370 7.1416L1371 6.1069L1372 5.15155L1373 4.29498L1374 3.55463L1375 2.94562L1376 2.48032L1377 2.16818L1378 2.01566L1379 2.02579L1380 2.19836L1381 2.52991L1382 3.01361L1383 3.63968L1384 4.39532L1385 5.26517L1386 6.23145L1387 7.27454L1388 8.37314L1389 9.50488L1390 10.6467L1391 11.7754L1392 12.8679L1393 13.9019L1394 14.8565L1395 15.7121L1396 16.4514L1397 17.0591L1398 17.5231L1399 17.8339L1400 17.985L1401 17.9734L1402 17.7994L1403 17.4665L1404 16.9814L1405 16.3542L1406 15.5974L1407 14.7267L1408 13.7596L1409 12.7159L1410 11.617L1411 10.485L1412 9.3432L1413 8.21475L1414 7.12271L1415 6.08926L1416 5.1355L1417 4.28082L1418 3.54266L1419 2.9361L1420 2.47342L1421 2.16409L1422 2.0144L1423 2.02744L1424 2.20285L1425 2.53717L1426 3.0235L1427 3.65198L1428 4.40979L1429 5.28149L1430 6.24933L1431 7.29355L1432 8.39294L1433 9.52509L1434 10.6669L1435 11.7951L1436 12.8867L1437 13.9196L1438 14.8726L1439 15.7263L1440 16.4633L1441 17.0687L1442 17.53L1443 17.838L1444 17.9862L1445 17.9717L1446 17.7949L1447 17.4592L1448 16.9716L1449 16.3419L1450 15.583L1451 14.7104L1452 13.7418L1453 12.6969L1454 11.5971L1455 10.4648L1456 9.32306L1457 8.19504L1458 7.10382L1459 6.07162L1460 5.11945L1461 4.26669L1462 3.53076L1463 2.92661L1464 2.46658L1465 2.16003L1466 2.01321L1467 2.02911L1468 2.20743L1469 2.54446L1470 3.03342L1471 3.66431L1472 4.42429L1473 5.29782L1474 6.26718L1475 7.31262L1476 8.41278L1477 9.54526L1478 10.687L1479 11.8148L1480 12.9056L1481 13.9372L1482 14.8886L1483 15.7404L1484 16.4752L1485 17.0781L1486 17.5368L1487 17.842L1488 17.9874L1489 17.97L1490 17.7903L1491 17.4518L1492 16.9616L1493 16.3295L1494 15.5685L1495 14.694L1496 13.7238L1497 12.6779L1498 11.5773L1499 10.4446L1500 9.30289L1501 8.17535L1502 7.08499L1503 6.05402L1504 5.10342L1505 4.25259L1506 3.51886L1507 2.91718L1508 2.45981L1509 2.15604L1510 2.01208L1511 2.03088L1512 2.21201L1513 2.55182L1514 3.0434L1515 3.6767L1516 4.43881L1517 5.31421L1518 6.2851L1519 7.33167L1520 8.43262L1521 9.56546" stroke="black" stroke-width="3" stroke-miterlimit="10" stroke-linecap="round" stroke-linejoin="round"/>
</svg>
