<svg width="768" height="294" viewBox="0 0 768 294" fill="none" xmlns="http://www.w3.org/2000/svg">
<path d="M241.395 147.588V91.1292H264.677C268.233 91.1292 271.359 91.8551 274.054 93.3069C276.802 94.7049 278.931 96.6944 280.44 99.2754C282.003 101.856 282.784 104.921 282.784 108.47V109.599C282.784 113.094 281.976 116.159 280.359 118.794C278.796 121.375 276.641 123.391 273.892 124.843C271.198 126.241 268.126 126.94 264.677 126.94H252.066V147.588H241.395ZM252.066 117.262H263.626C266.159 117.262 268.207 116.563 269.769 115.165C271.332 113.767 272.114 111.858 272.114 109.438V108.631C272.114 106.212 271.332 104.303 269.769 102.905C268.207 101.507 266.159 100.808 263.626 100.808H252.066V117.262Z" fill="black"/>
<path d="M308.636 148.717C304.648 148.717 301.064 147.911 297.885 146.298C294.705 144.685 292.199 142.346 290.367 139.281C288.534 136.216 287.618 132.532 287.618 128.231V126.94C287.618 122.639 288.534 118.955 290.367 115.89C292.199 112.826 294.705 110.487 297.885 108.873C301.064 107.26 304.648 106.454 308.636 106.454C312.624 106.454 316.208 107.26 319.388 108.873C322.567 110.487 325.073 112.826 326.906 115.89C328.738 118.955 329.654 122.639 329.654 126.94V128.231C329.654 132.532 328.738 136.216 326.906 139.281C325.073 142.346 322.567 144.685 319.388 146.298C316.208 147.911 312.624 148.717 308.636 148.717ZM308.636 139.684C311.762 139.684 314.349 138.689 316.397 136.7C318.444 134.656 319.468 131.753 319.468 127.989V127.182C319.468 123.418 318.444 120.542 316.397 118.552C314.403 116.509 311.816 115.487 308.636 115.487C305.51 115.487 302.924 116.509 300.876 118.552C298.828 120.542 297.804 123.418 297.804 127.182V127.989C297.804 131.753 298.828 134.656 300.876 136.7C302.924 138.689 305.51 139.684 308.636 139.684Z" fill="black"/>
<path d="M339.056 147.588V91.1292H349.241V147.588H339.056Z" fill="black"/>
<path d="M372.978 148.717C370.121 148.717 367.561 148.233 365.298 147.266C363.034 146.244 361.229 144.792 359.882 142.91C358.588 140.974 357.942 138.635 357.942 135.893C357.942 133.151 358.588 130.866 359.882 129.037C361.229 127.155 363.061 125.757 365.379 124.843C367.75 123.875 370.445 123.391 373.463 123.391H384.457V121.133C384.457 119.251 383.864 117.719 382.678 116.536C381.493 115.299 379.606 114.681 377.019 114.681C374.487 114.681 372.6 115.272 371.361 116.455C370.121 117.584 369.313 119.063 368.936 120.891L359.558 117.746C360.205 115.702 361.229 113.847 362.63 112.18C364.085 110.46 365.999 109.089 368.37 108.067C370.795 106.991 373.732 106.454 377.181 106.454C382.463 106.454 386.639 107.771 389.711 110.406C392.783 113.041 394.319 116.858 394.319 121.859V136.78C394.319 138.393 395.073 139.2 396.582 139.2H399.816V147.588H393.025C391.031 147.588 389.388 147.104 388.094 146.136C386.801 145.169 386.154 143.878 386.154 142.265V142.184H384.618C384.403 142.83 383.918 143.69 383.163 144.765C382.409 145.787 381.223 146.701 379.606 147.508C377.99 148.314 375.78 148.717 372.978 148.717ZM374.756 140.49C377.612 140.49 379.93 139.711 381.708 138.151C383.54 136.538 384.457 134.414 384.457 131.78V130.973H374.19C372.304 130.973 370.822 131.376 369.744 132.183C368.666 132.99 368.127 134.119 368.127 135.57C368.127 137.022 368.693 138.205 369.825 139.119C370.957 140.033 372.6 140.49 374.756 140.49Z" fill="black"/>
<path d="M407.263 147.588V107.583H417.287V112.1H418.742C419.335 110.487 420.305 109.304 421.652 108.551C423.053 107.798 424.67 107.422 426.502 107.422H431.353V116.455H426.341C423.754 116.455 421.625 117.154 419.955 118.552C418.284 119.896 417.449 121.993 417.449 124.843V147.588H407.263Z" fill="black"/>
<path d="M443.679 163.719V154.847H465.506C467.015 154.847 467.769 154.041 467.769 152.428V142.346H466.314C465.883 143.26 465.209 144.174 464.293 145.088C463.377 146.002 462.137 146.755 460.575 147.346C459.012 147.938 457.018 148.233 454.592 148.233C451.467 148.233 448.718 147.534 446.347 146.136C444.03 144.685 442.224 142.695 440.931 140.168C439.637 137.641 438.991 134.737 438.991 131.457V107.583H449.176V130.65C449.176 133.662 449.904 135.92 451.359 137.426C452.868 138.931 454.997 139.684 457.745 139.684C460.871 139.684 463.296 138.662 465.021 136.619C466.745 134.522 467.607 131.618 467.607 127.908V107.583H477.793V154.686C477.793 157.428 476.985 159.606 475.368 161.219C473.751 162.886 471.595 163.719 468.901 163.719H443.679Z" fill="black"/>
<path d="M487.672 147.588V135.49L509.66 117.262V115.971H488.481V107.583H520.816V119.681L498.828 137.91V139.2H521.463V147.588H487.672Z" fill="black"/>
<path d="M572.672 148.717C565.666 148.717 560.115 146.782 556.02 142.91C551.924 138.985 549.876 133.393 549.876 126.134V112.584C549.876 105.325 551.924 99.7593 556.02 95.8879C560.115 91.9626 565.666 90 572.672 90C579.624 90 584.987 91.9089 588.759 95.7266C592.585 99.4905 594.499 104.679 594.499 111.293V111.777H583.99V110.97C583.99 107.637 583.047 104.894 581.16 102.744C579.328 100.593 576.499 99.5174 572.672 99.5174C568.9 99.5174 565.936 100.673 563.78 102.986C561.624 105.298 560.547 108.443 560.547 112.422V126.295C560.547 130.22 561.624 133.366 563.78 135.732C565.936 138.044 568.9 139.2 572.672 139.2C576.499 139.2 579.328 138.125 581.16 135.974C583.047 133.769 583.99 131.027 583.99 127.747V126.295H594.499V127.424C594.499 134.038 592.585 139.254 588.759 143.071C584.987 146.835 579.624 148.717 572.672 148.717Z" fill="black"/>
<path d="M603.517 147.588V91.1292H613.702V147.588H603.517Z" fill="black"/>
<path d="M640.268 148.233C637.142 148.233 634.393 147.534 632.022 146.136C629.705 144.685 627.899 142.695 626.606 140.168C625.313 137.641 624.666 134.737 624.666 131.457V107.583H634.851V130.65C634.851 133.662 635.579 135.92 637.034 137.426C638.543 138.931 640.672 139.684 643.42 139.684C646.546 139.684 648.971 138.662 650.696 136.619C652.42 134.522 653.282 131.618 653.282 127.908V107.583H663.468V147.588H653.444V142.346H651.989C651.342 143.69 650.13 145.007 648.351 146.298C646.573 147.588 643.878 148.233 640.268 148.233Z" fill="black"/>
<path d="M698.892 148.717C695.281 148.717 692.506 148.099 690.566 146.862C688.626 145.626 687.198 144.254 686.281 142.749H684.826V147.588H674.802V91.1292H684.988V112.18H686.443C687.036 111.212 687.817 110.298 688.787 109.438C689.811 108.578 691.132 107.879 692.749 107.341C694.419 106.75 696.467 106.454 698.892 106.454C702.126 106.454 705.117 107.26 707.865 108.873C710.614 110.433 712.823 112.745 714.494 115.81C716.165 118.875 717 122.585 717 126.94V128.231C717 132.586 716.165 136.296 714.494 139.361C712.823 142.426 710.614 144.765 707.865 146.378C705.117 147.938 702.126 148.717 698.892 148.717ZM695.82 139.845C698.946 139.845 701.56 138.85 703.662 136.861C705.764 134.818 706.814 131.86 706.814 127.989V127.182C706.814 123.311 705.764 120.38 703.662 118.391C701.614 116.348 699 115.326 695.82 115.326C692.695 115.326 690.081 116.348 687.979 118.391C685.877 120.38 684.826 123.311 684.826 127.182V127.989C684.826 131.86 685.877 134.818 687.979 136.861C690.081 138.85 692.695 139.845 695.82 139.845Z" fill="black"/>
<path d="M254.491 222.871V176.09H238V166.412H281.653V176.09H265.162V222.871H254.491Z" fill="black"/>
<path d="M289.243 222.871V166.412H299.428V187.786H300.883C301.314 186.925 301.988 186.065 302.904 185.205C303.82 184.344 305.033 183.645 306.542 183.108C308.105 182.516 310.072 182.22 312.443 182.22C315.569 182.22 318.29 182.946 320.608 184.398C322.979 185.796 324.811 187.759 326.105 190.286C327.398 192.759 328.045 195.663 328.045 198.997V222.871H317.859V199.803C317.859 196.792 317.105 194.534 315.596 193.028C314.141 191.523 312.039 190.77 309.29 190.77C306.165 190.77 303.739 191.818 302.015 193.915C300.29 195.959 299.428 198.835 299.428 202.546V222.871H289.243Z" fill="black"/>
<path d="M351.505 224C348.649 224 346.089 223.516 343.825 222.548C341.562 221.527 339.756 220.075 338.409 218.193C337.116 216.257 336.469 213.918 336.469 211.176C336.469 208.433 337.116 206.148 338.409 204.32C339.756 202.438 341.589 201.04 343.906 200.126C346.277 199.158 348.972 198.674 351.99 198.674H362.984V196.416C362.984 194.534 362.391 193.001 361.206 191.818C360.02 190.582 358.134 189.963 355.547 189.963C353.014 189.963 351.128 190.555 349.888 191.738C348.649 192.867 347.84 194.346 347.463 196.174L338.086 193.028C338.733 190.985 339.756 189.13 341.158 187.463C342.613 185.742 344.526 184.371 346.897 183.349C349.322 182.274 352.259 181.736 355.709 181.736C360.99 181.736 365.167 183.054 368.238 185.689C371.31 188.323 372.846 192.141 372.846 197.142V212.063C372.846 213.676 373.601 214.483 375.11 214.483H378.343V222.871H371.553C369.559 222.871 367.915 222.387 366.622 221.419C365.328 220.451 364.682 219.161 364.682 217.548V217.467H363.146C362.93 218.112 362.445 218.972 361.691 220.048C360.936 221.07 359.75 221.984 358.134 222.79C356.517 223.597 354.307 224 351.505 224ZM353.283 215.773C356.14 215.773 358.457 214.993 360.235 213.434C362.068 211.821 362.984 209.697 362.984 207.062V206.256H352.717C350.831 206.256 349.349 206.659 348.271 207.466C347.194 208.272 346.655 209.401 346.655 210.853C346.655 212.305 347.221 213.488 348.352 214.402C349.484 215.316 351.128 215.773 353.283 215.773Z" fill="black"/>
<path d="M385.79 222.871V182.866H395.976V222.871H385.79ZM390.883 178.188C389.051 178.188 387.488 177.596 386.195 176.413C384.955 175.23 384.335 173.671 384.335 171.735C384.335 169.799 384.955 168.24 386.195 167.057C387.488 165.874 389.051 165.283 390.883 165.283C392.769 165.283 394.332 165.874 395.572 167.057C396.811 168.24 397.431 169.799 397.431 171.735C397.431 173.671 396.811 175.23 395.572 176.413C394.332 177.596 392.769 178.188 390.883 178.188Z" fill="black"/>
<path d="M407.263 222.871V166.412H417.449V222.871H407.263Z" fill="black"/>
<path d="M441.185 224C438.328 224 435.769 223.516 433.505 222.548C431.242 221.527 429.436 220.075 428.089 218.193C426.796 216.257 426.149 213.918 426.149 211.176C426.149 208.433 426.796 206.148 428.089 204.32C429.436 202.438 431.269 201.04 433.586 200.126C435.957 199.158 438.652 198.674 441.67 198.674H452.664V196.416C452.664 194.534 452.071 193.001 450.885 191.818C449.7 190.582 447.813 189.963 445.227 189.963C442.694 189.963 440.807 190.555 439.568 191.738C438.328 192.867 437.52 194.346 437.143 196.174L427.766 193.028C428.412 190.985 429.436 189.13 430.837 187.463C432.293 185.742 434.206 184.371 436.577 183.349C439.002 182.274 441.939 181.736 445.388 181.736C450.67 181.736 454.846 183.054 457.918 185.689C460.99 188.323 462.526 192.141 462.526 197.142V212.063C462.526 213.676 463.28 214.483 464.789 214.483H468.023V222.871H461.233C459.239 222.871 457.595 222.387 456.301 221.419C455.008 220.451 454.361 219.161 454.361 217.548V217.467H452.825C452.61 218.112 452.125 218.972 451.37 220.048C450.616 221.07 449.43 221.984 447.813 222.79C446.197 223.597 443.987 224 441.185 224ZM442.963 215.773C445.819 215.773 448.137 214.993 449.915 213.434C451.748 211.821 452.664 209.697 452.664 207.062V206.256H442.397C440.511 206.256 439.029 206.659 437.951 207.466C436.873 208.272 436.334 209.401 436.334 210.853C436.334 212.305 436.9 213.488 438.032 214.402C439.164 215.316 440.807 215.773 442.963 215.773Z" fill="black"/>
<path d="M475.47 222.871V182.866H485.494V188.108H486.949C487.596 186.71 488.808 185.393 490.587 184.156C492.365 182.866 495.06 182.22 498.671 182.22C501.796 182.22 504.518 182.946 506.835 184.398C509.207 185.796 511.039 187.759 512.332 190.286C513.626 192.759 514.272 195.663 514.272 198.997V222.871H504.087V199.803C504.087 196.792 503.332 194.534 501.823 193.028C500.368 191.523 498.267 190.77 495.518 190.77C492.392 190.77 489.967 191.818 488.243 193.915C486.518 195.959 485.656 198.835 485.656 202.546V222.871H475.47Z" fill="black"/>
<path d="M541.451 224C538.271 224 535.28 223.22 532.478 221.661C529.73 220.048 527.52 217.709 525.849 214.644C524.179 211.579 523.343 207.869 523.343 203.513V202.223C523.343 197.868 524.179 194.157 525.849 191.092C527.52 188.028 529.73 185.715 532.478 184.156C535.227 182.543 538.218 181.736 541.451 181.736C543.876 181.736 545.897 182.032 547.514 182.624C549.185 183.161 550.532 183.86 551.556 184.721C552.58 185.581 553.361 186.495 553.9 187.463H555.355V166.412H565.541V222.871H555.517V218.031H554.062C553.146 219.537 551.718 220.908 549.777 222.145C547.891 223.382 545.116 224 541.451 224ZM544.523 215.128C547.649 215.128 550.263 214.133 552.364 212.144C554.466 210.1 555.517 207.143 555.517 203.271V202.465C555.517 198.593 554.466 195.663 552.364 193.673C550.316 191.63 547.703 190.609 544.523 190.609C541.397 190.609 538.783 191.63 536.682 193.673C534.58 195.663 533.529 198.593 533.529 202.465V203.271C533.529 207.143 534.58 210.1 536.682 212.144C538.783 214.133 541.397 215.128 544.523 215.128Z" fill="black"/>
<path d="M82.3863 172.405L87.4014 158.773L103.073 163.73L101.819 170.546C148.96 168.067 189.164 150.098 204 141.423C199.988 148.859 181.432 158.153 172.656 161.871L204 248L136.297 213.92L141.312 178.601L159.492 184.798L155.103 166.209C142.566 170.67 113.521 174.677 100.565 176.123L98.0575 184.798L116.864 178.601L121.879 213.92L54.176 247.38L80.5057 177.362C76.7444 177.362 49.7886 177.362 51.0424 166.209C52.0454 157.286 79.4609 147.207 93.0432 143.282L99.312 127.791L105.581 145.141C94.9239 146.38 53.5499 161.871 56.6843 167.448C59.1918 171.909 74.8638 172.611 82.3863 172.405Z" fill="#7A44B0"/>
<path d="M122.506 131.509L100.565 123.454L129.401 46L157.611 123.454L135.043 131.509L128.775 91.8528L122.506 131.509Z" fill="#7A44B0"/>
<path d="M152.596 143.902L158.865 126.552L167.014 148.859L152.596 143.902Z" fill="#7A44B0"/>
</svg>
