<svg width="1080" height="1080" viewBox="0 0 1080 1080" fill="none" xmlns="http://www.w3.org/2000/svg">
<g clip-path="url(#clip0_668_44662)">
<path d="M426 238C426 335.137 345.25 416 243 416C140.75 416 60 335.137 60 238C60 140.863 140.75 60 243 60C345.25 60 426 140.863 426 238Z" stroke="black" stroke-width="120"/>
<mask id="path-2-inside-1_668_44662" fill="white">
<path d="M588 0L-nan -nanL588 0C858.067 0 1077 194.465 1077 434.35V476L588 476V0Z"/>
</mask>
<path d="M1077 476V596H1197V476H1077ZM588 476H468L468 596H588V476ZM957 434.35V476L1197 476V434.35L957 434.35ZM1077 356L588 356V596H1077V356ZM708 476V0L468 0V476H708ZM588 120C805.557 120 957 273.713 957 434.35L1197 434.35C1197 115.217 910.577 -120 588 -120V120Z" fill="black" mask="url(#path-2-inside-1_668_44662)"/>
<mask id="path-4-inside-2_668_44662" fill="white">
<path d="M486 1080L-nan -nanL486 1080C217.59 1080 -7.85563e-06 875.321 1.42172e-05 622.837L1.80496e-05 579L486 579L486 1080Z"/>
</mask>
<path d="M1.80496e-05 579L2.85403e-05 459L-120 459L-120 579L1.80496e-05 579ZM486 579L606 579L606 459L486 459L486 579ZM120 622.837L120 579L-120 579L-120 622.837L120 622.837ZM7.55887e-06 699L486 699L486 459L2.85403e-05 459L7.55887e-06 699ZM366 579L366 1080L606 1080L606 579L366 579ZM486 960C276.843 960 120 802.238 120 622.837L-120 622.837C-120 948.405 158.336 1200 486 1200L486 960Z" fill="black" mask="url(#path-4-inside-2_668_44662)"/>
<path d="M648 639H1020V1020H648V639Z" stroke="black" stroke-width="120"/>
</g>
<defs>
<clipPath id="clip0_668_44662">
<rect width="1080" height="1080" fill="white"/>
</clipPath>
</defs>
</svg>
