<svg width="724" height="261" viewBox="0 0 724 261" fill="none" xmlns="http://www.w3.org/2000/svg">
<path d="M143 130C143 151.539 125.539 169 104 169C82.4609 169 65 151.539 65 130C65 108.461 82.4609 91 104 91C125.539 91 143 108.461 143 130Z" fill="#FFCF56"/>
<path d="M89.2978 141L71 132.829V127.211L89.2978 119V124.343L78.3191 129.096C77.7887 129.332 77.2318 129.529 76.6484 129.686C76.065 129.843 75.601 129.948 75.2562 130C75.601 130.052 76.065 130.157 76.6484 130.314C77.2318 130.445 77.7887 130.629 78.3191 130.864L89.2978 135.618V141Z" fill="#272D2D"/>
<path d="M118.702 141V135.657L129.681 130.904C130.211 130.668 130.768 130.471 131.352 130.314C131.935 130.157 132.399 130.052 132.744 130C132.399 129.948 131.935 129.856 131.352 129.725C130.768 129.568 130.211 129.371 129.681 129.136L118.702 124.382V119L137 127.171V132.789L118.702 141Z" fill="#272D2D"/>
<path d="M95 116H113V143H95V116Z" fill="#272D2D"/>
<path d="M195.235 138.72C195.235 137.92 194.737 137.28 193.742 136.8C192.787 136.32 191.594 135.88 190.161 135.48C188.729 135.08 187.157 134.68 185.446 134.28C183.735 133.84 182.163 133.26 180.73 132.54C179.298 131.78 178.084 130.84 177.089 129.72C176.134 128.56 175.657 127.08 175.657 125.28C175.657 123.8 175.975 122.5 176.612 121.38C177.288 120.26 178.183 119.32 179.298 118.56C180.452 117.76 181.805 117.16 183.356 116.76C184.948 116.36 186.659 116.16 188.49 116.16C190.44 116.16 192.151 116.3 193.623 116.58C195.095 116.86 196.369 117.2 197.443 117.6C198.557 118 199.492 118.46 200.249 118.98C201.044 119.46 201.721 119.9 202.278 120.3L198.995 125.64C198.398 125.28 197.702 124.92 196.906 124.56C196.15 124.16 195.334 123.8 194.459 123.48C193.623 123.16 192.728 122.9 191.773 122.7C190.857 122.5 189.942 122.4 189.027 122.4C187.356 122.4 186.003 122.62 184.968 123.06C183.933 123.5 183.416 124.18 183.416 125.1C183.416 125.82 183.894 126.4 184.849 126.84C185.844 127.28 187.057 127.7 188.49 128.1C189.922 128.46 191.494 128.86 193.205 129.3C194.916 129.74 196.488 130.32 197.921 131.04C199.353 131.72 200.547 132.62 201.502 133.74C202.497 134.86 202.994 136.3 202.994 138.06C202.994 141.1 201.88 143.5 199.652 145.26C197.463 146.98 194.2 147.84 189.863 147.84C186.44 147.84 183.476 147.34 180.969 146.34C178.502 145.3 176.512 144.1 175 142.74L178.581 137.1C179.099 137.54 179.775 138.04 180.611 138.6C181.486 139.12 182.461 139.6 183.536 140.04C184.61 140.48 185.744 140.86 186.938 141.18C188.171 141.46 189.385 141.6 190.579 141.6C191.852 141.6 192.947 141.38 193.862 140.94C194.777 140.5 195.235 139.76 195.235 138.72Z" fill="#272D2D"/>
<path d="M204.642 105H216.699V120.36H216.938C217.893 119.08 219.167 118.06 220.758 117.3C222.35 116.54 224.22 116.16 226.369 116.16C227.881 116.16 229.274 116.36 230.547 116.76C231.821 117.16 232.915 117.82 233.83 118.74C234.745 119.66 235.462 120.92 235.979 122.52C236.496 124.08 236.755 126.02 236.755 128.34V147H228.995V129.96C228.995 127.52 228.478 125.76 227.443 124.68C226.409 123.6 225.056 123.06 223.385 123.06C221.912 123.06 220.559 123.52 219.326 124.44C218.092 125.32 217.217 126.46 216.699 127.86V147H208.94V111.6H204.642V105Z" fill="#272D2D"/>
<path d="M242.521 132C242.521 129.48 242.9 127.24 243.656 125.28C244.412 123.32 245.486 121.66 246.879 120.3C248.272 118.94 249.923 117.92 251.833 117.24C253.783 116.52 255.952 116.16 258.339 116.16C260.846 116.16 263.074 116.54 265.024 117.3C267.014 118.06 268.685 119.14 270.038 120.54C271.391 121.9 272.406 123.56 273.082 125.52C273.799 127.48 274.157 129.64 274.157 132C274.157 134.52 273.779 136.76 273.023 138.72C272.267 140.68 271.192 142.34 269.799 143.7C268.407 145.06 266.735 146.1 264.786 146.82C262.875 147.5 260.727 147.84 258.339 147.84C255.832 147.84 253.584 147.46 251.594 146.7C249.644 145.94 247.993 144.88 246.64 143.52C245.287 142.12 244.252 140.44 243.536 138.48C242.86 136.52 242.521 134.36 242.521 132ZM250.52 132C250.52 133.32 250.699 134.54 251.057 135.66C251.415 136.78 251.932 137.76 252.609 138.6C253.285 139.44 254.101 140.1 255.056 140.58C256.011 141.02 257.106 141.24 258.339 141.24C260.647 141.24 262.517 140.5 263.95 139.02C265.422 137.54 266.158 135.2 266.158 132C266.158 129.24 265.482 127.02 264.129 125.34C262.776 123.62 260.846 122.76 258.339 122.76C257.225 122.76 256.19 122.94 255.235 123.3C254.28 123.62 253.445 124.16 252.728 124.92C252.052 125.68 251.515 126.64 251.117 127.8C250.719 128.96 250.52 130.36 250.52 132Z" fill="#272D2D"/>
<path d="M298.367 124.2L302.844 137.34H303.142L303.68 132.18L306.127 117H313.11L307.082 147H299.263L295.92 135.12H295.622L291.861 147H283.803L277.536 117H285.295L288.22 133.62L288.698 137.34H288.996L293.413 124.2H298.367Z" fill="#272D2D"/>
<path d="M333.859 105H346.334V130.92C346.334 133.92 346.493 136.88 346.812 139.8C346.812 140 346.831 140.2 346.871 140.4H350.691V147H341.081L340.305 143.16H340.067C339.669 143.88 339.132 144.52 338.455 145.08C337.779 145.64 337.022 146.14 336.187 146.58C335.351 146.98 334.436 147.28 333.441 147.48C332.446 147.72 331.451 147.84 330.457 147.84C328.586 147.84 326.816 147.54 325.144 146.94C323.513 146.34 322.08 145.42 320.847 144.18C319.613 142.9 318.638 141.3 317.922 139.38C317.206 137.42 316.848 135.12 316.848 132.48C316.848 129.92 317.226 127.64 317.982 125.64C318.777 123.64 319.852 121.96 321.205 120.6C322.598 119.2 324.229 118.14 326.099 117.42C327.97 116.66 330.019 116.28 332.247 116.28C333.481 116.28 334.635 116.36 335.709 116.52C336.824 116.64 337.779 116.86 338.574 117.18V111.6H333.859V105ZM332.247 141.24C333.759 141.24 335.093 140.88 336.247 140.16C337.44 139.4 338.216 138.32 338.574 136.92V124.2C338.017 123.76 337.241 123.44 336.247 123.24C335.292 123 334.277 122.88 333.202 122.88C332.128 122.88 331.073 123.06 330.039 123.42C329.044 123.78 328.149 124.36 327.353 125.16C326.597 125.92 325.98 126.92 325.502 128.16C325.065 129.4 324.846 130.92 324.846 132.72C324.846 135.28 325.483 137.34 326.756 138.9C328.029 140.46 329.86 141.24 332.247 141.24Z" fill="#272D2D"/>
<path d="M354.667 132C354.667 129.48 355.045 127.24 355.801 125.28C356.557 123.32 357.632 121.66 359.024 120.3C360.417 118.94 362.069 117.92 363.979 117.24C365.929 116.52 368.097 116.16 370.485 116.16C372.992 116.16 375.22 116.54 377.17 117.3C379.16 118.06 380.831 119.14 382.184 120.54C383.537 121.9 384.552 123.56 385.228 125.52C385.944 127.48 386.302 129.64 386.302 132C386.302 134.52 385.924 136.76 385.168 138.72C384.412 140.68 383.338 142.34 381.945 143.7C380.552 145.06 378.881 146.1 376.931 146.82C375.021 147.5 372.872 147.84 370.485 147.84C367.978 147.84 365.73 147.46 363.74 146.7C361.79 145.94 360.139 144.88 358.786 143.52C357.433 142.12 356.398 140.44 355.682 138.48C355.005 136.52 354.667 134.36 354.667 132ZM362.665 132C362.665 133.32 362.845 134.54 363.203 135.66C363.561 136.78 364.078 137.76 364.755 138.6C365.431 139.44 366.247 140.1 367.202 140.58C368.157 141.02 369.251 141.24 370.485 141.24C372.793 141.24 374.663 140.5 376.096 139.02C377.568 137.54 378.304 135.2 378.304 132C378.304 129.24 377.628 127.02 376.275 125.34C374.922 123.62 372.992 122.76 370.485 122.76C369.371 122.76 368.336 122.94 367.381 123.3C366.426 123.62 365.59 124.16 364.874 124.92C364.198 125.68 363.66 126.64 363.262 127.8C362.864 128.96 362.665 130.36 362.665 132Z" fill="#272D2D"/>
<path d="M410.513 124.2L414.99 137.34H415.288L415.825 132.18L418.272 117H425.256L419.228 147H411.408L408.066 135.12H407.767L404.007 147H395.949L389.681 117H397.441L400.366 133.62L400.843 137.34H401.142L405.559 124.2H410.513Z" fill="#272D2D"/>
<path d="M430.247 117H440.692L441.588 120.96H441.826C442.742 119.68 444.055 118.56 445.766 117.6C447.477 116.64 449.526 116.16 451.914 116.16C453.386 116.16 454.759 116.36 456.032 116.76C457.346 117.16 458.46 117.82 459.375 118.74C460.29 119.66 461.006 120.92 461.524 122.52C462.081 124.08 462.359 126.02 462.359 128.34V147H454.6V129.96C454.6 127.52 454.043 125.76 452.929 124.68C451.854 123.6 450.481 123.06 448.81 123.06C447.338 123.06 445.985 123.5 444.751 124.38C443.557 125.22 442.742 126.28 442.304 127.56V147H434.544V123.6H430.247V117Z" fill="#272D2D"/>
<path d="M470.633 143.04C470.633 141.64 471.071 140.54 471.946 139.74C472.822 138.9 473.976 138.48 475.408 138.48C476.92 138.48 478.114 138.9 478.989 139.74C479.865 140.54 480.303 141.64 480.303 143.04C480.303 144.44 479.865 145.56 478.989 146.4C478.114 147.24 476.92 147.66 475.408 147.66C473.976 147.66 472.822 147.24 471.946 146.4C471.071 145.56 470.633 144.44 470.633 143.04Z" fill="#272D2D"/>
<path d="M508.393 138.72C508.393 137.92 507.895 137.28 506.901 136.8C505.946 136.32 504.752 135.88 503.319 135.48C501.887 135.08 500.315 134.68 498.604 134.28C496.893 133.84 495.321 133.26 493.888 132.54C492.456 131.78 491.242 130.84 490.247 129.72C489.292 128.56 488.815 127.08 488.815 125.28C488.815 123.8 489.133 122.5 489.77 121.38C490.446 120.26 491.342 119.32 492.456 118.56C493.61 117.76 494.963 117.16 496.515 116.76C498.106 116.36 499.818 116.16 501.648 116.16C503.598 116.16 505.309 116.3 506.781 116.58C508.254 116.86 509.527 117.2 510.601 117.6C511.716 118 512.651 118.46 513.407 118.98C514.203 119.46 514.879 119.9 515.436 120.3L512.153 125.64C511.556 125.28 510.86 124.92 510.064 124.56C509.308 124.16 508.492 123.8 507.617 123.48C506.781 123.16 505.886 122.9 504.931 122.7C504.016 122.5 503.1 122.4 502.185 122.4C500.514 122.4 499.161 122.62 498.126 123.06C497.092 123.5 496.574 124.18 496.574 125.1C496.574 125.82 497.052 126.4 498.007 126.84C499.002 127.28 500.215 127.7 501.648 128.1C503.081 128.46 504.652 128.86 506.363 129.3C508.075 129.74 509.646 130.32 511.079 131.04C512.511 131.72 513.705 132.62 514.66 133.74C515.655 134.86 516.152 136.3 516.152 138.06C516.152 141.1 515.038 143.5 512.81 145.26C510.621 146.98 507.358 147.84 503.021 147.84C499.599 147.84 496.634 147.34 494.127 146.34C491.66 145.3 489.67 144.1 488.158 142.74L491.74 137.1C492.257 137.54 492.933 138.04 493.769 138.6C494.644 139.12 495.619 139.6 496.694 140.04C497.768 140.48 498.902 140.86 500.096 141.18C501.33 141.46 502.543 141.6 503.737 141.6C505.01 141.6 506.105 141.38 507.02 140.94C507.935 140.5 508.393 139.76 508.393 138.72Z" fill="#272D2D"/>
<path d="M520.188 117H530.335L531.23 120.6H531.469C533.538 117.64 536.881 116.16 541.497 116.16C543.327 116.16 544.999 116.46 546.511 117.06C548.063 117.62 549.376 118.52 550.45 119.76C551.565 121 552.42 122.56 553.017 124.44C553.614 126.32 553.912 128.58 553.912 131.22C553.912 133.78 553.574 136.1 552.898 138.18C552.221 140.22 551.246 141.96 549.973 143.4C548.7 144.84 547.148 145.94 545.317 146.7C543.487 147.46 541.398 147.84 539.05 147.84C537.816 147.84 536.603 147.74 535.409 147.54C534.215 147.38 533.22 147.1 532.424 146.7V159H524.665V123.6H520.188V117ZM539.169 122.76C537.657 122.76 536.264 123.14 534.991 123.9C533.757 124.66 532.902 125.8 532.424 127.32V139.8C532.981 140.24 533.777 140.6 534.812 140.88C535.886 141.12 536.961 141.24 538.035 141.24C539.149 141.24 540.184 141.06 541.139 140.7C542.094 140.3 542.93 139.68 543.646 138.84C544.362 138 544.919 136.94 545.317 135.66C545.715 134.38 545.914 132.84 545.914 131.04C545.914 128.4 545.277 126.36 544.004 124.92C542.731 123.48 541.119 122.76 539.169 122.76Z" fill="#272D2D"/>
<path d="M561.35 119.04C562.942 118.32 564.772 117.7 566.842 117.18C568.951 116.66 571.438 116.4 574.303 116.4C576.372 116.4 578.123 116.66 579.555 117.18C581.028 117.66 582.202 118.36 583.077 119.28C583.992 120.2 584.649 121.3 585.047 122.58C585.445 123.86 585.644 125.3 585.644 126.9C585.644 128.94 585.564 130.68 585.405 132.12C585.286 133.56 585.226 134.84 585.226 135.96C585.226 136.8 585.266 137.74 585.345 138.78C585.425 139.34 585.484 139.88 585.524 140.4H589.404V147H579.496L578.72 142.92H578.421C577.625 144.16 576.491 145.24 575.019 146.16C573.547 147.04 571.557 147.48 569.05 147.48C566.066 147.48 563.698 146.68 561.947 145.08C560.196 143.48 559.321 141.36 559.321 138.72C559.321 137.04 559.619 135.6 560.216 134.4C560.853 133.16 561.748 132.16 562.902 131.4C564.096 130.6 565.509 130.02 567.14 129.66C568.811 129.26 570.662 129.06 572.691 129.06C573.407 129.06 574.163 129.1 574.959 129.18C575.755 129.26 576.73 129.34 577.884 129.42C577.964 129.02 578.003 128.62 578.003 128.22V127.08C578.003 125.56 577.566 124.48 576.69 123.84C575.815 123.16 574.522 122.82 572.81 122.82C570.781 122.82 568.951 123.08 567.319 123.6C565.688 124.12 564.315 124.64 563.201 125.16L561.35 119.04ZM571.557 141.06C573.467 141.06 574.9 140.72 575.855 140.04C576.81 139.32 577.506 138.56 577.944 137.76V134.16C577.546 134.08 576.949 134 576.153 133.92C575.357 133.8 574.502 133.74 573.586 133.74C572.83 133.74 572.074 133.82 571.318 133.98C570.562 134.1 569.886 134.32 569.289 134.64C568.692 134.92 568.214 135.3 567.856 135.78C567.498 136.26 567.319 136.84 567.319 137.52C567.319 138.64 567.637 139.52 568.274 140.16C568.951 140.76 570.045 141.06 571.557 141.06Z" fill="#272D2D"/>
<path d="M623.762 144.12C622.13 145.36 620.22 146.3 618.032 146.94C615.843 147.54 613.555 147.84 611.167 147.84C608.581 147.84 606.273 147.46 604.243 146.7C602.254 145.94 600.563 144.88 599.17 143.52C597.817 142.12 596.782 140.44 596.066 138.48C595.35 136.52 594.992 134.36 594.992 132C594.992 129.48 595.409 127.24 596.245 125.28C597.081 123.32 598.235 121.66 599.707 120.3C601.219 118.94 602.99 117.92 605.019 117.24C607.049 116.52 609.257 116.16 611.645 116.16C613.873 116.16 615.962 116.42 617.912 116.94C619.862 117.46 621.354 117.96 622.389 118.44V129H615.823V123.48C614.589 123.2 613.356 123.06 612.122 123.06C611.008 123.06 609.894 123.24 608.78 123.6C607.705 123.92 606.73 124.46 605.855 125.22C605.019 125.94 604.323 126.86 603.766 127.98C603.249 129.1 602.99 130.44 602.99 132C602.99 133.28 603.209 134.46 603.646 135.54C604.084 136.62 604.701 137.56 605.497 138.36C606.293 139.16 607.268 139.8 608.422 140.28C609.615 140.72 610.929 140.94 612.361 140.94C614.629 140.94 616.48 140.62 617.912 139.98C619.385 139.34 620.479 138.78 621.195 138.3L623.762 144.12Z" fill="#272D2D"/>
<path d="M657.045 143.82C656.528 144.3 655.851 144.78 655.016 145.26C654.22 145.7 653.265 146.12 652.15 146.52C651.076 146.92 649.882 147.24 648.569 147.48C647.256 147.72 645.863 147.84 644.391 147.84C641.844 147.84 639.556 147.48 637.527 146.76C635.537 146.04 633.846 145 632.453 143.64C631.06 142.24 629.986 140.58 629.23 138.66C628.514 136.7 628.155 134.48 628.155 132C628.155 129.36 628.573 127.06 629.409 125.1C630.245 123.1 631.379 121.44 632.811 120.12C634.283 118.8 635.995 117.82 637.944 117.18C639.894 116.5 642.003 116.16 644.272 116.16C645.784 116.16 647.336 116.36 648.927 116.76C650.559 117.16 652.051 117.86 653.404 118.86C654.757 119.82 655.851 121.12 656.687 122.76C657.562 124.4 658 126.48 658 129C658 130.72 657.801 132.58 657.403 134.58H635.915C635.955 135.86 636.213 136.94 636.691 137.82C637.208 138.7 637.865 139.42 638.661 139.98C639.496 140.54 640.431 140.96 641.466 141.24C642.54 141.48 643.675 141.6 644.868 141.6C647.256 141.6 649.206 141.32 650.718 140.76C652.27 140.2 653.523 139.52 654.478 138.72L657.045 143.82ZM644.152 122.4C643.118 122.4 642.143 122.54 641.227 122.82C640.312 123.1 639.476 123.52 638.72 124.08C638.004 124.6 637.407 125.26 636.93 126.06C636.452 126.86 636.174 127.76 636.094 128.76H650.778C650.778 126.8 650.221 125.26 649.106 124.14C648.032 122.98 646.381 122.4 644.152 122.4Z" fill="#272D2D"/>
</svg>
