<svg width="472" height="312" viewBox="0 0 472 312" fill="none" xmlns="http://www.w3.org/2000/svg">
<path fill-rule="evenodd" clip-rule="evenodd" d="M136.207 8.76285C140.194 10.0242 143.719 11.1391 147.293 12.0982C148.437 12.405 149.784 12.7138 151.288 13.0583C156.815 14.3245 164.451 16.0741 171.809 19.9843L171.875 20.0197C172.803 20.5122 176.996 22.7368 180.728 25.5967C180.786 25.6412 180.846 25.687 180.907 25.7342C181.301 25.4159 181.715 25.077 182.15 24.7215C185.199 22.2277 189.249 18.916 194.348 16.1757C194.607 16.0365 194.872 15.8949 195.141 15.751C197.252 14.6227 199.636 13.3487 201.682 11.9012C201.852 11.7803 202.006 11.6683 202.144 11.5656C204.351 5.68749 209.955 1.51177 216.519 1.51177C225.013 1.51177 231.898 8.50327 231.898 17.1277C231.898 24.0102 228.344 28.9187 226.313 31.2847C224.03 33.9433 221.372 36.0364 219.266 37.5263C215.498 40.1919 211.305 42.4163 209.341 43.458C209.106 43.5828 208.903 43.6906 208.736 43.7802C206.432 45.0182 204.963 46.2085 202.11 48.5191C201.359 49.1278 200.512 49.8142 199.528 50.5996C193.068 55.7571 187.711 60.8942 181.671 67.1446C180.58 68.2735 178.897 69.8215 176.618 71.0514C174.368 72.266 170.203 73.8607 165.098 72.6956C159.66 71.4545 156.345 67.8344 154.671 64.993C153.131 62.3785 152.589 59.8776 152.363 58.417C151.898 55.4235 152.145 52.6368 152.446 50.7275C152.671 49.3027 153.044 47.6323 153.644 45.9196C151.79 45.265 149.918 44.8339 147.386 44.251C145.301 43.7712 142.77 43.1885 139.435 42.2936C135.348 41.197 130.581 39.6953 126.021 38.2585C123.515 37.4687 121.07 36.6985 118.835 36.026C111.916 33.9442 105.505 32.2964 99.6236 31.5919C93.7304 30.886 89.2641 31.247 85.9049 32.4244C82.8977 33.4784 80.0321 35.4262 77.3939 39.602C75.9344 41.9121 74.6813 45.1545 72.9875 50.2935C72.8042 50.8496 72.6129 51.4379 72.413 52.0528C71.0069 56.3771 69.1721 62.0201 66.6634 67.0762C63.0741 74.3101 58.3188 81.0559 53.8499 86.9381C51.7364 89.7201 49.575 92.4518 47.558 95.001C47.4212 95.1739 47.2852 95.3459 47.1498 95.517C44.976 98.265 42.9881 100.787 41.1748 103.211C35.0116 111.45 31.8598 116.075 31.2298 120.64C29.9947 129.587 31.1904 136.458 34.7051 146.851C35.3475 148.75 36.0569 150.423 36.9862 152.614C37.4292 153.659 37.9223 154.821 38.4819 156.182C39.9945 159.862 41.834 164.679 42.744 170.095C43.6998 175.783 45.7464 181.331 48.5188 185.635C56.0435 197.316 67.2082 205.793 81.1983 215.101C89.0206 220.305 99.7579 224.265 107.487 224.475L107.578 224.478C113.138 224.629 118.115 224.765 122.835 224.529C122.846 224.525 122.858 224.521 122.869 224.516C123.418 224.295 124.236 223.896 125.462 223.207C126.286 222.743 126.961 222.344 127.748 221.879C128.273 221.569 128.847 221.229 129.55 220.82C130.982 219.988 132.948 218.873 135.015 217.976C142.607 214.681 147.766 210.635 151.081 204.818C151.096 204.762 151.114 204.689 151.134 204.598C151.255 204.057 151.38 203.221 151.47 202.03C151.624 199.981 151.616 197.933 151.606 195.502C151.604 194.89 151.601 194.253 151.601 193.586C151.601 184.962 158.487 177.97 166.981 177.97C175.475 177.97 182.36 184.962 182.36 193.586C182.36 193.971 182.363 194.409 182.365 194.891C182.379 197.356 182.398 200.964 182.14 204.404C181.85 208.258 181.099 214.323 178.092 219.769C170.438 233.631 158.818 241.611 147.105 246.695C146.307 247.041 145.673 247.421 144.54 248.099C143.608 248.658 142.337 249.42 140.357 250.533C137.543 252.114 131.763 255.301 125.225 255.676C119.008 256.034 112.712 255.861 107.296 255.713L106.662 255.696C91.7303 255.289 75.5081 248.654 64.3404 241.224C50.1111 231.757 34.0906 220.293 22.7771 202.73C17.3837 194.357 13.9869 184.653 12.4233 175.348C12.1224 173.557 11.4123 171.413 10.0968 168.214C9.83531 167.577 9.52153 166.837 9.1766 166.024C8.07716 163.431 6.6613 160.092 5.61358 156.994C1.22735 144.024 -1.38483 131.905 0.768601 116.305C2.60744 102.983 10.7724 92.1568 15.7313 85.5817C16.063 85.1419 16.3804 84.721 16.6806 84.3198C18.7825 81.51 21.0217 78.6731 23.1688 75.9588C23.2901 75.8054 23.4112 75.6525 23.5319 75.4998C25.5908 72.8975 27.574 70.3908 29.4953 67.8619C33.6079 62.4486 36.9378 57.5707 39.1938 53.0239C40.6058 50.1781 41.6725 46.9245 43.1782 42.3315C43.383 41.7069 43.5958 41.0576 43.8188 40.3811C45.4599 35.4023 47.7323 28.7087 51.5041 22.7385C57.8217 12.7388 66.2324 6.27929 75.8684 2.9019C85.1524 -0.35212 94.6964 -0.446741 103.227 0.575039C111.769 1.59821 120.196 3.8613 127.574 6.0811C130.75 7.03683 133.579 7.93163 136.207 8.76285ZM122.552 224.631C122.552 224.63 122.563 224.627 122.585 224.621C122.563 224.628 122.552 224.631 122.552 224.631ZM162.723 50.9611C162.722 50.9612 162.7 50.9416 162.661 50.9019C162.704 50.9412 162.724 50.961 162.723 50.9611ZM180.363 59.7672C180.362 59.7672 180.367 59.7636 180.376 59.7561C180.367 59.7635 180.363 59.7672 180.363 59.7672Z" fill="black"/>
<path fill-rule="evenodd" clip-rule="evenodd" d="M347.374 0.123358C355.248 -0.348181 363.619 0.522782 370.864 2.89732C380.701 6.12122 396.57 12.7432 404.75 26.8017C405.551 25.8519 406.509 24.6303 407.809 22.974C407.954 22.7891 408.103 22.5988 408.257 22.4029C410.621 19.3925 414.462 14.5066 419.79 10.9046C426.395 6.44014 434.098 4.75853 439.956 3.97474C445.796 3.19331 451.639 3.10082 455.685 3.03676C455.848 3.03417 456.008 3.03164 456.166 3.0291C464.655 2.89226 471.648 9.66089 471.785 18.1473C471.922 26.6336 465.151 33.6241 456.661 33.761C452.284 33.8315 448.023 33.9053 444.035 34.4389C439.829 35.0017 437.743 35.8721 437.014 36.3656C436.18 36.9289 434.999 38.1245 432.444 41.3791C432.225 41.6577 431.989 41.9624 431.735 42.2892C429.661 44.9598 426.447 49.099 422.582 52.3926C418.98 55.462 415.432 59.1575 412.471 62.9191C413.139 62.0696 410.996 64.8985 409.818 66.3284C409.205 67.0716 407.996 68.5163 406.648 69.7391C406.263 70.088 405.645 70.6235 404.851 71.1806C404.262 71.5937 402.559 72.7594 400.096 73.4787C397.736 74.1684 390.931 75.3662 385.12 69.9215C380.275 65.3813 380.208 59.749 380.208 58.5263C380.208 49.8199 380.002 45.8275 378.367 42.6129C376.617 39.1713 370.887 35.2503 361.285 32.1034C358.273 31.1162 353.849 30.5265 349.213 30.8042C344.455 31.0892 341.017 32.1898 339.289 33.2281C335.401 35.5644 331.538 40.0313 326.453 45.9106C325.68 46.8036 324.88 47.7292 324.047 48.6849C312.975 61.386 298.829 73.902 287.17 84.2187C286.927 84.433 286.686 84.6464 286.446 84.8588C285.265 85.9041 284.078 86.8826 283.227 87.5843C283.011 87.7625 282.816 87.9229 282.649 88.0619C282.192 88.4414 281.878 88.711 281.66 88.9051C278.329 105.565 265.527 114.379 257.913 119.621C257.373 119.992 256.86 120.346 256.377 120.683C256.369 120.699 255.431 121.55 254.914 124.824C254.37 128.272 254.687 132.35 255.475 135.451C255.772 136.617 256.535 138 259.325 141.981C259.447 142.155 259.575 142.337 259.709 142.528C262.01 145.796 265.97 151.419 267.759 158.456C268.411 161.022 270.058 163.717 273.773 168.574C274.104 169.007 274.462 169.469 274.841 169.958C278.034 174.076 282.747 180.156 285.593 187.279C287.545 192.163 293.646 197.565 302.651 202.523C311.77 207.544 326.095 211.895 338.242 214.508C348.452 216.703 358.269 216.975 370.364 216.975C371.371 216.975 372.318 216.994 373.136 217.013C373.378 217.019 373.603 217.024 373.815 217.03C374.365 217.043 374.831 217.054 375.312 217.062C376.479 217.079 377.13 217.057 377.545 217.02C385.735 209.725 388.397 201.05 388.397 187.483C388.397 178.996 395.28 172.115 403.77 172.115C412.26 172.115 419.143 178.996 419.143 187.483C419.143 206.001 415.141 224.99 397.511 240.398C388.093 248.629 376.618 248.022 371.866 247.771C371.244 247.738 370.736 247.711 370.364 247.711C358.077 247.711 345.429 247.493 331.775 244.556C318.603 241.723 300.843 236.617 287.817 229.445C277.807 223.934 263.217 214.139 257.04 198.679C255.878 195.771 253.874 193.155 250.124 188.257C249.873 187.93 249.615 187.592 249.348 187.243C245.695 182.467 240.325 175.33 237.959 166.027C237.689 164.962 236.972 163.655 234.139 159.612C234.029 159.455 233.915 159.292 233.796 159.123C231.467 155.81 227.49 150.156 225.676 143.022C224.005 136.449 223.264 128.139 224.543 120.033C225.794 112.109 229.409 102.035 238.715 95.5246L239.069 95.2769C243.605 92.1041 246.407 90.1439 248.576 87.9362C250.402 86.0767 251.187 84.5942 251.529 82.7779C252.686 76.639 255.268 72.0293 258.837 68.2448C260.339 66.6527 261.892 65.3421 262.989 64.4305C263.323 64.1521 263.627 63.9021 263.91 63.6683C264.693 63.0224 265.326 62.5001 266.066 61.8449C278.242 51.0705 291.127 39.6642 300.866 28.492C301.405 27.874 302.013 27.1597 302.684 26.3713C307.298 20.9495 314.888 12.0288 323.449 6.88495C330.837 2.44596 339.623 0.587572 347.374 0.123358Z" fill="black"/>
<path fill-rule="evenodd" clip-rule="evenodd" d="M357.386 115.655C358.021 115.753 358.661 115.87 359.299 116.008C363.231 116.858 372.053 119.715 375.002 128.609C377.507 136.162 373.729 142.834 371.265 146.425C367.381 152.086 360.927 154.551 357.856 155.584C354.015 156.878 349.881 157.684 346.383 158.219C339.523 159.27 332.564 159.643 329.657 159.799C329.567 159.804 329.48 159.809 329.398 159.813C329.351 159.816 329.302 159.819 329.252 159.821C328.021 159.888 325.955 160 323.93 159.909C321.854 159.816 317.913 159.465 313.903 157.393C304.154 152.356 303.859 143.109 303.859 139.947C303.859 139.847 303.858 139.739 303.858 139.624C303.853 137.498 303.842 133.042 305.443 128.721C307.563 123.001 312.284 117.787 320.161 115.086C320.248 115.056 320.345 115.023 320.453 114.985C322.542 114.263 328.571 112.177 334.667 111.98C336.683 111.915 339.722 112.01 343.024 112.948C346.09 112.738 348.872 113.066 351.064 113.529C352.93 113.924 355.161 114.585 357.386 115.655Z" fill="black"/>
<path fill-rule="evenodd" clip-rule="evenodd" d="M112.791 104.61C110.7 104.213 108.508 103.994 106.218 103.994C102.537 103.994 93.1364 105.233 89.2241 114.951C87.411 119.455 87.8393 123.637 88.6413 126.611C88.6608 127.392 88.727 128.181 88.8422 128.977C89.5534 133.89 91.9375 137.75 94.0673 140.432C95.1388 141.781 96.3047 142.96 97.5212 143.992C100.371 148.22 104.333 150.931 107.261 152.409C112.493 155.049 118.277 156.033 122.717 156.033C123.205 156.033 123.724 156.025 124.267 156.004C128.861 160.057 135.61 161.182 141.452 158.322C148.826 154.712 150.977 147.858 151.578 144.368C152.191 140.798 151.859 137.463 151.561 135.383C151.046 131.799 149.869 127.629 149.532 126.435C149.489 126.283 149.46 126.18 149.447 126.131C149.444 126.117 149.425 126.027 149.396 125.828C149.354 125.532 149.317 125.2 149.249 124.557C149.243 124.498 149.236 124.428 149.227 124.347C149.128 123.356 148.869 120.783 148.082 118.256C147.055 114.961 144.857 110.679 140.214 107.572C135.959 104.725 131.416 104.071 128.043 103.998C127.96 103.996 127.847 103.993 127.706 103.989C125.876 103.939 119.346 103.76 112.791 104.61Z" fill="black"/>
<path fill-rule="evenodd" clip-rule="evenodd" d="M151.934 299.87C151.934 293.245 158.611 287.875 166.849 287.875H240.973C249.21 287.875 255.888 293.245 255.888 299.87C255.888 306.494 249.21 311.864 240.973 311.864H166.849C158.611 311.864 151.934 306.494 151.934 299.87Z" fill="black"/>
</svg>
