<svg width="59" height="85" viewBox="0 0 59 85" fill="none" xmlns="http://www.w3.org/2000/svg">
<path d="M14.6003 33.9378L0 25.4517V42.424L14.6003 33.9378Z" fill="#BC81B8"/>
<path d="M14.6003 50.8739L0 42.3877V59.3601L14.6003 50.8739Z" fill="#F59379"/>
<path d="M14.5731 33.9378L29.1734 25.4517V42.424L14.5731 33.9378Z" fill="#8777B5"/>
<path d="M14.6003 16.9701L0 8.48389V25.4563L14.6003 16.9701Z" fill="#7D7D7D"/>
<path d="M14.5731 16.9701L29.1734 8.48389V25.4563L14.5731 16.9701Z" fill="#7D7D7D"/>
<path d="M0 42.4217L14.6003 33.9355V50.9079L0 42.4217Z" fill="#BA1F8D"/>
<path d="M29.1734 42.4217L14.5731 33.9355V50.9079L29.1734 42.4217Z" fill="#90298D"/>
<path d="M0 59.3236L14.6003 50.8374V67.8098L0 59.3236Z" fill="#F59379"/>
<path d="M29.1734 59.3236L14.5731 50.8374V67.8098L29.1734 59.3236Z" fill="#F58821"/>
<path d="M0 25.454L14.6003 16.9678V33.9401L0 25.454Z" fill="#90298D"/>
<path d="M29.1734 25.454L14.5731 16.9678V33.9401L29.1734 25.454Z" fill="#90298D"/>
<path d="M0 8.48618L14.6003 0V16.9724L0 8.48618Z" fill="#7D7D7D"/>
<path d="M29.1734 8.48618L14.5731 0V16.9724L29.1734 8.48618Z" fill="#7D7D7D"/>
<path d="M14.5731 50.8739L29.1734 42.3877V59.3601L14.5731 50.8739Z" fill="#F58821"/>
<path d="M43.7465 33.9378L29.1462 25.4517V42.424L43.7465 33.9378Z" fill="#75C8E4"/>
<path d="M43.7465 50.8739L29.1462 42.3877V59.3601L43.7465 50.8739Z" fill="#79C6CD"/>
<path d="M29.1462 42.4217L43.7465 33.9355V50.9079L29.1462 42.4217Z" fill="#75C8E4"/>
<path d="M29.1462 59.3236L43.7465 50.8374V67.8098L29.1462 59.3236Z" fill="#FBE500"/>
<path d="M58.3196 59.3236L43.7216 50.8374V67.8098L58.3196 59.3236Z" fill="#C9DD77"/>
<path d="M14.5731 67.8075L29.1734 59.3213V76.2937L14.5731 67.8075Z" fill="#F9E975"/>
<path d="M43.7465 67.8075L29.1462 59.3213V76.2937L43.7465 67.8075Z" fill="#FBE500"/>
<path d="M29.1462 76.2572L43.7465 67.771V84.7456L29.1462 76.2572Z" fill="#C9DD77"/>
<path d="M58.3196 76.2572L43.7216 67.771V84.7456L58.3196 76.2572Z" fill="#C9DD77"/>
<path d="M43.7216 67.8075L58.3196 59.3213V76.2937L43.7216 67.8075Z" fill="#C9DD77"/>
</svg>
