<?xml version="1.0" encoding="UTF-8" standalone="no"?>
<!-- Created with Inkscape (http://www.inkscape.org/) -->

<svg
   xmlns:dc="http://purl.org/dc/elements/1.1/"
   xmlns:cc="http://creativecommons.org/ns#"
   xmlns:rdf="http://www.w3.org/1999/02/22-rdf-syntax-ns#"
   xmlns:svg="http://www.w3.org/2000/svg"
   xmlns="http://www.w3.org/2000/svg"
   version="1.1"
   width="361.62573"
   height="190.5687"
   id="svg2">
  <defs
     id="defs4">
    <clipPath
       id="clipPath4501">
      <path
         d="m 1247.421,28.346 17.445,0 0,39.268 -17.445,0 0,-39.268 z"
         id="path4503" />
    </clipPath>
    <clipPath
       id="clipPath4417">
      <path
         d="m 805.394,28.346 20.38,0 0,43.534 -20.38,0 0,-43.534 z"
         id="path4419" />
    </clipPath>
    <clipPath
       id="clipPath4333">
      <path
         d="m 1210.302,28.346 20.38,0 0,43.534 -20.38,0 0,-43.534 z"
         id="path4335" />
    </clipPath>
    <clipPath
       id="clipPath4213">
      <path
         d="m 208.006,29.268 30.57,0 0,43.895 -30.57,0 0,-43.895 z"
         id="path4215" />
    </clipPath>
    <clipPath
       id="clipPath4067">
      <path
         d="m 357.206,27.277 19.376,0 0,53.983 -19.376,0 0,-53.983 z"
         id="path4069" />
    </clipPath>
    <clipPath
       id="clipPath4019">
      <path
         d="m 289.311,25.915 52.502,0 0,43.534 -52.502,0 0,-43.534 z"
         id="path4021" />
    </clipPath>
    <clipPath
       id="clipPath3935">
      <path
         d="m 256.891,27.332 20.38,0 0,43.534 -20.38,0 0,-43.534 z"
         id="path3937" />
    </clipPath>
    <clipPath
       id="clipPath3847">
      <path
         d="m 1592.447,27.133 79.37,0 0,60.709 -79.37,0 0,-60.709 z"
         id="path3849" />
    </clipPath>
    <clipPath
       id="clipPath3763">
      <path
         d="m 1592.447,481.181 79.37,0 0,85.151 -79.37,0 0,-85.151 z"
         id="path3765" />
    </clipPath>
    <clipPath
       id="clipPath3735">
      <path
         d="m 1417.323,0 283.465,0 0,595.275 -283.465,0 0,-595.275 z"
         id="path3737" />
    </clipPath>
  </defs>
  <metadata
     id="metadata7">
    <rdf:RDF>
      <cc:Work
         rdf:about="">
        <dc:format>image/svg+xml</dc:format>
        <dc:type
           rdf:resource="http://purl.org/dc/dcmitype/StillImage" />
        <dc:title></dc:title>
      </cc:Work>
    </rdf:RDF>
  </metadata>
  <g
     transform="translate(-192.90205,-205.71827)"
     id="layer1">
    <g
       id="g6483">
      <path
         d="m 336.01328,231.83552 c 11.77645,0 21.33651,9.55267 21.33651,21.33651 0,11.79123 -9.56006,21.3439 -21.33651,21.3439 -11.79123,0 -21.33651,-9.55267 -21.33651,-21.3439 0,-11.78384 9.54528,-21.33651 21.33651,-21.33651 m 0,48.79767 c 15.16015,0 27.45377,-12.29362 27.45377,-27.46116 0,-15.16015 -12.29362,-27.45376 -27.45377,-27.45376 -15.16754,0 -27.46115,12.29361 -27.46115,27.45376 0,15.16754 12.29361,27.46116 27.46115,27.46116"
         id="path3941"
         style="fill:#8cd024;fill-opacity:1;fill-rule:nonzero;stroke:none" />
      <path
         d="m 267.16978,301.00557 c 0,-11.59914 9.40491,-21.00405 21.01144,-21.00405 l 0,-6.00644 c -14.93113,0 -27.03265,12.07936 -27.03265,27.01049 0,14.93113 12.10152,27.03265 27.03265,27.03265 14.93113,0 27.0031,-12.10152 27.0031,-27.03265 l -5.95472,0 c 0,11.60653 -9.44924,21.01144 -21.04838,21.01144 -11.60653,0 -21.01144,-9.40491 -21.01144,-21.01144"
         id="path3945"
         style="fill:#8cd024;fill-opacity:1;fill-rule:nonzero;stroke:none" />
      <path
         d="m 249.17634,301.00409 c 0,21.54338 17.46521,39.00858 39.00858,39.00858 21.53599,0 39.04552,-17.4652 39.04552,-39.00858 l -5.97688,0 c 0,18.23356 -14.84247,33.01692 -33.06864,33.01692 -18.24094,0 -33.01692,-14.78336 -33.01692,-33.01692 0,-18.23356 14.78336,-33.00953 33.01692,-33.00953 l 0,-5.99905 c -21.54337,0 -39.00858,17.4652 -39.00858,39.00858"
         id="path3949"
         style="fill:#8cd024;fill-opacity:1;fill-rule:nonzero;stroke:none" />
      <path
         d="m 237.0689,301.00409 c 0,28.2295 22.88799,51.11011 51.11011,51.11011 28.2295,0 51.05839,-22.88061 51.05839,-51.11011 l -6.02122,0 c 0,24.85319 -20.18398,45.00024 -45.03717,45.00024 -24.8532,0 -44.99286,-20.14705 -44.99286,-45.00024 0,-24.84581 20.13966,-44.99285 44.99286,-44.99285 l 0.007,-6.05815 c -28.2295,0 -51.11749,22.8215 -51.11749,51.051"
         id="path3953"
         style="fill:#8cd024;fill-opacity:1;fill-rule:nonzero;stroke:none" />
      <path
         d="m 288.18344,237.76881 c -34.92302,0 -63.2338,28.31077 -63.2338,63.2338 0,34.92302 28.31078,63.23379 63.2338,63.23379 34.92302,0 63.18947,-28.30338 63.18947,-63.22641 l -6.00644,-0.007 c 0,31.56148 -25.62893,57.1387 -57.18303,57.1387 -31.56149,0 -57.1387,-25.57722 -57.1387,-57.1387 0,-31.5541 25.57721,-57.13871 57.1387,-57.13871 l 0,-6.09509 z"
         id="path3957"
         style="fill:#8cd024;fill-opacity:1;fill-rule:nonzero;stroke:none" />
      <path
         d="m 288.18565,370.28791 c -38.26978,0 -69.29195,-31.02216 -69.29195,-69.28456 0,-38.26978 31.02217,-69.28456 69.29195,-69.28456 l 0,-5.99904 c -41.5796,0 -75.2836,33.704 -75.2836,75.2836 0,41.5796 33.704,75.28361 75.2836,75.28361 41.5796,0 75.2836,-33.70401 75.2836,-75.28361 l -5.95471,0 c 0,38.2624 -31.0665,69.28456 -69.32889,69.28456"
         id="path3961"
         style="fill:#8cd024;fill-opacity:1;fill-rule:nonzero;stroke:none" />
      <path
         d="m 398.69814,291.46176 c 3.00691,0 6.70091,-0.67231 8.71783,-1.61797 l 0,-16.30529 -10.26192,0 0,5.12726 4.07817,0 0,7.3215 c -0.71663,0.1256 -1.80267,0.17731 -2.68923,0.17731 -4.54361,0 -8.06768,-2.40109 -8.06768,-10.10677 0,-7.58007 3.56101,-9.98856 8.85081,-9.98856 2.2164,0 5.13465,0.47283 6.98165,1.22641 l 0.63537,-5.17898 c -2.05387,-0.82746 -5.40062,-1.34462 -7.96426,-1.34462 -9.13155,0 -15.01978,4.78003 -15.01978,15.36702 0,10.35057 5.45234,15.32269 14.73904,15.32269"
         id="path3965"
         style="fill:#8cd024;fill-opacity:1;fill-rule:nonzero;stroke:none" />
      <path
         d="m 502.15584,290.87146 6.35367,0 0,-29.61845 -6.35367,0 0,11.69519 -9.52312,0 0,-11.69519 -6.36106,0 0,29.61845 6.36106,0 0,-12.64085 9.52312,0 0,12.64085 z"
         id="path3969"
         style="fill:#8cd024;fill-opacity:1;fill-rule:nonzero;stroke:none" />
      <path
         d="m 476.25947,290.87146 0,-24.29171 6.43494,0 0,-5.32674 -19.30482,0 0,5.32674 6.43494,0 0,24.29171 6.43494,0 z"
         id="path3973"
         style="fill:#8cd024;fill-opacity:1;fill-rule:nonzero;stroke:none" />
      <path
         d="m 448.42374,278.26238 10.454,0 0,-5.22331 -10.454,0 0,-6.50143 12.31578,0 0,-5.2898 -18.67684,0 0,29.62584 19.09056,0 0,-5.2898 -12.7295,0 0,-7.3215 z"
         id="path3977"
         style="fill:#8cd024;fill-opacity:1;fill-rule:nonzero;stroke:none" />
      <path
         d="m 424.62481,265.65256 c 4.03384,0 5.96949,2.52669 5.96949,10.38751 0,7.82388 -1.93565,10.46878 -5.92516,10.46878 -4.03384,0 -6.00644,-2.60796 -6.00644,-10.46878 0,-7.82388 1.9726,-10.38751 5.96211,-10.38751 m 0,26.08699 c 8.41492,0 12.47831,-4.52145 12.47831,-15.69948 0,-10.94161 -4.06339,-15.65515 -12.47831,-15.65515 -8.41492,0 -12.47831,4.71354 -12.47831,15.65515 0,10.94161 4.22593,15.69948 12.47831,15.69948"
         id="path3981"
         style="fill:#8cd024;fill-opacity:1;fill-rule:nonzero;stroke:none" />
      <path
         d="m 533.89908,285.58683 -12.7295,0 0,-7.3215 10.454,0 0,-5.23069 -10.454,0 0,-6.50143 12.30838,0 0,-5.28241 -18.66944,0 0,29.61844 19.09056,0 0,-5.28241 z"
         id="path3985"
         style="fill:#8cd024;fill-opacity:1;fill-rule:nonzero;stroke:none" />
      <path
         d="m 441.20272,306.18159 5.88823,0 0,23.44209 6.2133,0 0,-23.44209 5.88822,0 0,-5.14943 -17.98975,0 0,5.14943 z"
         id="path3989"
         style="fill:#8cd024;fill-opacity:1;fill-rule:nonzero;stroke:none" />
      <path
         d="m 392.36885,329.62368 0,-28.58413 -6.2724,0 0,28.58413 6.2724,0 z"
         id="path3991"
         style="fill:#8cd024;fill-opacity:1;fill-rule:nonzero;stroke:none" />
      <path
         d="m 507.48923,319.67797 c 0,3.31721 -1.13775,5.14943 -4.22593,5.14943 -3.06601,0 -4.27026,-1.86916 -4.27026,-5.14943 l 0,-18.6399 -6.22068,0 0,18.86893 c 0,6.86344 3.53146,10.2102 10.47616,10.2102 6.86345,0 10.3949,-3.34676 10.3949,-10.2102 l 0,-18.86893 -6.15419,0 0,18.6399 z"
         id="path3995"
         style="fill:#8cd024;fill-opacity:1;fill-rule:nonzero;stroke:none" />
      <path
         d="m 429.2098,308.65509 c 0,-1.4776 0.76096,-2.94781 3.87131,-2.94781 1.95043,0 3.67921,0.52455 5.408,1.27812 l 0.68709,-4.99428 c -1.97998,-0.91611 -4.03385,-1.4111 -6.62703,-1.4111 -6.59747,0 -9.44185,3.8122 -9.44185,8.65133 0,9.19805 11.36273,7.43971 11.36273,12.54481 0,1.9652 -1.2338,3.28765 -3.83437,3.28765 -2.55624,0 -4.72092,-0.86439 -6.84866,-2.06863 l -0.79791,5.1051 c 2.20901,1.29289 4.94257,2.01692 7.91993,2.01692 6.17636,0 9.67087,-3.42803 9.67087,-9.02813 0,-9.50095 -11.37011,-8.01596 -11.37011,-12.43398"
         id="path3999"
         style="fill:#8cd024;fill-opacity:1;fill-rule:nonzero;stroke:none" />
      <path
         d="m 413.07222,317.72532 -8.79171,-16.68947 -5.67397,0 0,28.59152 5.67397,0 0,-16.68947 8.79171,16.68947 5.67398,0 0,-28.59152 -5.67398,0 0,16.68947 z"
         id="path4003"
         style="fill:#8cd024;fill-opacity:1;fill-rule:nonzero;stroke:none" />
      <path
         d="m 516.53804,301.03512 0,5.14943 5.88823,0 0,23.44209 6.2133,0 0,-23.44209 5.88822,0 0,-5.14943 -17.98975,0 z"
         id="path4007"
         style="fill:#8cd024;fill-opacity:1;fill-rule:nonzero;stroke:none" />
      <path
         d="m 468.64245,329.62368 0,-28.58413 -6.2724,0 0,28.58413 6.2724,0 z"
         id="path4009"
         style="fill:#8cd024;fill-opacity:1;fill-rule:nonzero;stroke:none" />
      <path
         d="m 471.81929,306.18159 5.88823,0 0,23.44209 6.2133,0 0,-23.44209 5.88822,0 0,-5.14943 -17.98975,0 0,5.14943 z"
         id="path4013"
         style="fill:#8cd024;fill-opacity:1;fill-rule:nonzero;stroke:none" />
    </g>
  </g>
</svg>
