<svg width="594" height="320" viewBox="0 0 594 320" fill="none" xmlns="http://www.w3.org/2000/svg">
<path d="M45.389 272.334H181.556V317.723H0V136.167H45.389V272.334Z" fill="black"/>
<path d="M317.723 317.723H272.334V181.556H136.167V45.389H0V0H181.556V136.167H317.723V317.723Z" fill="black"/>
<path d="M474.104 178.739C466.113 178.739 460.393 176.131 460.393 166.878V143.745H454.673V135.165H460.393V121.537H473.768V135.165H481.591V143.745H473.768V163.934C473.768 167.299 475.619 168.14 478.563 168.14C479.74 168.14 481.086 168.056 481.591 168.056V178.066C480.413 178.403 477.806 178.739 474.104 178.739Z" fill="black"/>
<path d="M436.737 178.234V135.165H450.449V178.234H436.737ZM436.737 129.192V118.088H450.449V129.192H436.737Z" fill="black"/>
<path d="M363.625 178.234V135.165H376.747V141.306H377C379.692 136.847 383.813 133.903 390.038 133.903C395.674 133.903 399.965 136.847 402.152 141.474H402.32C405.685 136.258 410.311 133.903 415.863 133.903C425.621 133.903 430.5 140.549 430.5 150.222V178.234H416.789V152.662C416.789 148.035 414.854 145.343 410.732 145.343C406.358 145.343 403.918 148.961 403.918 154.092V178.234H390.207V152.662C390.207 148.035 388.272 145.343 384.15 145.343C379.86 145.343 377.336 148.961 377.336 154.092V178.234H363.625Z" fill="black"/>
<path d="M456.084 319.068C450.364 319.068 445.737 316.713 443.045 312.255H442.877V317.722H429.754V257.576H443.466V279.532H443.718C446.41 275.831 450.111 273.391 456 273.391C467.188 273.391 474.422 283.233 474.422 296.188C474.422 310.488 467.188 319.068 456.084 319.068ZM452.214 308.217C457.598 308.217 460.542 303.59 460.542 296.104C460.542 288.701 457.598 283.822 452.046 283.822C445.989 283.822 443.045 289.122 443.045 296.188C443.045 303.338 446.578 308.217 452.214 308.217Z" fill="black"/>
<path d="M396.946 318.816C388.366 318.816 382.225 314.189 382.225 305.693C382.225 296.188 389.796 293.328 398.713 292.15C406.788 291.14 409.648 290.299 409.648 287.355C409.648 284.579 407.882 282.728 403.76 282.728C399.386 282.728 397.199 284.663 396.778 288.28H384.16C384.496 280.289 390.637 273.475 403.676 273.475C410.153 273.475 414.527 274.653 417.64 277.008C421.341 279.7 423.108 283.906 423.108 289.29V310.993C423.108 314.442 423.444 316.377 424.622 317.134V317.722H411.331C410.658 316.797 410.237 315.115 409.901 312.928H409.732C407.209 316.545 403.423 318.816 396.946 318.816ZM401.32 310.068C406.452 310.068 409.985 306.955 409.985 302.329V297.197C408.218 298.122 405.695 298.795 402.919 299.468C397.619 300.646 395.432 301.992 395.432 305.273C395.432 308.722 397.956 310.068 401.32 310.068Z" fill="black"/>
<path d="M363.709 317.722V257.576H377.589V317.722H363.709Z" fill="black"/>
<path d="M566.255 245.197C557.674 245.197 551.534 240.571 551.534 232.075C551.534 222.569 559.104 219.709 568.021 218.531C576.097 217.522 578.957 216.681 578.957 213.736C578.957 210.96 577.19 209.11 573.068 209.11C568.694 209.11 566.507 211.045 566.086 214.662H553.468C553.805 206.67 559.946 199.857 572.984 199.857C579.462 199.857 583.836 201.034 586.948 203.39C590.65 206.081 592.416 210.287 592.416 215.671V237.374C592.416 240.823 592.753 242.758 593.93 243.515V244.104H580.639C579.966 243.179 579.546 241.496 579.209 239.309H579.041C576.517 242.926 572.732 245.197 566.255 245.197ZM570.629 236.449C575.76 236.449 579.293 233.336 579.293 228.71V223.578C577.527 224.504 575.003 225.177 572.227 225.85C566.928 227.027 564.741 228.373 564.741 231.654C564.741 235.103 567.264 236.449 570.629 236.449Z" fill="black"/>
<path d="M533.261 244.104V201.034H546.973V244.104H533.261ZM533.261 195.062V183.958H546.973V195.062H533.261Z" fill="black"/>
<path d="M500.717 245.45C489.697 245.45 481.874 236.954 481.874 222.569C481.874 209.11 489.613 199.772 500.717 199.772C506.773 199.772 510.222 202.296 512.746 205.913H512.998V183.958H526.71V244.104H513.587V238.299H513.419C510.811 242.758 506.353 245.45 500.717 245.45ZM504.25 234.598C509.97 234.598 513.335 229.635 513.335 222.569C513.335 215.335 510.391 210.119 504.418 210.119C498.95 210.119 495.754 215.166 495.754 222.401C495.754 229.887 498.95 234.598 504.25 234.598Z" fill="black"/>
<path d="M457.768 245.366C443.551 245.366 434.803 235.523 434.803 222.485C434.803 209.614 443.804 199.772 456.926 199.772C463.067 199.772 467.946 201.791 471.647 205.156C476.779 209.867 479.302 217.354 479.218 226.102H448.262C449.103 231.906 452.3 235.523 457.936 235.523C461.553 235.523 463.908 233.925 465.086 231.233H478.461C477.536 235.103 475.012 238.804 471.227 241.412C467.61 243.936 463.235 245.366 457.768 245.366ZM448.346 217.942H465.338C464.834 212.811 461.637 209.53 457.179 209.53C451.963 209.53 449.271 212.811 448.346 217.942Z" fill="black"/>
<path d="M363.625 244.104V201.034H376.747V207.175H377C379.692 202.717 383.813 199.772 390.038 199.772C395.674 199.772 399.965 202.717 402.152 207.343H402.32C405.685 202.128 410.311 199.772 415.863 199.772C425.621 199.772 430.5 206.418 430.5 216.092V244.104H416.789V218.531C416.789 213.905 414.854 211.213 410.732 211.213C406.358 211.213 403.918 214.83 403.918 219.961V244.104H390.207V218.531C390.207 213.905 388.272 211.213 384.15 211.213C379.86 211.213 377.336 214.83 377.336 219.961V244.104H363.625Z" fill="black"/>
</svg>
