<svg width="309" height="37" viewBox="0 0 309 37" fill="none" xmlns="http://www.w3.org/2000/svg">
<path d="M308.896 18.1109C308.896 20.852 308.423 23.3647 307.476 25.649C306.53 27.9006 305.209 29.8422 303.512 31.4738C301.847 33.0728 299.857 34.3128 297.54 35.1939C295.223 36.075 292.71 36.5155 290.002 36.5155C287.293 36.5155 284.781 36.075 282.464 35.1939C280.18 34.3128 278.189 33.0728 276.492 31.4738C274.828 29.8422 273.523 27.9006 272.576 25.649C271.63 23.3647 271.157 20.852 271.157 18.1109C271.157 15.3372 271.63 12.8408 272.576 10.6218C273.523 8.37017 274.828 6.46119 276.492 4.89484C278.189 3.32849 280.18 2.1211 282.464 1.27266C284.781 0.42422 287.293 0 290.002 0C292.71 0 295.223 0.42422 297.54 1.27266C299.857 2.1211 301.847 3.32849 303.512 4.89484C305.209 6.46119 306.53 8.37017 307.476 10.6218C308.423 12.8408 308.896 15.3372 308.896 18.1109ZM299.938 18.1109C299.938 16.6098 299.694 15.2066 299.204 13.9013C298.715 12.5961 298.029 11.4866 297.148 10.5729C296.3 9.62652 295.256 8.89229 294.016 8.37017C292.808 7.81542 291.47 7.53805 290.002 7.53805C288.533 7.53805 287.196 7.81542 285.988 8.37017C284.781 8.89229 283.737 9.62652 282.855 10.5729C281.974 11.4866 281.289 12.5961 280.8 13.9013C280.343 15.2066 280.114 16.6098 280.114 18.1109C280.114 19.6773 280.359 21.1294 280.849 22.4673C281.338 23.7726 282.007 24.8984 282.855 25.8447C283.737 26.7911 284.781 27.5416 285.988 28.0964C287.196 28.6185 288.533 28.8795 290.002 28.8795C291.47 28.8795 292.808 28.6185 294.016 28.0964C295.223 27.5416 296.267 26.7911 297.148 25.8447C298.029 24.8984 298.715 23.7726 299.204 22.4673C299.694 21.1294 299.938 19.6773 299.938 18.1109Z" fill="black"/>
<path d="M269.758 30.7885C268.225 32.5507 266.332 33.9539 264.08 34.9981C261.829 36.0097 259.234 36.5155 256.298 36.5155C253.622 36.5155 251.142 36.075 248.857 35.1939C246.606 34.3128 244.648 33.0728 242.984 31.4738C241.319 29.8422 240.014 27.9006 239.068 25.649C238.121 23.3973 237.648 20.9173 237.648 18.2088C237.648 15.4351 238.121 12.9224 239.068 10.6707C240.047 8.41912 241.385 6.51014 243.081 4.94379C244.778 3.34481 246.769 2.1211 249.053 1.27266C251.337 0.42422 253.801 0 256.444 0C258.892 0 261.29 0.440536 263.64 1.32161C266.022 2.17005 267.947 3.42639 269.416 5.09063L263.738 10.7686C262.955 9.69178 261.927 8.89229 260.654 8.37017C259.381 7.84806 258.076 7.587 256.738 7.587C255.27 7.587 253.915 7.86438 252.675 8.41912C251.468 8.94124 250.424 9.67546 249.543 10.6218C248.662 11.5681 247.976 12.6939 247.487 13.9992C246.997 15.2719 246.753 16.6751 246.753 18.2088C246.753 19.7751 246.997 21.211 247.487 22.5163C247.976 23.8215 248.645 24.9474 249.494 25.8937C250.375 26.8074 251.419 27.5253 252.626 28.0474C253.834 28.5695 255.155 28.8306 256.591 28.8306C258.255 28.8306 259.708 28.5043 260.948 27.8516C262.188 27.199 263.183 26.3505 263.933 25.3063L269.758 30.7885Z" fill="black"/>
<path d="M233.301 31.2784C233.301 32.6489 232.812 33.7911 231.833 34.7048C230.887 35.6185 229.745 36.0753 228.407 36.0753C227.721 36.0753 227.069 35.9448 226.449 35.6837C225.861 35.4553 225.339 35.129 224.882 34.7048C224.425 34.2806 224.067 33.7911 223.805 33.2363C223.544 32.6489 223.414 32.0126 223.414 31.3273C223.414 30.6747 223.544 30.0547 223.805 29.4673C224.067 28.8799 224.425 28.3741 224.882 27.9499C225.339 27.493 225.861 27.1341 226.449 26.873C227.069 26.612 227.721 26.4814 228.407 26.4814C229.745 26.4814 230.887 26.9383 231.833 27.852C232.812 28.7657 233.301 29.9078 233.301 31.2784Z" fill="black"/>
<path d="M209.088 35.5856V21.0969H195.578V35.5856H187.208V0.930176H195.578V14.0483H209.088V0.930176H217.458V35.5856H209.088Z" fill="black"/>
<path d="M173.598 8.07664V35.5856H165.228V8.07664H155.438V0.930176H183.387V8.07664H173.598Z" fill="black"/>
<path d="M129.034 35.5856V0.930176H152.333V8.02769H137.11V14.5378H151.501V21.2438H137.11V28.4392H153.214V35.5856H129.034Z" fill="black"/>
<path d="M125.447 30.7885C123.913 32.5507 122.02 33.9539 119.769 34.9981C117.517 36.0097 114.923 36.5155 111.986 36.5155C109.31 36.5155 106.83 36.075 104.546 35.1939C102.294 34.3128 100.336 33.0728 98.6719 31.4738C97.0077 29.8422 95.7024 27.9006 94.756 25.649C93.8097 23.3973 93.3365 20.9173 93.3365 18.2088C93.3365 15.4351 93.8097 12.9224 94.756 10.6707C95.735 8.41912 97.0729 6.51014 98.7698 4.94379C100.467 3.34481 102.457 2.1211 104.742 1.27266C107.026 0.42422 109.49 0 112.133 0C114.58 0 116.979 0.440536 119.328 1.32161C121.71 2.17005 123.636 3.42639 125.104 5.09063L119.426 10.7686C118.643 9.69178 117.615 8.89229 116.342 8.37017C115.07 7.84806 113.764 7.587 112.426 7.587C110.958 7.587 109.604 7.86438 108.364 8.41912C107.156 8.94124 106.112 9.67546 105.231 10.6218C104.35 11.5681 103.665 12.6939 103.175 13.9992C102.686 15.2719 102.441 16.6751 102.441 18.2088C102.441 19.7751 102.686 21.211 103.175 22.5163C103.665 23.8215 104.334 24.9474 105.182 25.8937C106.063 26.8074 107.107 27.5253 108.315 28.0474C109.522 28.5695 110.844 28.8306 112.28 28.8306C113.944 28.8306 115.396 28.5043 116.636 27.8516C117.876 27.199 118.871 26.3505 119.622 25.3063L125.447 30.7885Z" fill="black"/>
<path d="M83.6477 35.5856L80.9555 28.7818H67.5437L64.9984 35.5856H55.894L70.4316 0.930176H78.5571L92.9479 35.5856H83.6477ZM74.3475 10.1814L69.9422 22.0759H78.655L74.3475 10.1814Z" fill="black"/>
<path d="M58.0439 11.6009C58.0439 13.6241 57.6687 15.3373 56.9181 16.7405C56.1676 18.1111 55.156 19.2206 53.8833 20.069C52.6107 20.9174 51.1422 21.5374 49.478 21.929C47.8137 22.3206 46.0842 22.5164 44.2895 22.5164H40.1288V35.5856H31.7587V0.930176H44.4852C46.3779 0.930176 48.1401 1.12597 49.7717 1.51755C51.4359 1.87651 52.8717 2.48021 54.0791 3.32864C55.3192 4.14445 56.2818 5.23763 56.9671 6.60819C57.685 7.94611 58.0439 9.61035 58.0439 11.6009ZM49.6738 11.6499C49.6738 10.8341 49.5106 10.1651 49.1843 9.64298C48.858 9.12087 48.4174 8.71297 47.8627 8.41928C47.3079 8.12559 46.6716 7.92979 45.9537 7.83189C45.2684 7.734 44.5505 7.68505 43.8 7.68505H40.1288V15.8594H43.6531C44.4363 15.8594 45.1868 15.7942 45.9047 15.6636C46.6227 15.5331 47.259 15.3047 47.8137 14.9784C48.4011 14.652 48.858 14.2278 49.1843 13.7057C49.5106 13.151 49.6738 12.4657 49.6738 11.6499Z" fill="black"/>
<path d="M21.1457 9.93738C20.4278 9.02367 19.4815 8.30576 18.3067 7.78365C17.1646 7.2289 16.0551 6.95152 14.9782 6.95152C14.4235 6.95152 13.8524 7.00047 13.265 7.09837C12.7103 7.19627 12.2045 7.39206 11.7476 7.68575C11.2908 7.94681 10.8992 8.30576 10.5728 8.76262C10.2792 9.18684 10.1323 9.74158 10.1323 10.4269C10.1323 11.0142 10.2465 11.5037 10.475 11.8953C10.736 12.2869 11.095 12.6295 11.5518 12.9232C12.0413 13.2169 12.6124 13.4943 13.265 13.7553C13.9177 13.9838 14.6519 14.2285 15.4677 14.4896C16.6424 14.8812 17.8662 15.3217 19.1388 15.8112C20.4115 16.268 21.5699 16.888 22.6142 17.6712C23.6584 18.4544 24.5231 19.4334 25.2084 20.6081C25.8937 21.7503 26.2363 23.1861 26.2363 24.9156C26.2363 26.9061 25.8611 28.6357 25.1105 30.1041C24.3926 31.5399 23.4136 32.731 22.1736 33.6773C20.9336 34.6237 19.5141 35.3253 17.9151 35.7821C16.3161 36.239 14.6682 36.4674 12.9713 36.4674C10.4913 36.4674 8.0928 36.0432 5.77591 35.1947C3.45902 34.3137 1.53372 33.0736 0 31.4747L5.48222 25.8945C6.33066 26.9388 7.44015 27.8199 8.81071 28.5378C10.2139 29.223 11.6008 29.5657 12.9713 29.5657C13.5913 29.5657 14.195 29.5004 14.7824 29.3699C15.3698 29.2394 15.8756 29.0272 16.2998 28.7336C16.7567 28.4399 17.1156 28.0483 17.3767 27.5588C17.6377 27.0693 17.7683 26.4819 17.7683 25.7967C17.7683 25.144 17.6051 24.5893 17.2788 24.1324C16.9525 23.6756 16.4793 23.2677 15.8593 22.9087C15.2719 22.5171 14.5214 22.1745 13.6076 21.8808C12.7266 21.5545 11.715 21.2118 10.5728 20.8529C9.46335 20.4939 8.37017 20.0697 7.29331 19.5802C6.24908 19.0907 5.30274 18.4707 4.4543 17.7202C3.6385 16.937 2.96954 16.007 2.44742 14.9301C1.95794 13.8206 1.71319 12.4827 1.71319 10.9163C1.71319 8.99104 2.10478 7.34311 2.88795 5.97256C3.67113 4.602 4.69904 3.47619 5.9717 2.59512C7.24436 1.71405 8.68018 1.07772 10.2792 0.686131C11.8781 0.261914 13.4934 0.0498047 15.125 0.0498047C17.083 0.0498047 19.0736 0.408759 21.0968 1.12667C23.1526 1.84458 24.9474 2.90512 26.4811 4.30831L21.1457 9.93738Z" fill="black"/>
</svg>
