<svg width="185" height="57" viewBox="0 0 185 57" fill="none" xmlns="http://www.w3.org/2000/svg">
<g clip-path="url(#clip0_330_219)">
<path d="M96.6103 29.0121L105.313 19.9354C105.889 19.2932 106.184 18.5429 106.184 17.843C106.184 17.0277 105.896 16.2773 105.256 15.6351C104.68 15.0579 103.982 14.8198 103.226 14.8198C102.412 14.8198 101.548 15.1662 100.908 15.866L91.521 26.1405C90.7076 27.0135 90.2469 28.002 90.2469 29.041C90.2469 30.0872 90.7076 31.1334 91.5786 32.1218L101.196 42.8075C101.836 43.5074 102.7 43.8537 103.514 43.8537C104.327 43.8537 105.076 43.5651 105.716 42.923C106.357 42.2808 106.703 41.4727 106.703 40.6574C106.703 39.8421 106.357 39.034 105.716 38.3918L96.6103 29.0121Z" fill="#1D252C"/>
<path d="M78.0311 14.8271H59.38C57.7603 14.8271 56.6014 15.9888 56.6014 17.6122C56.6014 19.2934 57.7603 20.455 59.38 20.455H65.5203V40.6647C65.5203 42.584 66.7944 43.8611 68.7092 43.8611C70.6239 43.8611 71.8981 42.584 71.8981 40.6647V20.455H78.0383C79.658 20.455 80.8169 19.2934 80.8169 17.6122C80.8097 15.9888 79.6508 14.8271 78.0311 14.8271Z" fill="#1D252C"/>
<path d="M86.3093 14.8271C84.3945 14.8271 83.1204 16.1042 83.1204 18.0235V40.672C83.1204 42.5912 84.3945 43.8683 86.3093 43.8683C88.2241 43.8683 89.4982 42.5912 89.4982 40.672V18.0163C89.4982 16.1042 88.2241 14.8271 86.3093 14.8271Z" fill="#1D252C"/>
<path d="M183.927 40.4337L176.801 33.1752V32.8289L183.64 25.7436C183.985 25.2818 184.158 24.8128 184.158 24.4665C184.158 23.947 184.043 23.5357 183.582 23.1317C183.236 22.8431 182.884 22.6699 182.365 22.6699C181.847 22.6699 181.379 22.8431 180.918 23.2471L173.734 31.1406C173.159 31.7827 172.921 32.4754 172.921 33.0021C172.921 33.7019 173.151 34.3946 173.792 35.0945L181.091 43.2837C181.494 43.63 181.905 43.8609 182.596 43.8609C183.056 43.8609 183.524 43.6878 183.927 43.3414C184.388 42.9374 184.503 42.4684 184.503 41.9489C184.503 41.3573 184.331 40.8955 183.927 40.4337Z" fill="#1D252C"/>
<path d="M164.139 22.6626C161.663 22.6626 159.302 24.2211 157.768 26.5877V24.4592C157.768 23.3553 157.07 22.6626 155.976 22.6626C154.875 22.6626 154.183 23.3625 154.183 24.4592V42.0498C154.183 43.1537 154.882 43.8464 155.976 43.8464C157.077 43.8464 157.768 43.1465 157.768 42.0498V32.5258C157.826 28.0523 160.842 26.3135 163.851 26.3135C165.068 26.3135 165.823 25.5559 165.823 24.3365C165.816 23.3625 165.125 22.6626 164.139 22.6626Z" fill="#1D252C"/>
<path d="M170.43 14.8271C169.329 14.8271 168.638 15.527 168.638 16.6237V42.0573C168.638 43.1612 169.336 43.8539 170.43 43.8539C171.532 43.8539 172.223 43.154 172.223 42.0573V16.6237C172.223 15.5198 171.532 14.8271 170.43 14.8271Z" fill="#1D252C"/>
<path d="M121.747 14.8271H112.792C111.633 14.8271 110.878 15.5847 110.878 16.7464V41.949C110.878 43.1107 111.633 43.8683 112.792 43.8683C113.951 43.8683 114.707 43.1107 114.707 41.949V32.7136H121.747C127.189 32.7136 130.839 29.1132 130.839 23.774C130.839 18.4275 127.189 14.8271 121.747 14.8271ZM121.747 29.2287H114.707V18.3121H121.747C124.936 18.3121 127.017 20.5199 127.017 23.7668C127.017 27.0208 124.936 29.2287 121.747 29.2287Z" fill="#1D252C"/>
<path d="M141.126 22.6626C138.405 22.6626 136.259 23.5356 134.345 25.1591C133.646 25.7363 133.646 26.7825 134.229 27.4823C134.805 28.1822 135.734 28.1245 136.605 27.4246C137.821 26.4939 139.153 25.9166 141.01 25.9166C144.43 25.9166 145.934 28.2977 145.934 30.7364V31.1404H140.255C135.907 31.1404 132.898 33.6369 132.898 37.3527C132.898 41.2417 135.504 43.8536 139.499 43.8536C142.284 43.8536 144.538 42.6198 145.927 40.5491V42.057C145.927 43.161 146.625 43.8536 147.719 43.8536C148.813 43.8536 149.512 43.1537 149.512 42.057V30.5632C149.526 26.3207 146.805 22.6626 141.126 22.6626ZM140.434 40.8954C137.944 40.8954 136.497 39.5606 136.497 37.3527C136.497 35.318 137.886 34.0987 140.262 34.0987H145.941V35.2026C145.934 38.3917 143.674 40.8954 140.434 40.8954Z" fill="#1D252C"/>
<path d="M9.72512 2.74894L6.37784 3.65084L5.44204 0.158691L0.633484 5.18768L4.28309 18.846L8.37181 17.7493C8.47979 15.426 10.2578 13.5429 12.5325 13.2903L9.72512 2.74894Z" fill="#F43340"/>
<path d="M27.894 9.68287L20.7531 2.52541C19.5294 1.29882 17.5426 1.29882 16.3189 2.52541C15.0951 3.75199 15.0951 5.74338 16.3189 6.96996L22.5887 13.2544H29.7656C28.7866 12.3236 28.1099 11.0826 27.894 9.68287Z" fill="#F43340"/>
<path d="M34.0847 13.4201C36.6807 13.4201 38.7853 11.3107 38.7853 8.70859C38.7853 6.10649 36.6807 3.99707 34.0847 3.99707C31.4886 3.99707 29.3841 6.10649 29.3841 8.70859C29.3841 11.3107 31.4886 13.4201 34.0847 13.4201Z" fill="#F43340"/>
<path d="M26.9294 54.7128C27.3757 56.3868 29.0961 57.3825 30.7662 56.9351C32.4362 56.4878 33.4296 54.7634 32.9833 53.0894L30.0103 41.9636L32.5802 39.3878L30.7086 32.3818L24.302 38.8034C23.5102 39.597 23.2006 40.7515 23.4886 41.841L26.9294 54.7128Z" fill="#F43340"/>
<path d="M34.7757 41.5307L29.3193 21.1117H13.0724C11.3448 21.1117 9.9411 19.7047 9.9411 17.9731C9.9411 16.2414 11.3448 14.8345 13.0724 14.8345H31.7236C33.1417 14.8345 34.387 15.7869 34.7541 17.165L39.4331 34.6546L44.9975 29.0773C46.2213 27.8507 48.208 27.8507 49.4318 29.0773C50.6555 30.3038 50.6555 32.2952 49.4318 33.5218L40.0162 42.9376C39.2532 43.7024 38.1086 44.0488 36.9857 43.753C35.8699 43.4499 35.0565 42.5769 34.7757 41.5307Z" fill="#F43340"/>
</g>
<defs>
<clipPath id="clip0_330_219">
<rect width="185" height="57" fill="white"/>
</clipPath>
</defs>
</svg>
