<svg width="240" height="61" viewBox="0 0 240 61" fill="none" xmlns="http://www.w3.org/2000/svg">
<path d="M31.7949 47.9031V46.3823C31.7783 46.1346 31.6624 45.9029 31.4719 45.7368C31.2814 45.5706 31.0314 45.4831 30.7752 45.4929H13.0359C12.7797 45.4831 12.5297 45.5706 12.3392 45.7368C12.1487 45.9029 12.0328 46.1346 12.0162 46.3823V47.9031C12.013 48.1149 12.0881 48.321 12.2279 48.484C12.3677 48.6471 12.563 48.7564 12.7787 48.7924C12.563 48.8284 12.3677 48.9378 12.2279 49.1008C12.0881 49.2639 12.013 49.4699 12.0162 49.6818V51.2026C12.013 51.4144 12.0881 51.6205 12.2279 51.7835C12.3677 51.9465 12.563 52.0559 12.7787 52.0919C12.563 52.1279 12.3677 52.2373 12.2279 52.4003C12.0881 52.5634 12.013 52.7694 12.0162 52.9813V54.5021C12.0328 54.7498 12.1487 54.9814 12.3392 55.1476C12.5297 55.3137 12.7797 55.4012 13.0359 55.3914H30.766C31.0222 55.4012 31.2722 55.3137 31.4627 55.1476C31.6532 54.9814 31.7691 54.7498 31.7857 54.5021V52.9724C31.7889 52.7605 31.7138 52.5545 31.574 52.3914C31.4342 52.2284 31.2389 52.119 31.0232 52.083C31.2389 52.047 31.4342 51.9377 31.574 51.7746C31.7138 51.6116 31.7889 51.4056 31.7857 51.1937V49.6818C31.7889 49.4699 31.7138 49.2639 31.574 49.1008C31.4342 48.9378 31.2389 48.8284 31.0232 48.7924C31.2406 48.7583 31.4381 48.6498 31.5797 48.4865C31.7214 48.3233 31.7977 48.1162 31.7949 47.9031ZM23.3433 52.5366C23.3433 52.6695 23.2894 52.7971 23.1931 52.8919C23.0969 52.9868 22.9661 53.0412 22.8288 53.0435H13.8811C13.7438 53.0412 13.613 52.9868 13.5167 52.8919C13.4205 52.7971 13.3666 52.6695 13.3666 52.5366V51.6472C13.3666 51.5143 13.4205 51.3867 13.5167 51.2919C13.613 51.1971 13.7438 51.1426 13.8811 51.1403H22.8288C22.9661 51.1426 23.0969 51.1971 23.1931 51.2919C23.2894 51.3867 23.3433 51.5143 23.3433 51.6472V52.5366ZM29.094 49.1393C29.094 49.4239 28.7266 49.6462 28.2764 49.6462H14.1751C13.7249 49.6462 13.3574 49.415 13.3574 49.1393V48.2499C13.3574 47.9653 13.7249 47.743 14.1751 47.743H28.2764C28.7266 47.743 29.094 47.9742 29.094 48.2499V49.1393Z" fill="#231F20"/>
<path d="M21.901 60.9588C26.4943 60.9588 30.2608 58.6731 30.2608 55.8628H13.5504C13.5504 58.6998 17.2893 60.9588 21.901 60.9588Z" fill="#231F20"/>
<path d="M19.9441 45.0374H13.4676C13.2235 45.039 12.9856 44.9634 12.7899 44.8222C12.5942 44.6809 12.4516 44.4817 12.3836 44.2547C12.0358 42.8553 11.9333 41.4093 12.0804 39.977C12.1631 38.1983 12.2366 36.7219 11.2904 35.4235C9.35199 32.7554 5.77841 26.3966 5.44769 25.7473C5.09861 25.4094 3.61038 24.4044 2.6366 23.7374C1.83737 23.1237 1.02895 22.6257 0.4502 22.2344C0.308739 22.1304 0.194362 21.9958 0.116203 21.8414C0.0380439 21.687 -0.00173014 21.517 5.77119e-05 21.345C0.00645435 21.13 0.0616133 20.9189 0.161628 20.7268C0.261642 20.5347 0.404066 20.3662 0.578812 20.2333L1.23106 19.6464C1.6812 19.2462 2.24158 18.757 2.70091 18.2768C3.00581 18.0031 3.26053 17.6813 3.45421 17.3252C3.62319 13.8671 4.68098 10.5045 6.53171 7.54229C7.94221 5.38842 9.86741 3.5948 12.1447 2.3129C14.5155 0.977522 17.1712 0.186462 19.9074 0.000581301C20.2058 -0.00885353 20.4959 0.0968798 20.7139 0.294521C20.9318 0.492162 21.0597 0.765522 21.0695 1.05446C21.0792 1.34341 20.97 1.62426 20.7658 1.83525C20.5617 2.04623 20.2793 2.17006 19.9809 2.17949C17.5833 2.3744 15.2624 3.09194 13.192 4.27837C8.67218 6.87527 6.14587 11.3309 5.68655 17.5208C5.60387 18.6236 4.40043 19.7887 2.82952 21.185L3.93191 21.9409C6.63276 23.773 7.20233 24.2176 7.43199 24.7068C7.66166 25.1959 11.2904 31.6171 13.1369 34.1695C14.5148 36.0816 14.4138 38.1983 14.3311 40.0748C14.2398 41.0036 14.2398 41.9386 14.3311 42.8674H19.9074C20.2058 42.8674 20.4921 42.9821 20.7031 43.1865C20.9141 43.3908 21.0327 43.6679 21.0327 43.9568C21.0327 44.2458 20.9141 44.5229 20.7031 44.7272C20.4921 44.9315 20.2058 45.0463 19.9074 45.0463L19.9441 45.0374Z" fill="#F9D94A"/>
<path d="M30.417 45.0395H23.9312C23.6328 45.0395 23.3465 44.9247 23.1355 44.7204C22.9245 44.5161 22.8059 44.239 22.8059 43.95C22.8059 43.6611 22.9245 43.384 23.1355 43.1797C23.3465 42.9754 23.6328 42.8606 23.9312 42.8606H29.5075C29.5989 41.9318 29.5989 40.9968 29.5075 40.068C29.4156 38.1915 29.3146 36.0748 30.7017 34.1627C32.5391 31.6192 36.0667 25.2692 36.4066 24.7C36.7465 24.1308 37.2058 23.8106 39.9067 21.9341L41.0091 21.1782C39.4382 19.7819 38.2531 18.6168 38.1521 17.514C37.6835 11.2886 35.1389 6.84181 30.5731 4.22711C28.5308 3.06774 26.245 2.3686 23.8853 2.1816C23.7375 2.17635 23.5923 2.14296 23.4578 2.08336C23.3233 2.02375 23.2023 1.93909 23.1017 1.83421C23.001 1.72933 22.9227 1.60628 22.8711 1.47209C22.8196 1.3379 22.7959 1.19519 22.8013 1.05212C22.8067 0.909054 22.8412 0.768421 22.9028 0.638253C22.9643 0.508085 23.0518 0.390933 23.1601 0.293483C23.2685 0.196034 23.3956 0.120197 23.5342 0.0703026C23.6728 0.0204078 23.8202 -0.00256762 23.968 0.00268799C26.7134 0.196766 29.3759 1.00014 31.749 2.35058C34.0263 3.63248 35.9515 5.4261 37.362 7.57997C39.2127 10.5422 40.2705 13.9048 40.4395 17.3628C40.6332 17.719 40.8879 18.0408 41.1928 18.3145C41.6521 18.7947 42.2125 19.2838 42.6627 19.6841L43.3149 20.271C43.4817 20.4018 43.6179 20.5653 43.7145 20.7508C43.8111 20.9363 43.8659 21.1396 43.8753 21.3471C43.8687 21.51 43.825 21.6695 43.7471 21.8141C43.6693 21.9586 43.5593 22.0847 43.4252 22.1831C42.8464 22.61 42.0655 23.1436 41.2296 23.7128C40.2466 24.3887 38.7676 25.3848 38.4185 25.7228C38.0602 26.372 34.5142 32.722 32.5758 35.3989C31.6572 36.6974 31.7031 38.2093 31.7858 39.9524C31.9329 41.3847 31.8304 42.8307 31.4826 44.2302C31.4205 44.4592 31.2827 44.6622 31.0903 44.8083C30.898 44.9544 30.6615 45.0356 30.417 45.0395V45.0395Z" fill="#F9D94A"/>
<path d="M28.9105 13.752H28.3501V10.9773H21.7082C21.6454 10.9774 21.5843 10.9573 21.5345 10.9204C21.4846 10.8834 21.4488 10.8314 21.4326 10.7727L21.1846 9.78552L20.1006 12.7649C20.082 12.8203 20.0458 12.8687 19.9971 12.903C19.9485 12.9373 19.8898 12.9558 19.8295 12.9558C19.7693 12.9558 19.7106 12.9373 19.662 12.903C19.6133 12.8687 19.5771 12.8203 19.5585 12.7649L18.5205 8.72719L17.8774 10.7816C17.86 10.8372 17.8248 10.8861 17.777 10.9213C17.7291 10.9564 17.671 10.976 17.611 10.9773H14.9377V12.8093H14.3773V10.6749C14.3773 10.6018 14.4073 10.5316 14.4607 10.4799C14.5141 10.4282 14.5866 10.3992 14.6621 10.3992H17.4181L18.3367 7.59772C18.3552 7.54223 18.3914 7.49385 18.4401 7.45954C18.4888 7.42522 18.5475 7.40674 18.6077 7.40674C18.668 7.40674 18.7266 7.42522 18.7753 7.45954C18.824 7.49385 18.8602 7.54223 18.8787 7.59772L19.9444 11.6709L20.9733 8.7183C20.9918 8.66281 21.028 8.61444 21.0767 8.58012C21.1254 8.54581 21.1841 8.52732 21.2443 8.52732C21.3045 8.52732 21.3632 8.54581 21.4119 8.58012C21.4606 8.61444 21.4968 8.66281 21.5153 8.7183L21.9379 10.3992H28.6349C28.7104 10.3992 28.7828 10.4282 28.8363 10.4799C28.8897 10.5316 28.9197 10.6018 28.9197 10.6749L28.9105 13.752Z" fill="#231F20"/>
<path d="M18.0151 42.8516H17.4547V33.4778H14.6987C14.6613 33.4778 14.6243 33.4707 14.5897 33.4568C14.5552 33.443 14.5238 33.4227 14.4974 33.3971C14.4709 33.3715 14.4499 33.3411 14.4356 33.3076C14.4213 33.2742 14.4139 33.2383 14.4139 33.2021V27.2168H14.9743V32.9087H17.7303C17.8058 32.9087 17.8783 32.9377 17.9317 32.9894C17.9851 33.0411 18.0151 33.1112 18.0151 33.1844V42.8516Z" fill="#231F20"/>
<path d="M16.3156 12.2671H12.9808V27.4128H16.3156V12.2671Z" fill="#FBB040"/>
<path d="M25.1347 42.852H24.5743V33.2025C24.5743 33.1294 24.6043 33.0593 24.6578 33.0076C24.7112 32.9559 24.7836 32.9268 24.8591 32.9268H28.5797V24.7715H29.1401V33.2114C29.1401 33.2846 29.1101 33.3547 29.0567 33.4064C29.0032 33.4581 28.9308 33.4871 28.8553 33.4871H25.1347V42.852Z" fill="#231F20"/>
<path d="M26.1545 12.329C24.6151 12.3007 23.1018 12.7168 21.8076 13.5242C20.5133 14.3317 19.4967 15.4938 18.8873 16.8627C18.2778 18.2315 18.1032 19.745 18.3855 21.2103C18.6679 22.6756 19.3945 24.0263 20.4728 25.0904C21.551 26.1544 22.9321 26.8836 24.44 27.1849C25.9479 27.4863 27.5143 27.3462 28.9397 26.7825C30.365 26.2188 31.5847 25.257 32.4434 24.0197C33.302 22.7824 33.7607 21.3257 33.761 19.8351C33.7707 18.8587 33.5816 17.8901 33.2046 16.9844C32.8276 16.0788 32.27 15.2539 31.5636 14.5569C30.8573 13.8598 30.016 13.3043 29.0879 12.9221C28.1598 12.5398 27.163 12.3383 26.1545 12.329V12.329ZM26.1545 24.7799C25.1421 24.8011 24.1461 24.53 23.2935 24.001C22.4408 23.4721 21.7702 22.7094 21.3671 21.8101C20.964 20.9107 20.8466 19.9156 21.03 18.9514C21.2133 17.9873 21.6891 17.0978 22.3966 16.3965C23.1042 15.6951 24.0114 15.2136 25.0027 15.0133C25.994 14.8131 27.0245 14.9031 27.9627 15.272C28.9009 15.6409 29.7044 16.2719 30.2708 17.0846C30.8372 17.8972 31.1407 18.8548 31.1428 19.8351C31.1501 20.4763 31.0268 21.1126 30.7801 21.7077C30.5333 22.3028 30.1679 22.845 29.7047 23.3033C29.2415 23.7617 28.6895 24.1272 28.0804 24.379C27.4712 24.6309 26.8168 24.7641 26.1545 24.771V24.7799Z" fill="#231F20"/>
<path d="M110.607 11.4753H115.365C115.838 11.473 116.31 11.4938 116.78 11.5375C117.183 11.5744 117.581 11.6549 117.965 11.7776C118.295 11.888 118.604 12.047 118.884 12.249C119.174 12.4606 119.42 12.723 119.609 13.0227C120.015 13.6678 120.222 14.4112 120.207 15.1661C120.219 15.7496 120.113 16.3298 119.894 16.8736C119.697 17.3521 119.381 17.7765 118.976 18.1098C118.53 18.4606 118.014 18.718 117.46 18.8658C116.784 19.0463 116.085 19.1331 115.384 19.1237H112.701V23.8817H110.607V11.4753ZM112.701 17.3539H115.384C115.807 17.3638 116.231 17.3189 116.642 17.2205C116.949 17.1467 117.235 17.0068 117.478 16.8114C117.689 16.6322 117.848 16.4021 117.937 16.1444C118.038 15.8581 118.088 15.5574 118.084 15.255C118.096 14.9237 118.037 14.5936 117.91 14.2856C117.801 14.0361 117.623 13.8206 117.395 13.6631C117.141 13.4956 116.853 13.3806 116.55 13.3251C116.166 13.2548 115.775 13.222 115.384 13.2273H112.719L112.701 17.3539Z" fill="#231F20"/>
<path d="M132.976 23.8728H130.707L129.531 20.7067C129.361 20.1642 129.044 19.6759 128.612 19.2926C128.16 18.9584 127.6 18.7913 127.032 18.8213H124.386V23.8817H122.292V11.4752H127.868C128.485 11.4721 129.101 11.5317 129.705 11.6531C130.224 11.7499 130.718 11.9464 131.157 12.2312C131.554 12.5073 131.87 12.878 132.076 13.3073C132.318 13.8325 132.434 14.4042 132.415 14.9793C132.451 15.7512 132.197 16.5096 131.699 17.1137C131.171 17.6874 130.453 18.0649 129.669 18.1809C130.134 18.3685 130.538 18.6761 130.835 19.0703C131.192 19.5351 131.471 20.0513 131.662 20.6L132.976 23.8728ZM124.414 17.0603H127.694C128.094 17.0669 128.495 17.0311 128.888 16.9536C129.183 16.8962 129.462 16.7779 129.705 16.6068C129.917 16.448 130.079 16.2356 130.174 15.9931C130.281 15.7081 130.334 15.4069 130.33 15.1038C130.352 14.8348 130.311 14.5645 130.209 14.3133C130.107 14.0622 129.947 13.8368 129.742 13.6541C129.208 13.2879 128.557 13.1177 127.905 13.1739H124.423L124.414 17.0603Z" fill="#231F20"/>
<path d="M140.445 11.2709C141.283 11.2605 142.115 11.418 142.888 11.7334C143.61 12.0303 144.259 12.4729 144.79 13.0318C145.335 13.6185 145.754 14.3049 146.021 15.0507C146.324 15.8938 146.473 16.7816 146.462 17.6743C146.474 18.5626 146.331 19.4466 146.039 20.289C145.779 21.0367 145.367 21.7262 144.827 22.3167C144.299 22.882 143.65 23.3283 142.925 23.624C141.339 24.2377 139.569 24.2377 137.983 23.624C137.262 23.33 136.616 22.8868 136.09 22.3256C135.546 21.7359 135.131 21.0463 134.868 20.2978C134.567 19.4392 134.421 18.5366 134.437 17.6298C134.425 16.7371 134.574 15.8493 134.878 15.0062C135.146 14.2593 135.568 13.5727 136.118 12.9874C136.649 12.4285 137.297 11.9858 138.019 11.6889C138.79 11.3904 139.615 11.2481 140.445 11.2709ZM140.445 22.3345C140.996 22.3423 141.543 22.2299 142.043 22.0054C142.523 21.7868 142.944 21.4642 143.274 21.0627C143.631 20.623 143.899 20.1222 144.064 19.5864C144.431 18.3393 144.431 17.0181 144.064 15.771C143.902 15.2374 143.641 14.737 143.292 14.2947C142.96 13.8893 142.536 13.5637 142.052 13.3431C141.556 13.1136 141.013 12.998 140.463 13.0052C139.911 13.0001 139.364 13.1156 138.865 13.3431C138.383 13.563 137.959 13.8852 137.624 14.2858C137.266 14.7244 136.998 15.2256 136.834 15.7621C136.643 16.3823 136.55 17.0271 136.559 17.6743C136.566 18.3179 136.674 18.9567 136.88 19.5686C137.045 20.1044 137.313 20.6053 137.67 21.0449C137.998 21.4454 138.416 21.7678 138.892 21.9876C139.371 22.2114 139.895 22.3299 140.426 22.3345H140.445Z" fill="#231F20"/>
<path d="M154.05 24.0862C153.207 24.0997 152.369 23.9485 151.588 23.6416C150.886 23.3492 150.259 22.9122 149.751 22.3609C149.211 21.7745 148.802 21.0874 148.547 20.3421C148.254 19.4816 148.112 18.5799 148.125 17.674C148.114 16.7828 148.256 15.8961 148.547 15.0504C148.8 14.306 149.206 13.6191 149.741 13.0316C150.251 12.4768 150.878 12.0341 151.579 11.7331C152.367 11.4159 153.215 11.2585 154.068 11.2707C154.794 11.262 155.518 11.3518 156.218 11.5375C156.821 11.6992 157.388 11.9676 157.89 12.329C158.358 12.6718 158.743 13.1088 159.02 13.6097C159.317 14.1621 159.495 14.7673 159.543 15.3884H157.44C157.403 15.0479 157.294 14.7184 157.118 14.4213C156.943 14.1242 156.705 13.8659 156.42 13.663C155.73 13.2217 154.912 13.0066 154.087 13.0494C153.541 13.036 152.999 13.1361 152.497 13.3429C152.023 13.5459 151.602 13.8499 151.266 14.2322C150.903 14.6625 150.631 15.1582 150.467 15.6908C150.269 16.3311 150.173 16.9968 150.182 17.6651C150.171 18.3365 150.267 19.0055 150.467 19.6484C150.634 20.1845 150.908 20.6834 151.276 21.1158C151.616 21.501 152.044 21.8053 152.525 22.0052C153.036 22.2168 153.586 22.3228 154.142 22.3164C154.864 22.3324 155.583 22.2085 156.255 21.9518C156.847 21.7116 157.359 21.3176 157.734 20.8134V19.1326H154.675V17.4695H159.755V23.8728H158.368L158.009 22.69C157.55 23.1577 156.984 23.5142 156.356 23.7305C155.614 23.9778 154.834 24.0982 154.05 24.0862V24.0862Z" fill="#231F20"/>
<path d="M172.919 23.8728H170.65L169.511 20.7067C169.341 20.1644 169.023 19.6761 168.592 19.2926C168.14 18.9584 167.58 18.7913 167.012 18.8213H164.348V23.8817H162.254V11.4752H167.83C168.447 11.4721 169.063 11.5317 169.667 11.6531C170.186 11.7501 170.679 11.9466 171.119 12.2312C171.515 12.5073 171.832 12.878 172.037 13.3073C172.28 13.8324 172.396 14.4042 172.377 14.9793C172.413 15.7512 172.158 16.5096 171.661 17.1137C171.133 17.6874 170.415 18.0649 169.63 18.1809C170.096 18.3685 170.5 18.6761 170.797 19.0703C171.153 19.5353 171.432 20.0514 171.624 20.6L172.919 23.8728ZM164.357 17.0603H167.619C168.019 17.0669 168.42 17.0311 168.813 16.9536C169.108 16.8962 169.387 16.7779 169.63 16.6068C169.842 16.448 170.004 16.2356 170.099 15.9931C170.205 15.708 170.258 15.4069 170.255 15.1038C170.277 14.8348 170.236 14.5645 170.134 14.3133C170.032 14.0622 169.872 13.8368 169.667 13.6541C169.133 13.2879 168.482 13.1177 167.83 13.1739H164.348L164.357 17.0603Z" fill="#231F20"/>
<path d="M185.321 23.8729H183.135L181.894 20.4578H176.943L175.73 23.8907H173.608L178.201 11.4932H180.498L185.321 23.8729ZM177.466 18.7947H181.297L179.46 13.6632H179.285L177.466 18.7947Z" fill="#231F20"/>
<path d="M199.092 23.8732H197.144V17.8433C197.144 17.1378 197.144 16.4352 197.144 15.7356C197.144 15.036 197.144 14.3393 197.144 13.6456L193.837 23.8732H192L188.619 13.6456C188.619 14.3393 188.619 15.036 188.619 15.7356C188.619 16.4352 188.619 17.1378 188.619 17.8433V23.8732H186.644V11.4756H189.685L192.918 21.3474L196.042 11.4756H199.101L199.092 23.8732Z" fill="#231F20"/>
<path d="M214.203 23.8732H212.21V17.8433C212.21 17.1378 212.21 16.4352 212.21 15.7356C212.21 15.036 212.21 14.3393 212.21 13.6456L208.894 23.8732H207.056L203.676 13.6456C203.676 14.3393 203.676 15.036 203.676 15.7356C203.676 16.4352 203.676 17.1378 203.676 17.8433V23.8732H201.701V11.4756H204.741L208.021 21.3474L211.154 11.5201H214.213L214.203 23.8732Z" fill="#231F20"/>
<path d="M226.394 23.8732H216.895V11.4756H226.082V13.2543H218.971V16.5983H225.632V18.377H218.971V22.0589H226.376L226.394 23.8732Z" fill="#231F20"/>
<path d="M239.237 23.8728H236.968L235.829 20.7067C235.658 20.1644 235.341 19.6761 234.91 19.2926C234.458 18.9584 233.898 18.7913 233.33 18.8213H230.684V23.8817H228.59V11.4752H234.166C234.783 11.4721 235.399 11.5317 236.003 11.6531C236.522 11.7496 237.016 11.9462 237.455 12.2312C237.852 12.5073 238.168 12.878 238.373 13.3073C238.616 13.8325 238.732 14.4042 238.713 14.9793C238.749 15.7512 238.495 16.5096 237.997 17.1137C237.469 17.6874 236.751 18.0649 235.967 18.1809C236.429 18.3698 236.829 18.6773 237.124 19.0703C237.481 19.5351 237.76 20.0513 237.951 20.6L239.237 23.8728ZM230.675 17.0603H233.936C234.337 17.0669 234.738 17.0311 235.131 16.9536C235.426 16.8962 235.705 16.7779 235.948 16.6068C236.16 16.448 236.322 16.2356 236.417 15.9931C236.523 15.708 236.576 15.4069 236.573 15.1038C236.595 14.8348 236.553 14.5645 236.451 14.3133C236.35 14.0622 236.19 13.8368 235.985 13.6541C235.451 13.2879 234.8 13.1177 234.148 13.1739H230.666L230.675 17.0603Z" fill="#231F20"/>
<path d="M55.6801 9.11865H53.705V51.852H55.6801V9.11865Z" fill="#010101"/>
<path d="M73.5663 13.3427H69.6069V23.8993H67.5215V13.3427H63.5713V11.564H73.5663V13.3427Z" fill="#231F20"/>
<path d="M85.3435 23.8995H83.2582V18.2521H77.3604V23.8995H75.2659V11.502H77.3604V16.4645H83.2582V11.502H85.3435V23.8995Z" fill="#231F20"/>
<path d="M98.4435 23.8996H96.2571L94.971 20.4578H90.0286L88.816 23.8907H86.6847L91.278 11.4932H93.5746L98.4435 23.8996ZM90.589 18.8214H94.4198L92.5825 13.6899H92.4079L90.589 18.8214Z" fill="#231F20"/>
<path d="M102.045 23.8995H99.9594V11.502H102.045V23.8995Z" fill="#231F20"/>
<path d="M74.8065 48.1522H73.7684V42.9939C72.8612 42.8133 71.9386 42.715 71.0125 42.7005C69.1752 42.7005 67.7696 43.3497 67.7696 45.2974C67.756 45.5756 67.8033 45.8536 67.9085 46.1129C68.0137 46.3722 68.1745 46.607 68.3801 46.8018C68.5857 46.9967 68.8317 47.1473 69.1017 47.2436C69.3717 47.3399 69.6597 47.3798 69.9468 47.3607C70.5379 47.3594 71.1213 47.2319 71.6555 46.9871V47.9298C71.0998 48.1884 70.4899 48.3193 69.8733 48.3123C69.464 48.332 69.0549 48.2697 68.6716 48.1292C68.2883 47.9887 67.9391 47.7732 67.6459 47.496C67.3527 47.2188 67.1217 46.8859 66.9675 46.5183C66.8134 46.1507 66.7393 45.7562 66.7499 45.3596C66.7499 42.6916 68.7893 41.8022 71.0125 41.8022C71.9396 41.8159 72.8629 41.9202 73.7684 42.1135V40.3348C73.7684 38.4049 72.5374 37.7823 70.9482 37.7823C69.7461 37.83 68.5617 38.0798 67.4481 38.5205L67.2827 37.5778C68.4472 37.1053 69.6948 36.8547 70.9573 36.8396C71.9772 36.7989 72.9782 37.1145 73.7776 37.729C73.8341 37.5901 73.8802 37.4474 73.9154 37.3021L74.1451 36.3594H75.1832L74.9259 37.3554C74.8848 37.7548 74.6876 38.1238 74.3748 38.3871C74.6827 38.9699 74.8343 39.6182 74.8157 40.2725L74.8065 48.1522Z" fill="#231F20"/>
<path d="M78.3709 48.1526H77.4523V36.9468H78.4904V45.0577C79.8132 46.4451 81.1728 47.37 82.6335 47.37C83.8645 47.37 84.3698 46.6941 84.3698 45.3512V36.9468H85.4354V45.36C85.4354 47.4411 84.232 48.2771 82.7254 48.2771C81.8979 48.217 81.0934 47.9858 80.366 47.5992C79.6386 47.2126 79.0053 46.6795 78.5087 46.036L78.3709 48.1526Z" fill="#231F20"/>
<path d="M92.702 48.1523H91.6639V40.1482C91.7064 39.8195 91.6713 39.4857 91.5612 39.1721C91.4511 38.8585 91.2689 38.5731 91.0283 38.3376C90.7876 38.1021 90.4949 37.9226 90.1722 37.8125C89.8494 37.7025 89.5051 37.6649 89.1651 37.7024C88.4944 37.7182 87.8306 37.8383 87.1992 38.0582V37.1688C87.8539 36.914 88.5515 36.7783 89.257 36.7686C89.7207 36.7244 90.1888 36.7802 90.6276 36.9322C91.0663 37.0841 91.4648 37.3284 91.7943 37.6474C92.1238 37.9664 92.3761 38.3521 92.533 38.7769C92.69 39.2016 92.7477 39.6548 92.702 40.1037V48.1523Z" fill="#231F20"/>
<path d="M95.9724 44.0258C95.5941 43.6643 95.2962 43.2316 95.0971 42.7544C94.8981 42.2772 94.802 41.7656 94.8149 41.2511V40.5129C94.8149 37.9605 96.9186 36.7954 99.0315 36.7954C101.144 36.7954 103.248 37.9605 103.248 40.5129V48.1524H102.21V40.504C102.21 38.5741 100.612 37.7292 99.0407 37.7292C97.4698 37.7292 95.8713 38.6186 95.8713 40.504V41.1799C95.8101 41.8581 96.006 42.5346 96.4225 43.0831C96.6456 42.8279 96.9293 42.6291 97.2494 42.5036C97.5695 42.3781 97.9162 42.3298 98.2598 42.3628H99.6929V43.3055H98.416C97.4973 43.3055 97.1391 43.5545 96.937 44.4705L96.101 48.1435H95.0353L95.9724 44.0258Z" fill="#231F20"/>
<path d="M106.803 48.1526H105.885V36.9468H106.923V45.0577C108.246 46.4451 109.605 47.37 111.066 47.37C112.297 47.37 112.802 46.6941 112.802 45.3512V36.9468H113.914V45.36C113.914 47.4411 112.71 48.2771 111.204 48.2771C110.376 48.217 109.572 47.9858 108.844 47.5992C108.117 47.2126 107.484 46.6795 106.987 46.036L106.803 48.1526Z" fill="#231F20"/>
<path d="M118.305 46.4449C118.305 46.9785 118.489 47.2098 119.113 47.2098H119.664V48.1525H119.113C117.836 48.1525 117.276 47.5032 117.276 46.5161V38.0672C117.276 36.0039 115.889 34.5098 115.889 32.7311V32.0819C115.889 29.9118 117.322 29.1025 119.269 29.1025H121.722V30.0453H119.269C117.855 30.0453 116.927 30.6322 116.927 32.1263V32.7311C116.927 34.3675 118.314 35.8438 118.314 38.0672L118.305 46.4449Z" fill="#231F20"/>
<path d="M121.686 36.9465H122.724V45.1463C122.724 46.756 124.092 47.3697 125.617 47.3697C126.733 47.364 127.824 47.0559 128.768 46.4803V32.2329H129.806V47.0762C128.57 47.8862 127.11 48.317 125.617 48.3124C123.606 48.3124 121.686 47.423 121.686 45.173V36.9465Z" fill="#231F20"/>
<path d="M138.635 38.1291C137.682 37.8787 136.701 37.7443 135.713 37.7288C134.28 37.7288 132.958 38.1291 132.958 39.4542C132.958 42.1222 139.388 41.3841 139.388 45.0838C139.388 47.485 137.744 48.3121 135.64 48.3121C134.504 48.2788 133.377 48.1054 132.287 47.7963L132.425 46.8358C133.48 47.1613 134.578 47.3409 135.686 47.3694C137.165 47.3694 138.35 46.8536 138.35 45.0838C138.35 42.2379 131.919 43.0205 131.919 39.4542C131.919 37.4354 133.757 36.7861 135.695 36.7861C136.748 36.8026 137.793 36.9612 138.8 37.2575L138.635 38.1291Z" fill="#231F20"/>
<path d="M142.475 46.4451C142.475 46.9787 142.659 47.2099 143.283 47.2099H143.834V48.1526H143.311C142.034 48.1526 141.474 47.5034 141.474 46.5162V36.9468H142.512L142.475 46.4451ZM146.251 46.4451C146.251 46.9787 146.434 47.2099 147.059 47.2099H147.61V48.1526H147.059C145.782 48.1526 145.222 47.5034 145.222 46.5162V36.9468H146.26L146.251 46.4451Z" fill="#231F20"/>
<path d="M157.385 48.1521H156.347V40.5303C156.347 38.4048 155.143 37.7288 153.407 37.7288C152.256 37.7636 151.124 38.0143 150.072 38.467L150.44 40.5481V48.1432H149.401V40.5481L148.942 37.969C150.327 37.265 151.854 36.8614 153.416 36.7861C155.703 36.7861 157.394 37.7288 157.394 40.5303L157.385 48.1521Z" fill="#231F20"/>
<path d="M166.204 38.1291C165.251 37.8793 164.269 37.7448 163.282 37.7288C161.849 37.7288 160.526 38.1291 160.526 39.4542C160.526 42.1222 166.957 41.3841 166.957 45.0838C166.957 47.485 165.313 48.3121 163.209 48.3121C162.073 48.2788 160.946 48.1054 159.856 47.7963L159.994 46.8358C161.049 47.1613 162.147 47.3409 163.255 47.3694C164.734 47.3694 165.919 46.8536 165.919 45.0838C165.919 42.2379 159.488 43.0205 159.488 39.4542C159.488 37.4354 161.326 36.7861 163.264 36.7861C164.317 36.8026 165.362 36.9612 166.369 37.2575L166.204 38.1291Z" fill="#231F20"/>
<path d="M169.888 48.1526H168.969V36.9468H170.007V45.0577C171.33 46.4451 172.689 47.37 174.15 47.37C175.381 47.37 175.886 46.6941 175.886 45.3512V36.9468H176.924V45.36C176.924 47.4411 175.721 48.2771 174.214 48.2771C173.387 48.217 172.582 47.9858 171.855 47.5992C171.128 47.2126 170.494 46.6795 169.998 46.036L169.888 48.1526Z" fill="#231F20"/>
<path d="M180.691 46.4451C180.691 46.9787 180.875 47.2099 181.499 47.2099H182.06V48.1526H181.499C180.222 48.1526 179.662 47.5034 179.662 46.5162V36.9468H180.7L180.691 46.4451Z" fill="#231F20"/>
<path d="M184.724 48.1526H183.805V36.9468H184.843V45.0577C186.166 46.4451 187.526 47.37 188.986 47.37C190.217 47.37 190.723 46.6941 190.723 45.3512V36.9468H191.761V45.36C191.761 47.4411 190.557 48.2771 189.051 48.2771C188.223 48.217 187.419 47.9858 186.691 47.5992C185.964 47.2126 185.331 46.6795 184.834 46.036L184.724 48.1526Z" fill="#231F20"/>
<path d="M194.076 44.2745C194.03 43.9523 194.062 43.6242 194.169 43.316C194.276 43.0077 194.456 42.7277 194.693 42.4977C194.931 42.2678 195.22 42.0941 195.538 41.9904C195.857 41.8867 196.196 41.8557 196.529 41.8999H198.237V42.8426H196.593C195.527 42.8426 195.132 43.3584 195.132 44.3012V46.569C196.093 47.0963 197.178 47.375 198.283 47.3783C199.808 47.3783 201.223 46.8447 201.223 45.1549V40.3969C201.223 38.3781 199.9 37.7288 198.329 37.7288C197.056 37.787 195.807 38.0893 194.654 38.6182L194.471 37.7288C195.661 37.1565 196.964 36.8352 198.292 36.7861C200.378 36.7861 202.224 37.7288 202.224 40.3435V45.1638C202.224 47.4495 200.323 48.3032 198.246 48.3032C196.77 48.3102 195.322 47.9058 194.076 47.1382V44.2745Z" fill="#231F20"/>
<path d="M211.062 38.1291C210.109 37.8787 209.128 37.7443 208.14 37.7288C206.707 37.7288 205.384 38.1291 205.384 39.4542C205.384 42.1222 211.815 41.3841 211.815 45.0838C211.815 47.485 210.171 48.3121 208.067 48.3121C206.931 48.2787 205.804 48.1053 204.714 47.7963L204.852 46.8358C205.907 47.1614 207.005 47.3411 208.113 47.3694C209.592 47.3694 210.777 46.8536 210.777 45.0838C210.777 42.2379 204.346 43.0205 204.346 39.4542C204.346 37.4354 206.184 36.7861 208.122 36.7861C209.175 36.8026 210.22 36.9612 211.227 37.2575L211.062 38.1291Z" fill="#231F20"/>
<path d="M207.892 35.0345H207.038C206.934 34.6542 206.878 34.2629 206.873 33.8694C206.873 32.7933 207.332 32.3486 208.471 32.3486H212.522L212.357 33.2913H208.535C208.049 33.2913 207.883 33.4692 207.883 33.9228L207.892 35.0345Z" fill="#231F20"/>
<path d="M214.791 37.3556C214.791 34.483 216.629 33.3179 216.629 31.5748V30.9878C216.629 30.3386 216.399 30.0451 215.71 30.0451H212.036V29.1024H215.71C215.973 29.0645 216.241 29.0853 216.495 29.163C216.748 29.2408 216.98 29.3735 217.172 29.5511C217.364 29.7286 217.512 29.9464 217.604 30.1876C217.696 30.4289 217.73 30.6874 217.704 30.9433V31.5748C217.704 33.5491 215.866 34.8031 215.866 37.3822V46.4448C215.866 46.9784 216.05 47.2096 216.675 47.2096H217.226V48.1523H216.675C215.398 48.1523 214.837 47.5031 214.837 46.5159L214.791 37.3556Z" fill="#231F20"/>
<path d="M220.257 40.0769C221.048 38.5116 222.481 36.7863 224.447 36.7863C224.826 36.7541 225.209 36.8047 225.566 36.9344C225.923 37.064 226.246 37.2695 226.51 37.5356C226.774 37.8017 226.974 38.1218 227.094 38.4723C227.213 38.8228 227.251 39.1948 227.203 39.561V48.1433H226.164V39.561C226.164 38.1736 225.374 37.7201 224.428 37.7201C222.811 37.7201 221.231 39.4988 220.285 41.4642V48.1433H219.247V36.9463H220.285L220.257 40.0769Z" fill="#231F20"/>
<path d="M237.85 45.1909C237.85 47.5476 236.012 48.3036 233.844 48.3036C232.407 48.2809 230.988 47.9785 229.674 47.4142V44.7462C229.674 43.5545 229.793 42.6384 231.134 42.0781C230.685 41.8841 230.304 41.5648 230.043 41.1609C229.781 40.757 229.649 40.2869 229.665 39.8103V39.2945C229.624 38.9856 229.655 38.6719 229.755 38.3761C229.856 38.0803 230.023 37.8098 230.244 37.5842C230.466 37.3586 230.737 37.1835 231.037 37.0717C231.337 36.9599 231.659 36.9141 231.98 36.9377H233.716V37.8893H232.099C231.107 37.8893 230.712 38.3162 230.712 39.2322V39.8636C230.682 40.1097 230.711 40.359 230.797 40.5923C230.883 40.8256 231.024 41.0365 231.208 41.2086C231.392 41.3807 231.614 41.5094 231.858 41.5846C232.102 41.6599 232.36 41.6796 232.613 41.6423H234.074V42.5851H232.613C231.153 42.5851 230.712 43.2788 230.712 44.6484V46.7828C231.709 47.1561 232.766 47.3548 233.835 47.3698C235.388 47.3698 236.803 46.8362 236.803 45.0841V36.9466H237.841L237.85 45.1909Z" fill="#231F20"/>
</svg>
