<svg width="249" height="240" viewBox="0 0 249 240" fill="none" xmlns="http://www.w3.org/2000/svg">
<path d="M197.836 121.716L243.714 144.908L259.935 132.309L202.047 110.395L178.342 91.0355L172.548 95.5351L189.437 110.902L135.366 152.898L113.576 154.341L104.277 142.368L102.687 146.699L104.997 156.051L76.8593 158.091L46.5956 132.679L42.6883 138.81L71.7934 165.121L124.934 166.573L125.395 182.314L102.053 196.109L107.753 203.447L134.485 187.639L141.365 160.622L197.836 121.716Z" fill="black"/>
<path d="M109.54 57.3349L125.925 61.4222L117.686 67.8219L109.54 57.3349Z" fill="black"/>
<path d="M60.3767 115.392L25.4688 70.447L19.8507 74.8105L60.3767 115.392Z" fill="#FE5998"/>
<path d="M60.0858 115.017L17.2289 76.8468L10.1126 82.3739L60.0858 115.017Z" fill="#FE5998"/>
<path d="M60.0858 115.017L7.49087 84.4102L9.26064e-05 90.2282L60.0858 115.017Z" fill="#FE5998"/>
<path d="M157.842 102.085C129.729 145.057 79.5455 128.069 57.9679 114.204L126.134 61.2604C145.971 51.2573 155.497 63.7923 161.052 73.772C167.118 84.6725 160.772 95.8066 157.842 102.085Z" fill="#FE5998"/>
<path d="M118.06 67.5313L125.925 61.4224C129.252 61.8406 147.67 73.9569 137.099 82.7675C128.643 89.816 120.883 75.5469 118.06 67.5313Z" fill="white"/>
<circle cx="4.26815" cy="4.26815" r="4.26815" transform="matrix(-0.78977 0.613404 0.613404 0.78977 131.162 68.1638)" fill="black"/>
<path d="M57.5906 121.104C83.3196 126.14 132.462 129.365 123.196 101.974C111.615 67.7343 72.7831 105.1 57.5906 121.104Z" fill="#FFD1E3"/>
<path d="M162.704 77.4058C155.647 76.8661 141.465 72.0979 141.197 57.3434C147.025 57.8441 159.486 62.5575 162.704 77.4058Z" fill="#FFD1E3"/>
</svg>
