<svg width="254" height="128" viewBox="0 0 254 128" fill="none" xmlns="http://www.w3.org/2000/svg">
<circle cx="3.21485" cy="3.21485" r="3.21485" transform="matrix(-1 0 0 1 32.9521 16.0747)" fill="black"/>
<path d="M122.92 112.78L118.487 123.105" stroke="#553634" stroke-width="4.29275"/>
<path d="M104.436 112.78L100.003 123.105" stroke="#553634" stroke-width="4.29275"/>
<path d="M128.568 123.669L108.694 123.787" stroke="#553634" stroke-width="4.29275"/>
<path d="M110.081 123.669L90.2066 123.787" stroke="#553634" stroke-width="4.29275"/>
<path d="M128.165 113.133L131.781 99.8718L115.707 101.077L118.118 113.133H128.165Z" fill="#B9B0B3"/>
<path d="M108.877 113.133L112.494 99.8718L96.4199 101.077L98.831 113.133H108.877Z" fill="#B9B0B3"/>
<path d="M103.677 108.099C51.5967 105.849 34.2901 72.6022 32.1469 56.26L45.81 25.719L214.188 56.26L176.413 73.138C150.373 99.4997 117.072 107.43 103.677 108.099Z" fill="#B9B0B3"/>
<path d="M176.566 73.0542L152.705 68.3162L188.345 55.9127L214.289 56.2197L176.566 73.0542Z" fill="#81DBFD"/>
<path d="M71.1464 73.8299C48.12 65.4951 46.6259 48.7724 49.6686 36.5122L57.4542 30.8743L154.373 67.655C144.26 71.4136 114.907 89.6698 71.1464 73.8299Z" fill="#553635"/>
<path d="M153.107 68.3154L126.986 62.2876C147.749 57.3314 190.962 47.4189 197.713 47.4189C204.464 47.4189 237.497 50.9017 253.169 52.6431C212.34 54.572 169.449 63.895 153.107 68.3154Z" fill="#0B0B3D"/>
<path d="M207.356 45.4094C169.421 42.1946 106.089 25.5846 79.1645 17.6814L51.4364 28.9334L53.4457 34.9612C59.8754 83.5054 158.732 62.1534 207.356 45.4094Z" fill="#906060"/>
<path d="M12.4575 17.682C29.8176 -9.9657 64.1629 6.16211 79.1655 17.682C70.7266 22.2358 53.8486 31.9062 53.8486 34.1566C53.8486 36.407 39.6497 50.0969 32.5503 56.6605L30.9428 48.2215L17.2797 37.3714L12.4575 17.682Z" fill="#0B0B3D"/>
<ellipse cx="14.0649" cy="17.6817" rx="14.0649" ry="17.6817" transform="matrix(-0.812083 0.583541 0.583541 0.812083 31.6055 0)" fill="#81DBFD"/>
<path d="M12.457 17.6812C12.457 17.0382 16.4756 12.0552 18.4849 9.64404L19.6904 16.8774L12.8589 19.2886C12.7249 19.0207 12.457 18.3241 12.457 17.6812Z" fill="#81DBFD"/>
<circle cx="3.21485" cy="3.21485" r="3.21485" transform="matrix(-1 0 0 1 32.9521 16.0747)" fill="#0B0B3D"/>
<path d="M24.6997 36.4273C21.5194 33.5538 17.0941 22.8027 15.1065 16.6453C8.42792 20.586 2.2529 31.1494 0.000219345 35.9385C3.81653 38.5657 17.6766 37.5219 24.6997 36.4273Z" fill="#0B0B3D"/>
</svg>
