<svg width="136" height="116" viewBox="0 0 136 116" fill="none" xmlns="http://www.w3.org/2000/svg">
<rect x="95.9132" y="88.9866" width="10.4545" height="10.4545" transform="rotate(18.2078 95.9132 88.9866)" fill="#59B3DB"/>
<rect x="19.7315" y="52.9221" width="10.4545" height="10.4545" transform="rotate(18.2078 19.7315 52.9221)" fill="#59B3DB"/>
<rect x="9.79987" y="49.6553" width="10.4545" height="10.4545" transform="rotate(18.2078 9.79987 49.6553)" fill="#59B3DB"/>
<rect x="13.0665" y="39.7244" width="10.4545" height="10.4545" transform="rotate(18.2078 13.0665 39.7244)" fill="#59B3DB"/>
<rect x="16.3331" y="29.7935" width="10.4545" height="10.4545" transform="rotate(18.2078 16.3331 29.7935)" fill="#59B3DB"/>
<rect x="19.6002" y="19.8621" width="10.4545" height="10.4545" transform="rotate(18.2078 19.6002 19.8621)" fill="#59B3DB"/>
<rect x="32.7979" y="13.198" width="10.4545" height="10.4545" transform="rotate(18.2078 32.7979 13.198)" fill="#59B3DB"/>
<rect x="55.9263" y="9.80005" width="10.4545" height="10.4545" transform="rotate(18.2078 55.9263 9.80005)" fill="#59B3DB"/>
<rect x="42.9908" y="82.5842" width="10.4545" height="10.4545" transform="rotate(18.2078 42.9908 82.5842)" fill="#59B3DB"/>
<rect x="99.1798" y="79.0554" width="10.4545" height="10.4545" transform="rotate(18.2078 99.1798 79.0554)" fill="#59B3DB"/>
<rect x="109.111" y="82.322" width="10.4545" height="10.4545" transform="rotate(18.2078 109.111 82.322)" fill="#59B3DB"/>
<rect x="115.644" y="62.46" width="10.4545" height="10.4545" transform="rotate(18.2078 115.644 62.46)" fill="#59B3DB"/>
<rect x="118.911" y="52.5288" width="10.4545" height="10.4545" transform="rotate(18.2078 118.911 52.5288)" fill="#59B3DB"/>
<rect x="112.247" y="39.3313" width="10.4545" height="10.4545" transform="rotate(18.2078 112.247 39.3313)" fill="#59B3DB"/>
<rect x="95.6509" y="22.8667" width="10.4545" height="10.4545" transform="rotate(18.2078 95.6509 22.8667)" fill="#59B3DB"/>
<rect x="112.378" y="72.3911" width="10.4545" height="10.4545" transform="rotate(18.2078 112.378 72.3911)" fill="#59B3DB"/>
<rect x="49.5245" y="62.7219" width="10.4545" height="10.4545" transform="rotate(18.2078 49.5245 62.7219)" fill="#59B3DB"/>
<rect x="32.9288" y="46.2578" width="10.4545" height="10.4545" transform="rotate(18.2078 32.9288 46.2578)" fill="#59B3DB"/>
<rect x="39.462" y="26.3955" width="10.4545" height="10.4545" transform="rotate(18.2078 39.462 26.3955)" fill="#59B3DB"/>
<rect x="69.3863" y="69.2554" width="10.4545" height="10.4545" transform="rotate(18.2078 69.3863 69.2554)" fill="#59B3DB"/>
<rect x="92.5152" y="65.8577" width="10.4545" height="10.4545" transform="rotate(18.2078 92.5152 65.8577)" fill="#59B3DB"/>
<rect x="99.0489" y="45.9956" width="10.4545" height="10.4545" transform="rotate(18.2078 99.0489 45.9956)" fill="#59B3DB"/>
<rect x="26.3956" y="66.1199" width="10.4545" height="10.4545" transform="rotate(18.2078 26.3956 66.1199)" fill="#59B3DB"/>
<rect x="23.129" y="76.051" width="10.4545" height="10.4545" transform="rotate(18.2078 23.129 76.051)" fill="#59B3DB"/>
<rect x="62.8531" y="89.1177" width="10.4545" height="10.4545" transform="rotate(18.2078 62.8531 89.1177)" fill="#59B3DB"/>
<rect x="72.7842" y="92.3843" width="10.4545" height="10.4545" transform="rotate(18.2078 72.7842 92.3843)" fill="#59B3DB"/>
<rect x="33.0596" y="79.3176" width="10.4545" height="10.4545" transform="rotate(18.2078 33.0596 79.3176)" fill="#59B3DB"/>
<rect x="16.4644" y="62.8533" width="10.4545" height="10.4545" transform="rotate(18.2078 16.4644 62.8533)" fill="#59B3DB"/>
<rect x="85.982" y="85.72" width="10.4545" height="10.4545" transform="rotate(18.2078 85.982 85.72)" fill="#59B3DB"/>
<rect x="82.7154" y="95.6509" width="10.4545" height="10.4545" transform="rotate(18.2078 82.7154 95.6509)" fill="#59B3DB"/>
</svg>
