<svg width="138" height="95" viewBox="0 0 138 95" fill="none" xmlns="http://www.w3.org/2000/svg">
<rect x="34.7637" y="37.208" width="10.5279" height="10.5279" transform="rotate(-10.0121 34.7637 37.208)" fill="#AB90F9"/>
<rect x="69.5269" y="52.4522" width="10.5279" height="10.5279" transform="rotate(-10.0121 69.5269 52.4522)" fill="#AB90F9"/>
<rect x="59.1592" y="54.2827" width="10.5279" height="10.5279" transform="rotate(-10.0121 59.1592 54.2827)" fill="#AB90F9"/>
<rect x="114.658" y="65.866" width="10.5279" height="10.5279" transform="rotate(-10.0121 114.658 65.866)" fill="#AB90F9"/>
<rect x="15.8589" y="51.2366" width="10.5279" height="10.5279" transform="rotate(-10.0121 15.8589 51.2366)" fill="#AB90F9"/>
<rect x="17.6895" y="61.604" width="10.5279" height="10.5279" transform="rotate(-10.0121 17.6895 61.604)" fill="#AB90F9"/>
<rect x="19.519" y="71.9715" width="10.5279" height="10.5279" transform="rotate(-10.0121 19.519 71.9715)" fill="#AB90F9"/>
<rect x="5.49121" y="53.0669" width="10.5279" height="10.5279" transform="rotate(-10.0121 5.49121 53.0669)" fill="#AB90F9"/>
<rect x="3.66064" y="42.6992" width="10.5279" height="10.5279" transform="rotate(-10.0121 3.66064 42.6992)" fill="#AB90F9"/>
<rect x="60.9893" y="64.6502" width="10.5279" height="10.5279" transform="rotate(-10.0121 60.9893 64.6502)" fill="#AB90F9"/>
<rect x="50.6216" y="66.4805" width="10.5279" height="10.5279" transform="rotate(-10.0121 50.6216 66.4805)" fill="#AB90F9"/>
<rect x="65.8662" y="31.7171" width="10.5279" height="10.5279" transform="rotate(-10.0121 65.8662 31.7171)" fill="#AB90F9"/>
<rect x="96.9688" y="26.2261" width="10.5279" height="10.5279" transform="rotate(-10.0121 96.9688 26.2261)" fill="#AB90F9"/>
<rect x="98.7993" y="36.5938" width="10.5279" height="10.5279" transform="rotate(-10.0121 98.7993 36.5938)" fill="#AB90F9"/>
<rect x="109.167" y="34.7635" width="10.5279" height="10.5279" transform="rotate(-10.0121 109.167 34.7635)" fill="#AB90F9"/>
<rect x="110.997" y="45.1309" width="10.5279" height="10.5279" transform="rotate(-10.0121 110.997 45.1309)" fill="#AB90F9"/>
<rect x="112.828" y="55.4983" width="10.5279" height="10.5279" transform="rotate(-10.0121 112.828 55.4983)" fill="#AB90F9"/>
<rect x="117.704" y="22.5655" width="10.5279" height="10.5279" transform="rotate(-10.0121 117.704 22.5655)" fill="#AB90F9"/>
<rect x="119.534" y="32.9331" width="10.5279" height="10.5279" transform="rotate(-10.0121 119.534 32.9331)" fill="#AB90F9"/>
<rect x="55.498" y="33.5474" width="10.5279" height="10.5279" transform="rotate(-10.0121 55.498 33.5474)" fill="#AB90F9"/>
<rect x="45.1309" y="35.3777" width="10.5279" height="10.5279" transform="rotate(-10.0121 45.1309 35.3777)" fill="#AB90F9"/>
<rect x="55.498" y="33.5474" width="10.5279" height="10.5279" transform="rotate(-10.0121 55.498 33.5474)" fill="#AB90F9"/>
<rect x="45.1309" y="35.3777" width="10.5279" height="10.5279" transform="rotate(-10.0121 45.1309 35.3777)" fill="#AB90F9"/>
<rect x="41.4702" y="14.6429" width="10.5279" height="10.5279" transform="rotate(-10.0121 41.4702 14.6429)" fill="#AB90F9"/>
<rect x="24.396" y="39.0384" width="10.5279" height="10.5279" transform="rotate(-10.0121 24.396 39.0384)" fill="#AB90F9"/>
<rect x="26.2261" y="49.406" width="10.5279" height="10.5279" transform="rotate(-10.0121 26.2261 49.406)" fill="#AB90F9"/>
<rect x="24.396" y="39.0384" width="10.5279" height="10.5279" transform="rotate(-10.0121 24.396 39.0384)" fill="#AB90F9"/>
<rect x="76.2334" y="29.8867" width="10.5279" height="10.5279" transform="rotate(-10.0121 76.2334 29.8867)" fill="#AB90F9"/>
<rect x="72.5732" y="9.15188" width="10.5279" height="10.5279" transform="rotate(-10.0121 72.5732 9.15188)" fill="#AB90F9"/>
<rect x="86.6011" y="28.0564" width="10.5279" height="10.5279" transform="rotate(-10.0121 86.6011 28.0564)" fill="#AB90F9"/>
<rect x="29.8872" y="70.1411" width="10.5279" height="10.5279" transform="rotate(-10.0121 29.8872 70.1411)" fill="#AB90F9"/>
<rect x="81.7246" y="60.9893" width="10.5279" height="10.5279" transform="rotate(-10.0121 81.7246 60.9893)" fill="#AB90F9"/>
<rect x="92.0918" y="59.159" width="10.5279" height="10.5279" transform="rotate(-10.0121 92.0918 59.159)" fill="#AB90F9"/>
<rect x="40.2544" y="68.3108" width="10.5279" height="10.5279" transform="rotate(-10.0121 40.2544 68.3108)" fill="#AB90F9"/>
<rect x="71.3574" y="62.8199" width="10.5279" height="10.5279" transform="rotate(-10.0121 71.3574 62.8199)" fill="#AB90F9"/>
<rect x="21.3496" y="82.3391" width="10.5279" height="10.5279" transform="rotate(-10.0121 21.3496 82.3391)" fill="#AB90F9"/>
<rect x="102.46" y="57.3286" width="10.5279" height="10.5279" transform="rotate(-10.0121 102.46 57.3286)" fill="#AB90F9"/>
</svg>
