<svg width="116" height="116" viewBox="0 0 116 116" fill="none" xmlns="http://www.w3.org/2000/svg">
<rect x="29.8129" y="14.4138" width="12.1221" height="12.1221" transform="rotate(12.223 29.8129 14.4138)" fill="#E2720A"/>
<rect x="15.3988" y="23.6946" width="12.1221" height="12.1221" transform="rotate(12.223 15.3988 23.6946)" fill="#E2720A"/>
<rect x="12.8324" y="35.542" width="12.1221" height="12.1221" transform="rotate(12.223 12.8324 35.542)" fill="#E2720A"/>
<rect x="24.6801" y="38.1086" width="12.1221" height="12.1221" transform="rotate(12.223 24.6801 38.1086)" fill="#E2720A"/>
<rect x="36.5268" y="40.675" width="12.1221" height="12.1221" transform="rotate(12.223 36.5268 40.675)" fill="#E2720A"/>
<rect x="39.0932" y="28.8276" width="12.1221" height="12.1221" transform="rotate(12.223 39.0932 28.8276)" fill="#E2720A"/>
<rect x="44.226" y="5.13281" width="12.1221" height="12.1221" transform="rotate(12.223 44.226 5.13281)" fill="#E2720A"/>
<rect x="56.0736" y="7.69922" width="12.1221" height="12.1221" transform="rotate(12.223 56.0736 7.69922)" fill="#E2720A"/>
<rect x="67.9213" y="10.2659" width="12.1221" height="12.1221" transform="rotate(12.223 67.9213 10.2659)" fill="#E2720A"/>
<rect x="77.2016" y="24.6797" width="12.1221" height="12.1221" transform="rotate(12.223 77.2016 24.6797)" fill="#E2720A"/>
<rect x="89.0492" y="27.2461" width="12.1221" height="12.1221" transform="rotate(12.223 89.0492 27.2461)" fill="#E2720A"/>
<rect x="98.3295" y="41.6597" width="12.1221" height="12.1221" transform="rotate(12.223 98.3295 41.6597)" fill="#E2720A"/>
<rect x="95.7631" y="53.5073" width="12.1221" height="12.1221" transform="rotate(12.223 95.7631 53.5073)" fill="#E2720A"/>
<rect x="81.35" y="62.7881" width="12.1221" height="12.1221" transform="rotate(12.223 81.35 62.7881)" fill="#E2720A"/>
<rect x="78.7836" y="74.6353" width="12.1221" height="12.1221" transform="rotate(12.223 78.7836 74.6353)" fill="#E2720A"/>
<rect x="64.3695" y="83.916" width="12.1221" height="12.1221" transform="rotate(12.223 64.3695 83.916)" fill="#E2720A"/>
<rect x="52.5219" y="81.3496" width="12.1221" height="12.1221" transform="rotate(12.223 52.5219 81.3496)" fill="#E2720A"/>
<rect x="43.2406" y="66.9358" width="12.1221" height="12.1221" transform="rotate(12.223 43.2406 66.9358)" fill="#E2720A"/>
<rect x="38.1078" y="90.6306" width="12.1221" height="12.1221" transform="rotate(12.223 38.1078 90.6306)" fill="#E2720A"/>
<rect x="28.8275" y="76.2168" width="12.1221" height="12.1221" transform="rotate(12.223 28.8275 76.2168)" fill="#E2720A"/>
<rect x="31.3939" y="64.3694" width="12.1221" height="12.1221" transform="rotate(12.223 31.3939 64.3694)" fill="#E2720A"/>
<rect x="26.2611" y="88.0642" width="12.1221" height="12.1221" transform="rotate(12.223 26.2611 88.0642)" fill="#E2720A"/>
</svg>
