<svg width="141" height="141" viewBox="0 0 141 141" fill="none" xmlns="http://www.w3.org/2000/svg">
<rect x="51.2734" y="51.2734" width="12.8182" height="12.8182" fill="#909C46"/>
<rect x="51.2734" y="12.8164" width="12.8182" height="12.8182" fill="#909C46"/>
<rect y="38.4531" width="12.8182" height="12.8182" fill="#909C46"/>
<rect x="51.2734" y="89.7266" width="12.8182" height="12.8182" fill="#909C46"/>
<rect x="51.2734" y="115.363" width="12.8182" height="12.8182" fill="#909C46"/>
<rect x="51.2734" y="102.547" width="12.8182" height="12.8182" fill="#909C46"/>
<rect x="76.9092" y="51.2734" width="12.8182" height="12.8182" fill="#909C46"/>
<rect x="25.6367" y="76.9102" width="12.8182" height="12.8182" fill="#909C46"/>
<rect x="102.546" y="76.9102" width="12.8182" height="12.8182" fill="#909C46"/>
<rect x="25.6367" y="64.0898" width="12.8182" height="12.8182" fill="#909C46"/>
<rect x="76.9092" y="12.8164" width="12.8182" height="12.8182" fill="#909C46"/>
<rect x="102.546" y="64.0898" width="12.8182" height="12.8182" fill="#909C46"/>
<rect x="25.6367" y="38.4531" width="12.8182" height="12.8182" fill="#909C46"/>
<rect x="25.6367" y="89.7266" width="12.8182" height="12.8182" fill="#909C46"/>
<rect x="25.6367" y="115.363" width="12.8182" height="12.8182" fill="#909C46"/>
<rect x="25.6367" y="128.184" width="12.8182" height="12.8182" fill="#909C46"/>
<rect x="64.0918" y="128.184" width="12.8182" height="12.8182" fill="#909C46"/>
<rect x="25.6367" y="102.547" width="12.8182" height="12.8182" fill="#909C46"/>
<rect x="102.546" y="38.4531" width="12.8182" height="12.8182" fill="#909C46"/>
<rect x="128.183" y="38.4531" width="12.8182" height="12.8182" fill="#909C46"/>
<rect x="76.9092" y="89.7266" width="12.8182" height="12.8182" fill="#909C46"/>
<rect x="76.9092" y="115.363" width="12.8182" height="12.8182" fill="#909C46"/>
<rect x="76.9092" y="102.547" width="12.8182" height="12.8182" fill="#909C46"/>
<rect x="102.546" y="89.7266" width="12.8182" height="12.8182" fill="#909C46"/>
<rect x="102.546" y="115.363" width="12.8182" height="12.8182" fill="#909C46"/>
<rect x="102.546" y="102.547" width="12.8182" height="12.8182" fill="#909C46"/>
<rect x="64.0918" width="12.8182" height="12.8182" fill="#909C46"/>
<rect x="64.0918" y="51.2734" width="12.8182" height="12.8182" fill="#909C46"/>
<rect x="64.0918" y="38.4531" width="12.8182" height="12.8182" fill="#909C46"/>
<rect x="64.0918" y="64.0898" width="12.8182" height="12.8182" fill="#909C46"/>
<rect x="64.0918" y="12.8164" width="12.8182" height="12.8182" fill="#909C46"/>
<rect x="12.8184" y="128.184" width="12.8182" height="12.8182" fill="#909C46"/>
<rect x="51.2734" y="128.184" width="12.8182" height="12.8182" fill="#909C46"/>
<rect x="64.0918" y="115.363" width="12.8182" height="12.8182" fill="#909C46"/>
<rect x="64.0918" y="102.547" width="12.8182" height="12.8182" fill="#909C46"/>
<rect x="38.4551" y="51.2734" width="12.8182" height="12.8182" fill="#909C46"/>
<rect x="12.8184" y="51.2734" width="12.8182" height="12.8182" fill="#909C46"/>
<rect x="25.6367" y="51.2734" width="12.8182" height="12.8182" fill="#909C46"/>
<rect x="89.7275" y="51.2734" width="12.8182" height="12.8182" fill="#909C46"/>
<rect x="102.546" y="51.2734" width="12.8182" height="12.8182" fill="#909C46"/>
<rect x="115.364" y="51.2734" width="12.8182" height="12.8182" fill="#909C46"/>
<rect x="38.4551" y="25.6367" width="12.8182" height="12.8182" fill="#909C46"/>
<rect x="89.7275" y="25.6367" width="12.8182" height="12.8182" fill="#909C46"/>
<rect x="38.4551" y="128.184" width="12.8182" height="12.8182" fill="#909C46"/>
<rect x="76.9092" y="128.184" width="12.8182" height="12.8182" fill="#909C46"/>
<rect x="89.7275" y="128.184" width="12.8182" height="12.8182" fill="#909C46"/>
<rect x="102.546" y="128.184" width="12.8182" height="12.8182" fill="#909C46"/>
<rect x="115.364" y="128.184" width="12.8182" height="12.8182" fill="#909C46"/>
</svg>
