<svg width="131" height="131" viewBox="0 0 131 131" fill="none" xmlns="http://www.w3.org/2000/svg">
<path fill-rule="evenodd" clip-rule="evenodd" d="M65.2323 14.4029L67.2565 1.26493e-07L81.6593 2.02419L79.6351 16.427L94.038 18.4512L90.0189 47.0482L118.407 51.0379L116.412 65.232L130.606 67.2269L128.582 81.6298L114.388 79.6349L112.393 93.829L84.005 89.8393L79.986 118.436L65.5831 116.412L63.559 130.815L49.1561 128.791L51.1803 114.388L36.9862 112.393L41.0052 83.7961L12.4082 79.777L14.4031 65.5829L0.00022138 63.5587L2.02441 49.1559L16.4273 51.1801L18.4221 36.9859L47.0191 41.005L51.0381 12.408L65.2323 14.4029ZM61.2137 43.0002L63.2379 28.5973L77.6408 30.6215L75.6166 45.0244L61.2137 43.0002ZM55.1698 85.9997L53.1457 100.403L67.5485 102.427L69.5727 88.0239L55.1698 85.9997ZM28.8058 67.607L30.83 53.2041L45.2328 55.2283L43.2086 69.6312L28.8058 67.607ZM88.0242 61.2424L86 75.6453L100.403 77.6694L102.427 63.2666L88.0242 61.2424Z" fill="url(#paint0_linear_4104_921)"/>
<defs>
<linearGradient id="paint0_linear_4104_921" x1="75.3908" y1="-16.0244" x2="122.666" y2="216.569" gradientUnits="userSpaceOnUse">
<stop stop-color="#909C46"/>
<stop offset="1" stop-color="#4C7617"/>
</linearGradient>
</defs>
</svg>
