<svg width="660" height="666" viewBox="0 0 660 666" fill="none" xmlns="http://www.w3.org/2000/svg">
<path fill-rule="evenodd" clip-rule="evenodd" d="M633.606 460.272L628.512 458.138C632.592 448.35 636.241 438.274 639.429 427.926C642.617 417.578 645.271 407.195 647.407 396.809L652.818 397.911C650.646 408.474 647.948 419.031 644.706 429.552C641.465 440.072 637.755 450.318 633.606 460.272ZM659.674 333.059L654.148 333.049C654.308 311.45 652.326 290.098 648.347 269.271L653.774 268.188C657.821 289.371 659.837 311.09 659.674 333.059ZM635.396 205.8L630.276 207.928C622.278 188.137 612.371 169.181 600.708 151.352L605.326 148.267C617.187 166.397 627.262 185.675 635.396 205.8ZM564.712 97.7825C549.687 82.4752 533.083 68.5658 515.047 56.3378L511.946 60.9669C529.677 72.9882 546.001 86.6629 560.773 101.713L564.712 97.7825ZM458.219 25.5761L456.074 30.723C446.388 26.6641 436.414 23.0412 426.168 19.8844C415.922 16.7277 405.639 14.1098 395.348 12.0143L396.471 6.55242C406.936 8.68348 417.393 11.3456 427.81 14.555C438.227 17.7644 448.369 21.4483 458.219 25.5761ZM332.184 0.000599894L332.143 5.57253C310.721 5.53133 289.532 7.64858 268.851 11.7762L267.807 6.31055C288.841 2.11238 310.394 -0.041302 332.184 0.000599894ZM205.824 25.1861L207.906 30.336C188.231 38.5102 169.374 48.6044 151.625 60.4625L148.59 55.823C166.64 43.764 185.817 33.4989 205.824 25.1861ZM98.2902 97.0518C83.0237 112.285 69.1348 129.103 56.9059 147.355L61.4801 150.457C73.5024 132.513 87.1569 115.978 102.167 101.001L98.2902 97.0518ZM26.0779 204.821C21.9288 214.775 18.2184 225.021 14.9771 235.542C11.7359 246.062 9.03724 256.62 6.86528 267.183L12.2766 268.285C14.4123 257.898 17.0661 247.516 20.2542 237.167C23.4423 226.819 27.0913 216.744 31.1711 206.956L26.0779 204.821ZM0.00912453 332.034L5.53557 332.045C5.37556 353.643 7.35777 374.995 11.3368 395.822L5.90979 396.906C1.86271 375.722 -0.153628 354.004 0.00912453 332.034ZM24.2873 459.293L29.407 457.166C37.4054 476.956 47.3127 495.912 58.9758 513.741L54.3571 516.827C42.4964 498.696 32.4213 479.419 24.2873 459.293ZM94.9713 567.311L98.9103 563.38C113.682 578.43 130.007 592.105 147.738 604.126L144.636 608.756C126.6 596.528 109.996 582.618 94.9713 567.311ZM201.464 639.517L203.61 634.37C213.295 638.429 223.269 642.052 233.515 645.209C243.761 648.366 254.045 650.984 264.335 653.079L263.212 658.541C252.747 656.41 242.29 653.748 231.873 650.538C221.456 647.329 211.314 643.645 201.464 639.517ZM327.499 665.093L327.54 659.521C348.962 659.562 370.152 657.445 390.832 653.317L391.876 658.783C370.842 662.981 349.289 665.135 327.499 665.093ZM453.859 639.907L451.778 634.757C471.452 626.583 490.309 616.489 508.058 604.631L511.093 609.27C493.043 621.329 473.867 631.595 453.859 639.907ZM561.393 568.042L557.517 564.092C572.526 549.115 586.181 532.58 598.203 514.637L602.777 517.738C590.549 535.99 576.66 552.808 561.393 568.042Z" fill="#52D26E"/>
</svg>
