<svg width="75" height="91" viewBox="0 0 75 91" fill="none" xmlns="http://www.w3.org/2000/svg">
<path d="M40.8749 17.7644H34.6782V90.9978H40.8749V17.7644Z" fill="#197865"/>
<path d="M34.0623 64.1885L17.0331 70.1622L0 64.1885L17.0331 58.2148L34.0623 64.1885Z" fill="#197865"/>
<path d="M9.60498 87.7812L26.038 80.3171L34.2114 64.2239L17.7784 71.688L9.60498 87.7812Z" fill="#197865"/>
<path d="M34.2114 64.3691L17.7784 56.905L9.60498 40.8118L26.038 48.2759L34.2114 64.3691Z" fill="#197865"/>
<path d="M40.9375 64.1885L57.9667 70.1622L74.9998 64.1885L57.9667 58.2148L40.9375 64.1885Z" fill="#197865"/>
<path d="M65.3911 87.7812L48.962 80.3171L40.7886 64.2239L57.2216 71.688L65.3911 87.7812Z" fill="#197865"/>
<path d="M40.7886 64.3691L57.2216 56.905L65.3911 40.8118L48.962 48.2759L40.7886 64.3691Z" fill="#197865"/>
<path d="M37.7759 26.2792C37.7759 26.2792 32.0342 8.95832 48.7496 2.38062L37.7759 26.2792Z" fill="#EB6696"/>
<path d="M37.7761 26.2794C37.7761 26.2794 25.8454 12.4729 38.7722 0L37.7761 26.2794Z" fill="#EB6696"/>
<path d="M37.7761 26.2794C37.7761 26.2794 21.4686 18.0896 28.6379 1.61987L37.7761 26.2794Z" fill="#EB6696"/>
<path d="M37.7761 26.2794C37.7761 26.2794 19.5781 24.9536 19.8997 6.99341L37.7761 26.2794Z" fill="#EB6696"/>
<path d="M37.776 26.2793C37.776 26.2793 20.4565 32.0216 13.8794 15.3047L37.776 26.2793Z" fill="#EB6696"/>
<path d="M37.7762 26.2795C37.7762 26.2795 23.9709 38.2111 11.499 25.2871L37.7762 26.2795Z" fill="#EB6696"/>
<path d="M37.7761 26.2795C37.7761 26.2795 29.587 42.5885 13.1187 35.4185L37.7761 26.2795Z" fill="#EB6696"/>
<path d="M37.776 26.2795C37.776 26.2795 36.4504 44.479 18.4917 44.1574L37.776 26.2795Z" fill="#EB6696"/>
<path d="M37.7764 26.2795C37.7764 26.2795 43.5182 43.6004 26.8027 50.1781L37.7764 26.2795Z" fill="#EB6696"/>
<path d="M37.7764 26.2795C37.7764 26.2795 49.7071 40.0861 36.7842 52.559L37.7764 26.2795Z" fill="#EB6696"/>
<path d="M37.7764 26.2795C37.7764 26.2795 54.0839 34.4693 46.9146 50.9391L37.7764 26.2795Z" fill="#EB6696"/>
<path d="M37.7764 26.2795C37.7764 26.2795 55.9743 27.6053 55.6527 45.5655L37.7764 26.2795Z" fill="#EB6696"/>
<path d="M37.7764 26.2792C37.7764 26.2792 55.0958 20.5369 61.6729 37.2538L37.7764 26.2792Z" fill="#EB6696"/>
<path d="M37.7764 26.2793C37.7764 26.2793 51.5817 14.3476 64.0536 27.2716L37.7764 26.2793Z" fill="#EB6696"/>
<path d="M37.7764 26.2793C37.7764 26.2793 45.9654 9.97031 62.4338 17.1403L37.7764 26.2793Z" fill="#EB6696"/>
<path d="M37.7764 26.2793C37.7764 26.2793 39.102 8.0798 57.0607 8.40143L37.7764 26.2793Z" fill="#EB6696"/>
</svg>
