<svg width="110" height="72" viewBox="0 0 110 72" fill="none" xmlns="http://www.w3.org/2000/svg">
<path d="M31.3553 20.8638C22.7376 37.1023 28.9334 57.1617 45.1197 65.7534C61.3061 74.3398 81.3916 68.2223 90.0093 51.9889" stroke="#635548" stroke-width="4" stroke-miterlimit="10" stroke-linecap="round"/>
<path d="M37.731 11.975C47.7267 1.19626 63.1562 -1.02734 76.7327 6.18109C80.9032 8.39425 84.4109 11.3643 87.1721 14.8406" stroke="#635548" stroke-width="4" stroke-miterlimit="10" stroke-linecap="round"/>
<path d="M78.7369 45.7556C67.953 37.1535 55.9476 30.7907 42.7365 26.6515C42.0997 26.4531 41.3585 26.7611 41.0766 27.3718C36.2954 37.6964 40.3876 50.0358 50.5348 55.4173C60.6871 60.8041 73.204 57.2755 79.071 47.5147C79.4155 46.9457 79.2589 46.168 78.7369 45.7556Z" stroke="#635548" stroke-width="4" stroke-miterlimit="10" stroke-linecap="round"/>
<path d="M78.3078 20.7839C76.6061 18.6386 74.3878 16.8117 71.804 15.4442C66.5477 12.6516 60.6756 12.2549 55.4297 13.8991C53.0965 14.6142 52.063 14.8961 50.1108 16.342" stroke="#635548" stroke-width="4" stroke-miterlimit="10" stroke-linecap="round" stroke-linejoin="round"/>
<path d="M29.1918 26.0386C19.4884 18.8197 14.0077 12.7805 15.5005 9.9671C18.0947 5.08144 40.8527 12.0759 66.351 25.6054C91.8023 39.114 110.353 54.0424 107.764 58.9281C106.292 61.6945 98.2852 60.6349 86.9898 56.6523L86.9428 56.6262" stroke="#635548" stroke-width="4" stroke-miterlimit="10" stroke-linecap="round"/>
<path d="M95.0616 35.8356L97.1599 31.639C97.2069 31.5398 97.306 31.4719 97.4104 31.4563L102.061 30.809C102.333 30.7673 102.447 30.4332 102.249 30.2401L98.9033 26.9464C98.825 26.8681 98.7937 26.7585 98.8093 26.6489L99.6288 22.0295C99.6758 21.758 99.3887 21.544 99.1434 21.6745L94.978 23.8355C94.8841 23.8877 94.764 23.8825 94.6701 23.8355L90.5256 21.6275C90.2803 21.497 89.9932 21.7058 90.0402 21.9773L90.8075 26.6071C90.8284 26.7168 90.7918 26.8264 90.7135 26.9047L87.3364 30.1618C87.1328 30.3497 87.2424 30.689 87.5191 30.7307L92.1542 31.4302C92.2638 31.4458 92.3577 31.5137 92.4047 31.6129L94.4613 35.8304C94.5813 36.0809 94.9363 36.0862 95.0616 35.8356Z" fill="#635548" stroke="white" stroke-width="4" stroke-miterlimit="10" stroke-linecap="round"/>
<path d="M100.278 36.1852C99.5336 36.7831 99.4147 37.8691 100.013 38.614C100.614 39.363 101.704 39.4786 102.445 38.8839C103.19 38.2787 103.313 37.1894 102.711 36.4477C102.113 35.7028 101.024 35.5799 100.278 36.1852Z" fill="#635548"/>
<path d="M11.8432 52.0074L14.2025 46.7772C14.2599 46.6519 14.3695 46.5632 14.5052 46.5423L20.153 45.5193C20.487 45.4619 20.6019 45.0443 20.3513 44.8146L16.1077 40.952C16.0085 40.8633 15.9615 40.7276 15.9772 40.5971L16.7497 34.9076C16.7967 34.5735 16.4365 34.3282 16.1442 34.4952L11.1594 37.34C11.0394 37.4078 10.8984 37.413 10.7784 37.3556L5.60562 34.8606C5.30288 34.7144 4.95838 34.9807 5.03146 35.3147L6.19545 40.9364C6.22155 41.0668 6.18501 41.2026 6.09106 41.3017L2.11885 45.4462C1.88397 45.6915 2.03534 46.0987 2.37462 46.1352L8.07455 46.7668C8.21026 46.7772 8.33032 46.8607 8.39295 46.9756L11.1072 52.0335C11.269 52.331 11.7023 52.3153 11.8432 52.0074Z" fill="#635548" stroke="white" stroke-width="4" stroke-miterlimit="10" stroke-linecap="round"/>
<path d="M19.6232 57.8678C18.7132 59.4759 19.2791 61.5175 20.8872 62.4276C22.4908 63.3351 24.5324 62.7691 25.4425 61.161C26.35 59.5574 25.786 57.523 24.1804 56.6083C22.5723 55.6983 20.5307 56.2642 19.6232 57.8678Z" fill="#635548"/>
</svg>
