<svg width="136" height="143" viewBox="0 0 136 143" fill="none" xmlns="http://www.w3.org/2000/svg">
<path d="M35.95 57.0201C35.95 57.0201 34.4749 41.2962 35.6049 39.6968L32.4747 39.8831L30.6743 43.7069L31.8275 46.3187L31.344 46.5779C31.344 46.5779 22.3033 41.9875 20.7254 39.9768L19.2221 40.4113L18.9175 41.6928L25.4292 46.8941L18.2925 42.1523L17.0699 42.1896L16.477 43.2674C16.477 43.2674 20.0567 47.2931 24.3341 49.7197L17.6319 46.4811L16.1286 46.9156L15.6237 48.0555L24.9609 54.352L20.1271 54.8313L16.7414 54.5366L15.8117 56.2775C15.8117 56.2775 29.2168 57.6593 30.2774 58.709L35.958 57.0311L35.95 57.0201Z" fill="url(#paint0_linear_4105_55)"/>
<path d="M77.7769 37.1337C77.7769 37.1337 64.8972 27.9942 62.9471 28.1731L64.6735 25.5555L68.8853 25.9082L70.5705 28.2128L71.0367 27.9237C71.0367 27.9237 71.5817 17.799 70.6293 15.4271L71.7573 14.3425L73.0193 14.7195L74.268 22.9594L73.7298 14.4079L74.3735 13.3678L75.6033 13.3933C75.6033 13.3933 77.2998 18.5062 77.2626 23.4238L77.809 16.0002L78.9369 14.9156L80.1765 15.0483L80.9609 26.2828L83.7928 22.3363L85.2305 19.2567L87.203 19.3221C87.203 19.3221 81.6971 31.6221 82.0759 33.0655L77.7824 37.1461L77.7769 37.1337Z" fill="url(#paint1_linear_4105_55)"/>
<path d="M98.6515 53.2064C88.741 45.5097 81.9545 32.0336 81.9545 32.0336L70.9568 31.9224C70.9568 31.9224 99.8737 63.9312 100.104 67.7739C100.104 67.7739 69.9961 31.98 66.799 33.3289C63.9611 34.5251 58.1426 36.6618 56.8746 37.1255C56.7908 36.4036 56.6247 35.6596 56.3811 34.9106C55.0991 31.0289 52.067 28.5402 49.6091 29.353C47.1511 30.1658 46.1975 33.9716 47.4795 37.8533C47.934 39.226 48.6093 40.4214 49.3967 41.3634C48.255 41.779 40.4294 44.6571 39.7913 45.9449C39.1035 47.336 43.7349 92.3721 40.8529 92.5451C37.9709 92.7181 35.374 49.4843 35.374 49.4843L28.465 56.455L25.6335 79.9569L28.9078 95.9578C28.9078 95.9578 39.9828 113.419 41.101 112.773C42.2192 112.127 49.7247 112.267 53.0174 105.893C53.0174 105.893 52.8895 74.6573 48.7276 63.1447C48.7276 63.1447 54.8108 74.5419 54.7418 83.0304C54.6729 91.5189 61.6828 131.206 61.6828 131.206L55.3041 137.374L55.9454 142.788L79.4351 129.226C79.4351 129.226 75.4796 88.7698 71.0879 79.4673C66.6961 70.1648 66.6498 59.755 66.6498 59.755C66.6498 59.755 71.9051 73.9362 72.7726 78.4946C72.7726 78.4946 84.1546 121.855 85.5927 125.671L122.523 104.349L119.685 99.4331L98.2318 104.136C98.2318 104.136 75.536 66.5471 76.3659 61.0982C76.3659 61.0982 76.1353 57.2555 88.5169 80.4227L100.18 98.0411C100.18 98.0411 118.175 99.0821 117.756 88.8875C117.337 78.6928 108.556 60.9014 98.6456 53.2048L98.6515 53.2064Z" fill="url(#paint2_linear_4105_55)"/>
<defs>
<linearGradient id="paint0_linear_4105_55" x1="24.5885" y1="42.6513" x2="33.8616" y2="105.697" gradientUnits="userSpaceOnUse">
<stop stop-color="#3C7ADF"/>
<stop offset="1" stop-color="#6629B0"/>
</linearGradient>
<linearGradient id="paint1_linear_4105_55" x1="71.014" y1="20.11" x2="120.976" y2="59.6635" gradientUnits="userSpaceOnUse">
<stop stop-color="#3C7ADF"/>
<stop offset="1" stop-color="#6629B0"/>
</linearGradient>
<linearGradient id="paint2_linear_4105_55" x1="66.367" y1="50.8967" x2="-24.8423" y2="270.012" gradientUnits="userSpaceOnUse">
<stop stop-color="#3C7ADF"/>
<stop offset="1" stop-color="#6629B0"/>
</linearGradient>
</defs>
</svg>
