<svg width="1200" height="1200" viewBox="0 0 1200 1200" fill="none" xmlns="http://www.w3.org/2000/svg">
<g clip-path="url(#clip0_1_2)">
<g clip-path="url(#clip1_1_2)">
<path fill-rule="evenodd" clip-rule="evenodd" d="M650 550H1200C1200 546.869 1199.98 543.744 1199.92 540.625C1199.35 506.441 1195.66 473.019 1189.13 440.625C1145.54 224.616 975.384 54.461 759.375 10.8755C724.028 3.74308 687.45 1.63719e-06 650 0V550ZM759.375 123.056V440.625H1076.94C1037.23 285.157 914.844 162.765 759.375 123.056ZM650 650V1200H1200V650H650ZM759.375 759.375H1090.63V1090.63H759.375V759.375ZM0 650C1.63719e-06 687.45 3.74308 724.028 10.8755 759.375C54.461 975.384 224.616 1145.54 440.625 1189.13C473.019 1195.66 506.441 1199.35 540.625 1199.92C543.744 1199.98 546.869 1200 550 1200V650H0ZM440.625 759.375H123.056C162.765 914.844 285.157 1037.23 440.625 1076.94V759.375ZM346.456 540.625C323.672 546.741 299.716 550 275 550C250.284 550 226.33 546.741 203.543 540.625C86.3097 509.166 2.40413e-05 402.163 2.40413e-05 275C2.40413e-05 123.122 123.122 2.40413e-05 275 2.40413e-05C402.163 2.40413e-05 509.166 86.3097 540.625 203.543C546.741 226.33 550 250.284 550 275C550 299.716 546.741 323.672 540.625 346.456C515.281 440.903 440.903 515.281 346.456 540.625ZM275 440.625C366.472 440.625 440.625 366.472 440.625 275C440.625 183.528 366.472 109.375 275 109.375C183.528 109.375 109.375 183.528 109.375 275C109.375 366.472 183.528 440.625 275 440.625Z" fill="black"/>
</g>
</g>
<defs>
<clipPath id="clip0_1_2">
<rect width="1200" height="1200" fill="white"/>
</clipPath>
<clipPath id="clip1_1_2">
<rect width="1200" height="1200" fill="white"/>
</clipPath>
</defs>
</svg>
