<svg width="347" height="109" viewBox="0 0 347 109" fill="none" xmlns="http://www.w3.org/2000/svg">
<mask id="mask0_554_32" style="mask-type:luminance" maskUnits="userSpaceOnUse" x="0" y="0" width="347" height="109">
<path d="M346.561 0H0V108.671H346.561V0Z" fill="white"/>
</mask>
<g mask="url(#mask0_554_32)">
<path d="M346.685 -0.199219H237.771V108.715H346.685V-0.199219Z" fill="#F7DF1E"/>
<path d="M266.408 90.8175L274.743 85.7732C276.351 88.6243 277.814 91.0363 281.323 91.0363C284.686 91.0363 286.806 89.7207 286.806 84.6035V49.8027H297.041V84.7483C297.041 95.3493 290.827 100.175 281.761 100.175C273.573 100.175 268.821 95.934 266.408 90.8166" fill="black"/>
<path d="M302.601 89.7218L310.934 84.8965C313.128 88.4793 315.98 91.111 321.024 91.111C325.265 91.111 327.969 88.9906 327.969 86.0662C327.969 82.5569 325.191 81.3139 320.512 79.2675L317.954 78.1701C310.569 75.027 305.671 71.0791 305.671 62.7445C305.671 55.068 311.519 49.2188 320.659 49.2188C327.165 49.2188 331.844 51.4854 335.207 57.4074L327.238 62.525C325.483 59.3815 323.583 58.1387 320.659 58.1387C317.661 58.1387 315.76 60.0395 315.76 62.525C315.76 65.5957 317.661 66.8387 322.047 68.7397L324.606 69.8362C333.306 73.5651 338.204 77.3664 338.204 85.92C338.204 95.1322 330.967 100.177 321.243 100.177C311.739 100.177 305.598 95.6439 302.601 89.7218Z" fill="black"/>
<path d="M-0.0800781 108.037H31.0192C47.0778 108.037 56.8034 97.972 56.8034 84.2883C56.8034 74.6758 51.7144 67.6643 41.1972 65.1764C47.8694 63.0277 52.0537 58.1649 52.0537 51.0403C52.0537 40.1838 44.0244 31.1367 29.6622 31.1367H-0.0800781V108.037ZM15.7523 59.5219V45.0466H28.7575C33.6203 45.0466 36.4475 47.8738 36.4475 52.2843C36.4475 56.6947 33.0548 59.5219 27.9658 59.5219H15.7523ZM15.7523 94.127V72.9795H29.436C36.6736 72.9795 40.8579 77.2768 40.8579 83.4967C40.8579 89.8297 36.7867 94.127 30.3407 94.127H15.7523Z" fill="black"/>
<path d="M83.7179 70.6046C84.1702 66.7596 84.7357 61.4444 84.7357 57.7125V31.1367H68.9033V108.037H84.7357V86.7763L92.1995 77.8423L112.669 108.037H131.78L102.83 65.968L128.614 31.1367H110.633L90.277 58.6172C87.9022 61.7837 85.5273 66.5334 83.7179 70.6046Z" fill="black"/>
<path d="M157.112 70.6046C157.565 66.7596 158.13 61.4444 158.13 57.7125V31.1367H142.298V108.037H158.13V86.7763L165.594 77.8423L186.063 108.037H205.175L176.224 65.968L202.009 31.1367H184.027L163.672 58.6172C161.297 61.7837 158.922 66.5334 157.112 70.6046Z" fill="black"/>
<path d="M221.799 108.715C226.888 108.715 231.298 104.757 231.298 99.103C231.298 93.5616 226.888 89.6035 221.799 89.6035C216.597 89.6035 212.187 93.5616 212.187 99.103C212.187 104.757 216.597 108.715 221.799 108.715Z" fill="black"/>
</g>
</svg>
