<svg width="294" height="166" viewBox="0 0 294 166" fill="none" xmlns="http://www.w3.org/2000/svg">
<path d="M293.83 164.265H287.036V159.974H286.916C285.923 161.643 284.532 162.914 282.744 163.788C280.996 164.662 279.108 165.099 277.082 165.099C274.897 165.099 272.93 164.702 271.181 163.907C269.473 163.073 268.002 161.98 266.771 160.629C265.579 159.239 264.645 157.629 263.969 155.801C263.334 153.934 263.016 151.947 263.016 149.841C263.016 147.735 263.353 145.768 264.029 143.94C264.704 142.113 265.658 140.523 266.89 139.172C268.122 137.821 269.592 136.768 271.3 136.013C273.009 135.218 274.877 134.821 276.903 134.821C278.214 134.821 279.387 134.98 280.42 135.298C281.453 135.576 282.347 135.934 283.102 136.371C283.897 136.808 284.572 137.285 285.128 137.801C285.685 138.318 286.142 138.815 286.499 139.291H286.678V119.205H293.83V164.265ZM270.287 149.841C270.287 150.954 270.446 152.066 270.764 153.179C271.122 154.291 271.638 155.285 272.314 156.159C272.989 157.033 273.844 157.748 274.877 158.305C275.91 158.861 277.122 159.139 278.512 159.139C279.824 159.139 280.996 158.881 282.029 158.364C283.062 157.808 283.936 157.093 284.652 156.219C285.407 155.344 285.963 154.371 286.32 153.298C286.718 152.185 286.916 151.073 286.916 149.96C286.916 148.848 286.718 147.735 286.32 146.623C285.963 145.51 285.407 144.517 284.652 143.642C283.936 142.768 283.062 142.053 282.029 141.497C280.996 140.94 279.824 140.662 278.512 140.662C277.122 140.662 275.91 140.94 274.877 141.497C273.844 142.013 272.989 142.709 272.314 143.583C271.638 144.457 271.122 145.45 270.764 146.563C270.446 147.636 270.287 148.728 270.287 149.841Z" fill="black"/>
<path d="M230.052 135.655H236.847V140.244H236.966C237.601 138.814 238.694 137.562 240.244 136.489C241.833 135.377 243.701 134.82 245.847 134.82C247.714 134.82 249.304 135.158 250.615 135.834C251.966 136.469 253.059 137.324 253.893 138.396C254.767 139.469 255.403 140.701 255.8 142.092C256.198 143.483 256.396 144.913 256.396 146.383V164.264H249.244V148.41C249.244 147.575 249.184 146.701 249.065 145.787C248.946 144.873 248.688 144.059 248.29 143.344C247.893 142.589 247.337 141.973 246.621 141.496C245.946 141.019 245.032 140.781 243.88 140.781C242.727 140.781 241.734 141.019 240.9 141.496C240.065 141.933 239.37 142.509 238.813 143.224C238.297 143.94 237.9 144.774 237.621 145.728C237.343 146.642 237.204 147.575 237.204 148.529V164.264H230.052V135.655Z" fill="black"/>
<path d="M215.043 160.628H214.864C214.149 161.9 212.997 162.953 211.407 163.787C209.818 164.582 208.01 164.979 205.983 164.979C204.831 164.979 203.619 164.821 202.348 164.503C201.116 164.225 199.964 163.748 198.891 163.072C197.858 162.357 196.983 161.443 196.268 160.33C195.593 159.178 195.255 157.768 195.255 156.099C195.255 153.953 195.851 152.244 197.043 150.973C198.275 149.701 199.844 148.728 201.752 148.052C203.659 147.377 205.765 146.94 208.07 146.741C210.414 146.503 212.699 146.383 214.924 146.383V145.668C214.924 143.88 214.268 142.569 212.957 141.734C211.685 140.86 210.156 140.423 208.368 140.423C206.858 140.423 205.407 140.741 204.017 141.377C202.626 142.012 201.473 142.787 200.56 143.701L196.864 139.35C198.493 137.84 200.361 136.708 202.467 135.953C204.613 135.198 206.778 134.82 208.964 134.82C211.507 134.82 213.593 135.178 215.222 135.893C216.891 136.608 218.202 137.542 219.156 138.695C220.109 139.847 220.765 141.138 221.123 142.569C221.52 143.999 221.719 145.43 221.719 146.86V164.264H215.043V160.628ZM214.924 151.211H213.315C212.162 151.211 210.95 151.271 209.679 151.39C208.407 151.469 207.235 151.688 206.162 152.046C205.089 152.363 204.195 152.84 203.48 153.476C202.765 154.072 202.407 154.907 202.407 155.979C202.407 156.655 202.546 157.231 202.824 157.708C203.142 158.145 203.54 158.503 204.017 158.781C204.493 159.059 205.03 159.258 205.626 159.377C206.222 159.496 206.818 159.556 207.414 159.556C209.878 159.556 211.745 158.9 213.017 157.589C214.288 156.277 214.924 154.489 214.924 152.224V151.211Z" fill="black"/>
<path d="M181.452 119.205H188.605V164.265H181.452V119.205Z" fill="black"/>
<path d="M165.503 135.655H172.656V164.265H165.503V135.655ZM164.49 125.94C164.49 124.788 164.907 123.794 165.742 122.96C166.616 122.086 167.709 121.648 169.02 121.648C170.331 121.648 171.424 122.066 172.298 122.9C173.212 123.695 173.669 124.708 173.669 125.94C173.669 127.172 173.212 128.205 172.298 129.039C171.424 129.834 170.331 130.231 169.02 130.231C167.709 130.231 166.616 129.814 165.742 128.98C164.907 128.105 164.49 127.092 164.49 125.94Z" fill="black"/>
<path d="M150.376 160.628H150.197C149.482 161.9 148.33 162.953 146.74 163.787C145.151 164.582 143.343 164.979 141.316 164.979C140.164 164.979 138.952 164.821 137.681 164.503C136.449 164.225 135.297 163.748 134.224 163.072C133.191 162.357 132.316 161.443 131.601 160.33C130.926 159.178 130.588 157.768 130.588 156.099C130.588 153.953 131.184 152.244 132.376 150.973C133.608 149.701 135.177 148.728 137.085 148.052C138.992 147.377 141.098 146.94 143.403 146.741C145.747 146.503 148.032 146.383 150.257 146.383V145.668C150.257 143.88 149.601 142.569 148.29 141.734C147.018 140.86 145.489 140.423 143.701 140.423C142.191 140.423 140.74 140.741 139.35 141.377C137.959 142.012 136.806 142.787 135.893 143.701L132.197 139.35C133.826 137.84 135.694 136.708 137.8 135.953C139.946 135.198 142.111 134.82 144.297 134.82C146.84 134.82 148.926 135.178 150.555 135.893C152.224 136.608 153.535 137.542 154.489 138.695C155.442 139.847 156.098 141.138 156.456 142.569C156.853 143.999 157.052 145.43 157.052 146.86V164.264H150.376V160.628ZM150.257 151.211H148.648C147.495 151.211 146.283 151.271 145.012 151.39C143.74 151.469 142.568 151.688 141.495 152.046C140.422 152.363 139.528 152.84 138.813 153.476C138.098 154.072 137.74 154.907 137.74 155.979C137.74 156.655 137.879 157.231 138.157 157.708C138.475 158.145 138.873 158.503 139.35 158.781C139.826 159.059 140.363 159.258 140.959 159.377C141.555 159.496 142.151 159.556 142.747 159.556C145.211 159.556 147.078 158.9 148.35 157.589C149.621 156.277 150.257 154.489 150.257 152.224V151.211Z" fill="black"/>
<path d="M113.722 134.821C115.589 134.821 117.179 135.159 118.49 135.834C119.841 136.47 120.934 137.324 121.768 138.397C122.642 139.47 123.278 140.702 123.675 142.093C124.073 143.483 124.271 144.914 124.271 146.384V164.265H117.119V148.53C117.119 147.695 117.059 146.841 116.94 145.967C116.821 145.053 116.563 144.238 116.165 143.523C115.808 142.768 115.271 142.152 114.556 141.675C113.881 141.199 112.967 140.96 111.814 140.96C110.662 140.96 109.669 141.179 108.834 141.616C108 142.053 107.304 142.649 106.748 143.404C106.192 144.119 105.775 144.934 105.496 145.848C105.218 146.762 105.079 147.695 105.079 148.649V164.265H97.9268V119.205H105.079V139.649H105.198C105.476 139.053 105.874 138.477 106.39 137.92C106.947 137.324 107.582 136.808 108.298 136.371C109.013 135.894 109.828 135.516 110.741 135.238C111.655 134.96 112.649 134.821 113.722 134.821Z" fill="black"/>
<path d="M73.8597 128.623H60.9258V122.066H94.3035V128.623H81.3697V164.265H73.8597V128.623Z" fill="black"/>
<path d="M16.8428 135.655H23.6375V140.244H23.7567C24.3925 138.814 25.4852 137.562 27.0349 136.489C28.6243 135.377 30.4919 134.82 32.6376 134.82C34.5052 134.82 36.0946 135.158 37.4059 135.834C38.7569 136.469 39.8496 137.324 40.684 138.396C41.5582 139.469 42.194 140.701 42.5913 142.092C42.9887 143.483 43.1874 144.913 43.1874 146.383V164.264H36.035V148.41C36.035 147.575 35.9754 146.701 35.8562 145.787C35.737 144.873 35.4787 144.059 35.0813 143.344C34.684 142.589 34.1277 141.973 33.4124 141.496C32.7369 141.019 31.823 140.781 30.6707 140.781C29.5184 140.781 28.525 141.019 27.6905 141.496C26.8561 141.933 26.1607 142.509 25.6044 143.224C25.0879 143.94 24.6905 144.774 24.4124 145.728C24.1342 146.642 23.9951 147.575 23.9951 148.529V164.264H16.8428V135.655Z" fill="black"/>
<path d="M1.01325 135.655H8.16563V164.265H1.01325V135.655ZM0 125.94C0 124.788 0.417222 123.794 1.25167 122.96C2.12585 122.086 3.21857 121.648 4.52984 121.648C5.84111 121.648 6.93383 122.066 7.80801 122.9C8.72193 123.695 9.17888 124.708 9.17888 125.94C9.17888 127.172 8.72193 128.205 7.80801 129.039C6.93383 129.834 5.84111 130.231 4.52984 130.231C3.21857 130.231 2.12585 129.814 1.25167 128.98C0.417222 128.105 0 127.092 0 125.94Z" fill="black"/>
<path d="M265.15 76.0532H271.945V80.6426H272.064C272.7 79.2122 273.793 77.9605 275.343 76.8876C276.932 75.775 278.8 75.2188 280.945 75.2188C282.813 75.2188 284.402 75.5565 285.713 76.232C287.064 76.8678 288.157 77.7221 288.992 78.7949C289.866 79.8678 290.502 81.0996 290.899 82.4903C291.296 83.8811 291.495 85.3116 291.495 86.7818V104.663H284.343V88.8083C284.343 87.9738 284.283 87.0996 284.164 86.1857C284.045 85.2718 283.786 84.4572 283.389 83.742C282.992 82.987 282.435 82.3711 281.72 81.8943C281.045 81.4175 280.131 81.1791 278.978 81.1791C277.826 81.1791 276.833 81.4175 275.998 81.8943C275.164 82.3314 274.468 82.9076 273.912 83.6228C273.395 84.338 272.998 85.1725 272.72 86.1261C272.442 87.04 272.303 87.9738 272.303 88.9275V104.663H265.15V76.0532Z" fill="black"/>
<path d="M227.102 90.2387C227.102 87.9738 227.499 85.9274 228.294 84.0996C229.128 82.2321 230.241 80.6426 231.631 79.3314C233.022 78.0201 234.671 77.0068 236.578 76.2916C238.486 75.5764 240.512 75.2188 242.658 75.2188C244.804 75.2188 246.83 75.5764 248.738 76.2916C250.645 77.0068 252.294 78.0201 253.685 79.3314C255.075 80.6426 256.168 82.2321 256.963 84.0996C257.797 85.9274 258.214 87.9738 258.214 90.2387C258.214 92.5037 257.797 94.5699 256.963 96.4375C256.168 98.305 255.075 99.9143 253.685 101.265C252.294 102.577 250.645 103.61 248.738 104.365C246.83 105.12 244.804 105.497 242.658 105.497C240.512 105.497 238.486 105.12 236.578 104.365C234.671 103.61 233.022 102.577 231.631 101.265C230.241 99.9143 229.128 98.305 228.294 96.4375C227.499 94.5699 227.102 92.5037 227.102 90.2387ZM234.373 90.2387C234.373 91.3513 234.532 92.4639 234.85 93.5765C235.208 94.6891 235.724 95.6825 236.4 96.5567C237.075 97.4309 237.929 98.1461 238.963 98.7024C239.996 99.2587 241.227 99.5368 242.658 99.5368C244.088 99.5368 245.32 99.2587 246.353 98.7024C247.386 98.1461 248.241 97.4309 248.916 96.5567C249.592 95.6825 250.089 94.6891 250.406 93.5765C250.764 92.4639 250.943 91.3513 250.943 90.2387C250.943 89.1261 250.764 88.0334 250.406 86.9606C250.089 85.848 249.592 84.8546 248.916 83.9804C248.241 83.1062 247.386 82.4109 246.353 81.8943C245.32 81.338 244.088 81.0599 242.658 81.0599C241.227 81.0599 239.996 81.338 238.963 81.8943C237.929 82.4109 237.075 83.1062 236.4 83.9804C235.724 84.8546 235.208 85.848 234.85 86.9606C234.532 88.0334 234.373 89.1261 234.373 90.2387Z" fill="black"/>
<path d="M209.878 75.2195C211.745 75.2195 213.335 75.5573 214.646 76.2328C215.997 76.8686 217.09 77.7229 217.924 78.7957C218.798 79.8686 219.434 81.1004 219.832 82.4911C220.229 83.8819 220.428 85.3123 220.428 86.7826V104.663H213.275V88.9283C213.275 88.0938 213.216 87.2395 213.096 86.3653C212.977 85.4514 212.719 84.6368 212.322 83.9216C211.964 83.1666 211.428 82.5507 210.712 82.0739C210.037 81.5971 209.123 81.3587 207.971 81.3587C206.818 81.3587 205.825 81.5772 204.99 82.0143C204.156 82.4514 203.461 83.0474 202.904 83.8024C202.348 84.5176 201.931 85.3322 201.653 86.2461C201.374 87.16 201.235 88.0938 201.235 89.0475V104.663H194.083V59.6035H201.235V80.0474H201.355C201.633 79.4514 202.03 78.8752 202.547 78.3189C203.103 77.7229 203.739 77.2063 204.454 76.7692C205.169 76.2924 205.984 75.9149 206.898 75.6368C207.812 75.3586 208.805 75.2195 209.878 75.2195Z" fill="black"/>
<path d="M169.595 81.7743V76.0524H174.601V67.7676H181.635V76.0524H188.787V81.7743H181.635V95.0658C181.635 96.3374 181.853 97.3903 182.29 98.2248C182.767 99.0592 183.8 99.4764 185.39 99.4764C185.866 99.4764 186.383 99.4367 186.939 99.3572C187.496 99.238 187.992 99.0791 188.429 98.8804L188.668 104.483C188.032 104.722 187.277 104.9 186.403 105.02C185.529 105.178 184.694 105.258 183.899 105.258C181.992 105.258 180.442 105 179.25 104.483C178.058 103.927 177.105 103.192 176.389 102.278C175.714 101.324 175.237 100.251 174.959 99.0592C174.721 97.8274 174.601 96.5162 174.601 95.1254V81.7743H169.595Z" fill="black"/>
<path d="M159.282 101.027H159.104C158.388 102.298 157.236 103.351 155.647 104.186C154.057 104.981 152.249 105.378 150.223 105.378C149.07 105.378 147.858 105.219 146.587 104.901C145.355 104.623 144.203 104.146 143.13 103.471C142.097 102.755 141.223 101.841 140.507 100.729C139.832 99.5766 139.494 98.166 139.494 96.4971C139.494 94.3514 140.09 92.6427 141.282 91.3712C142.514 90.0997 144.084 89.1261 145.991 88.4506C147.898 87.7751 150.004 87.3381 152.309 87.1394C154.653 86.901 156.938 86.7818 159.163 86.7818V86.0665C159.163 84.2784 158.508 82.9672 157.196 82.1327C155.925 81.2585 154.395 80.8214 152.607 80.8214C151.097 80.8214 149.647 81.1393 148.256 81.7751C146.865 82.4109 145.713 83.1857 144.799 84.0996L141.103 79.7486C142.733 78.2386 144.6 77.1062 146.706 76.3512C148.852 75.5962 151.017 75.2188 153.203 75.2188C155.746 75.2188 157.832 75.5764 159.461 76.2916C161.13 77.0068 162.441 77.9406 163.395 79.093C164.349 80.2453 165.004 81.5367 165.362 82.9672C165.759 84.3976 165.958 85.8281 165.958 87.2586V104.663H159.282V101.027ZM159.163 91.6096H157.554C156.402 91.6096 155.19 91.6692 153.918 91.7884C152.647 91.8679 151.474 92.0864 150.402 92.4441C149.329 92.7619 148.435 93.2388 147.719 93.8745C147.004 94.4706 146.647 95.305 146.647 96.3779C146.647 97.0534 146.786 97.6295 147.064 98.1063C147.382 98.5434 147.779 98.9011 148.256 99.1792C148.733 99.4574 149.269 99.656 149.865 99.7752C150.461 99.8944 151.057 99.9541 151.653 99.9541C154.117 99.9541 155.984 99.2984 157.256 97.9871C158.527 96.6759 159.163 94.8878 159.163 92.6229V91.6096Z" fill="black"/>
<path d="M109.626 59.6035H116.778V88.0938H116.957L127.805 76.054H136.984L124.586 88.9879L137.759 104.663H128.282L116.957 90.0011H116.778V104.663H109.626V59.6035Z" fill="black"/>
<path d="M99.9531 83.9804C99.3968 83.1857 98.5623 82.5301 97.4498 82.0135C96.3372 81.4572 95.2047 81.1791 94.0524 81.1791C92.7411 81.1791 91.5888 81.4572 90.5954 82.0135C89.602 82.5301 88.7676 83.2254 88.0921 84.0996C87.4563 84.9738 86.9795 85.9672 86.6616 87.0798C86.3437 88.1526 86.1848 89.2454 86.1848 90.358C86.1848 91.4705 86.3437 92.5831 86.6616 93.6957C87.0192 94.7686 87.5358 95.7421 88.2113 96.6163C88.8868 97.4905 89.7212 98.2057 90.7146 98.762C91.7477 99.2785 92.9398 99.5368 94.2908 99.5368C95.4034 99.5368 96.516 99.3183 97.6286 98.8812C98.7412 98.4441 99.6352 97.8083 100.311 96.9739L104.781 101.504C103.589 102.775 102.059 103.769 100.192 104.484C98.3637 105.159 96.3769 105.497 94.2312 105.497C92.1252 105.497 90.1186 105.159 88.2113 104.484C86.3437 103.808 84.6947 102.815 83.2642 101.504C81.8735 100.192 80.7609 98.6031 79.9264 96.7355C79.1317 94.8679 78.7344 92.7421 78.7344 90.358C78.7344 88.0533 79.1317 85.9672 79.9264 84.0996C80.7609 82.2321 81.8735 80.6426 83.2642 79.3314C84.655 78.0201 86.2642 77.0068 88.0921 76.2916C89.9596 75.5764 91.9464 75.2188 94.0524 75.2188C96.1584 75.2188 98.1849 75.6161 100.132 76.4108C102.119 77.2055 103.688 78.2982 104.841 79.689L99.9531 83.9804Z" fill="black"/>
<path d="M65.3957 101.027H65.2169C64.5016 102.298 63.3493 103.351 61.7599 104.186C60.1705 104.981 58.3625 105.378 56.336 105.378C55.1837 105.378 53.9717 105.219 52.7002 104.901C51.4684 104.623 50.3161 104.146 49.2432 103.471C48.2101 102.755 47.3359 101.841 46.6207 100.729C45.9452 99.5766 45.6074 98.166 45.6074 96.4971C45.6074 94.3514 46.2035 92.6427 47.3955 91.3712C48.6273 90.0997 50.1969 89.1261 52.1042 88.4506C54.0115 87.7751 56.1174 87.3381 58.4221 87.1394C60.7665 86.901 63.0513 86.7818 65.2765 86.7818V86.0665C65.2765 84.2784 64.6208 82.9672 63.3096 82.1327C62.038 81.2585 60.5082 80.8214 58.7201 80.8214C57.2102 80.8214 55.7598 81.1393 54.3691 81.7751C52.9783 82.4109 51.826 83.1857 50.9121 84.0996L47.2167 79.7486C48.8459 78.2386 50.7134 77.1062 52.8194 76.3512C54.9651 75.5962 57.1307 75.2188 59.3161 75.2188C61.8592 75.2188 63.9453 75.5764 65.5745 76.2916C67.2434 77.0068 68.5546 77.9406 69.5083 79.093C70.4619 80.2453 71.1176 81.5367 71.4752 82.9672C71.8725 84.3976 72.0712 85.8281 72.0712 87.2586V104.663H65.3957V101.027ZM65.2765 91.6096H63.6672C62.5148 91.6096 61.3029 91.6692 60.0314 91.7884C58.7598 91.8679 57.5876 92.0864 56.5148 92.4441C55.4419 92.7619 54.5479 93.2388 53.8327 93.8745C53.1174 94.4706 52.7598 95.305 52.7598 96.3779C52.7598 97.0534 52.8989 97.6295 53.177 98.1063C53.4949 98.5434 53.8923 98.9011 54.3691 99.1792C54.8459 99.4574 55.3823 99.656 55.9784 99.7752C56.5744 99.8944 57.1704 99.9541 57.7665 99.9541C60.2301 99.9541 62.0976 99.2984 63.3692 97.9871C64.6407 96.6759 65.2765 94.8878 65.2765 92.6229V91.6096Z" fill="black"/>
<path d="M3.92871 62.4629H11.4387V79.5094H31.1673V62.4629H38.6773V104.662H31.1673V85.9465H11.4387V104.662H3.92871V62.4629Z" fill="black"/>
<path d="M233.15 45.06H226.355V40.7685H226.236C225.242 42.4374 223.852 43.709 222.064 44.5832C220.315 45.4573 218.428 45.8944 216.401 45.8944C214.216 45.8944 212.249 45.4971 210.501 44.7024C208.792 43.8679 207.322 42.7752 206.09 41.4242C204.898 40.0334 203.964 38.4242 203.289 36.5963C202.653 34.7288 202.335 32.742 202.335 30.636C202.335 28.53 202.673 26.5631 203.348 24.7353C204.024 22.9075 204.977 21.3181 206.209 19.9671C207.441 18.616 208.911 17.5631 210.62 16.8081C212.328 16.0134 214.196 15.616 216.222 15.616C217.534 15.616 218.706 15.775 219.739 16.0928C220.772 16.371 221.666 16.7286 222.421 17.1657C223.216 17.6028 223.891 18.0796 224.448 18.5962C225.004 19.1127 225.461 19.6094 225.819 20.0863H225.997V0H233.15V45.06ZM209.607 30.636C209.607 31.7486 209.765 32.8612 210.083 33.9738C210.441 35.0864 210.958 36.0798 211.633 36.9539C212.309 37.8281 213.163 38.5434 214.196 39.0997C215.229 39.656 216.441 39.9341 217.832 39.9341C219.143 39.9341 220.315 39.6758 221.348 39.1593C222.381 38.603 223.256 37.8877 223.971 37.0136C224.726 36.1394 225.282 35.1659 225.64 34.093C226.037 32.9804 226.236 31.8678 226.236 30.7552C226.236 29.6426 226.037 28.53 225.64 27.4174C225.282 26.3049 224.726 25.3115 223.971 24.4373C223.256 23.5631 222.381 22.8479 221.348 22.2916C220.315 21.7353 219.143 21.4571 217.832 21.4571C216.441 21.4571 215.229 21.7353 214.196 22.2916C213.163 22.8081 212.309 23.5035 211.633 24.3777C210.958 25.2519 210.441 26.2452 210.083 27.3578C209.765 28.4307 209.607 29.5234 209.607 30.636Z" fill="black"/>
<path d="M188.233 16.4481H195.385V45.0577H188.233V16.4481ZM187.22 6.73283C187.22 5.5805 187.637 4.58712 188.471 3.75268C189.346 2.8785 190.438 2.44141 191.75 2.44141C193.061 2.44141 194.154 2.85863 195.028 3.69307C195.942 4.48778 196.399 5.50103 196.399 6.73283C196.399 7.96463 195.942 8.99775 195.028 9.8322C194.154 10.6269 193.061 11.0243 191.75 11.0243C190.438 11.0243 189.346 10.607 188.471 9.77259C187.637 8.89841 187.22 7.88516 187.22 6.73283Z" fill="black"/>
<path d="M157.251 16.4497V20.4431H157.43C157.787 19.8868 158.244 19.3305 158.801 18.7742C159.397 18.1782 160.112 17.6616 160.946 17.2245C161.781 16.7477 162.714 16.3702 163.748 16.0921C164.82 15.7742 166.013 15.6152 167.324 15.6152C169.35 15.6152 171.218 16.0126 172.926 16.8073C174.635 17.5623 176.105 18.6153 177.337 19.9663C178.569 21.3173 179.523 22.9067 180.198 24.7345C180.874 26.5623 181.211 28.5292 181.211 30.6352C181.211 32.7412 180.874 34.728 180.198 36.5955C179.562 38.4234 178.629 40.0327 177.397 41.4234C176.205 42.7744 174.734 43.8671 172.986 44.7016C171.277 45.4963 169.33 45.8936 167.145 45.8936C165.118 45.8936 163.251 45.4764 161.542 44.642C159.873 43.8075 158.582 42.6751 157.668 41.2446H157.549V59.3639H150.396V16.4497H157.251ZM173.94 30.6352C173.94 29.5226 173.761 28.4299 173.403 27.3571C173.085 26.2445 172.589 25.2511 171.913 24.3769C171.238 23.5027 170.383 22.8073 169.35 22.2908C168.317 21.7345 167.105 21.4563 165.714 21.4563C164.403 21.4563 163.231 21.7345 162.198 22.2908C161.165 22.8471 160.271 23.5623 159.516 24.4365C158.801 25.3107 158.244 26.3041 157.847 27.4167C157.489 28.5292 157.31 29.6418 157.31 30.7544C157.31 31.867 157.489 32.9796 157.847 34.0922C158.244 35.1651 158.801 36.1386 159.516 37.0128C160.271 37.8869 161.165 38.6022 162.198 39.1585C163.231 39.675 164.403 39.9333 165.714 39.9333C167.105 39.9333 168.317 39.6552 169.35 39.0989C170.383 38.5426 171.238 37.8273 171.913 36.9532C172.589 36.079 173.085 35.0856 173.403 33.973C173.761 32.8604 173.94 31.7478 173.94 30.6352Z" fill="black"/>
<path d="M141.812 45.0587H135.018V40.4693H134.898C134.263 41.8998 133.15 43.1713 131.561 44.2839C130.011 45.3567 128.163 45.8932 126.018 45.8932C124.15 45.8932 122.541 45.5753 121.19 44.9395C119.878 44.264 118.786 43.3898 117.912 42.317C117.077 41.2441 116.461 40.0123 116.064 38.6216C115.666 37.2308 115.468 35.8004 115.468 34.3302V16.4492H122.62V32.3037C122.62 33.1381 122.68 34.0123 122.799 34.9262C122.918 35.8401 123.176 36.6746 123.574 37.4295C123.971 38.1448 124.508 38.7408 125.183 39.2176C125.898 39.6944 126.832 39.9329 127.984 39.9329C129.097 39.9329 130.071 39.7143 130.905 39.2772C131.779 38.8004 132.475 38.2044 132.991 37.4891C133.547 36.7739 133.965 35.9593 134.243 35.0454C134.521 34.0917 134.66 33.1381 134.66 32.1844V16.4492H141.812V45.0587Z" fill="black"/>
<path d="M91.3359 22.1708V16.4489H96.3426V8.16406H103.376V16.4489H110.528V22.1708H103.376V35.4623C103.376 36.7338 103.594 37.7868 104.031 38.6213C104.508 39.4557 105.541 39.8729 107.131 39.8729C107.608 39.8729 108.124 39.8332 108.68 39.7537C109.237 39.6345 109.733 39.4756 110.171 39.2769L110.409 44.8796C109.773 45.118 109.018 45.2968 108.144 45.416C107.27 45.575 106.435 45.6544 105.641 45.6544C103.733 45.6544 102.184 45.3962 100.992 44.8796C99.7996 44.3233 98.8459 43.5882 98.1307 42.6743C97.4552 41.7206 96.9784 40.6478 96.7002 39.4557C96.4618 38.2239 96.3426 36.9126 96.3426 35.5219V22.1708H91.3359Z" fill="black"/>
<path d="M83.4482 11.6793C82.6535 10.6462 81.521 9.79184 80.0508 9.11634C78.6203 8.4011 77.17 8.04348 75.6998 8.04348C74.8256 8.04348 73.9514 8.16269 73.0772 8.4011C72.203 8.59978 71.4083 8.93753 70.6931 9.41436C69.9779 9.85145 69.3818 10.4475 68.905 11.2025C68.4679 11.9177 68.2494 12.7919 68.2494 13.825C68.2494 14.7786 68.448 15.5932 68.8454 16.2687C69.2427 16.9442 69.7792 17.5204 70.4547 17.9972C71.1699 18.474 72.0242 18.8913 73.0176 19.2489C74.011 19.6065 75.1037 19.9641 76.2958 20.3217C77.6468 20.7588 79.0375 21.2555 80.468 21.8118C81.9382 22.3681 83.2694 23.1032 84.4614 24.0171C85.6932 24.931 86.6866 26.0834 87.4416 27.4741C88.2363 28.8648 88.6336 30.5933 88.6336 32.6596C88.6336 34.9245 88.2164 36.9113 87.382 38.6199C86.5475 40.2888 85.4349 41.6795 84.0442 42.7921C82.6535 43.9047 81.0243 44.7391 79.1567 45.2954C77.2892 45.8517 75.3223 46.1299 73.256 46.1299C70.5143 46.1299 67.8321 45.6332 65.2096 44.6398C62.5871 43.6067 60.4413 42.0967 58.7725 40.11L64.1367 35.1033C65.1699 36.5338 66.5407 37.6662 68.2494 38.5007C69.9977 39.3351 71.7063 39.7524 73.3752 39.7524C74.2494 39.7524 75.1435 39.653 76.0574 39.4543C76.9713 39.2159 77.7859 38.8384 78.5011 38.3219C79.2561 37.8053 79.8521 37.1696 80.2892 36.4146C80.766 35.6199 81.0044 34.6464 81.0044 33.494C81.0044 32.3814 80.7462 31.4675 80.2296 30.7523C79.713 29.9973 79.0177 29.3615 78.1435 28.845C77.2693 28.2887 76.2362 27.8119 75.0441 27.4145C73.8521 27.0172 72.6004 26.5999 71.2891 26.1628C70.0176 25.7655 68.7461 25.2887 67.4745 24.7324C66.203 24.1761 65.0507 23.441 64.0175 22.527C63.0242 21.6131 62.2096 20.5005 61.5738 19.1893C60.938 17.8383 60.6202 16.1694 60.6202 14.1826C60.6202 12.0369 61.0572 10.1892 61.9314 8.63952C62.8453 7.08983 64.0175 5.8183 65.448 4.82492C66.9182 3.79179 68.5672 3.03682 70.3951 2.55999C72.2626 2.04344 74.1501 1.78516 76.0574 1.78516C78.2031 1.78516 80.3687 2.16264 82.5541 2.91762C84.7793 3.67259 86.7065 4.80505 88.3356 6.31499L83.4482 11.6793Z" fill="black"/>
</svg>
